<svg width="767" height="516" viewBox="0 0 767 516" fill="none" xmlns="http://www.w3.org/2000/svg">
<g clip-path="url(#clip0_71_160)">
<mask id="mask0_71_160" style="mask-type:luminance" maskUnits="userSpaceOnUse" x="176" y="99" width="424" height="424">
<path d="M572.123 99L176 126.7L203.7 522.822L599.822 495.123L572.123 99Z" fill="white"/>
</mask>
<g mask="url(#mask0_71_160)">
<path d="M584.564 298.066C585.369 297.742 585.874 296.935 585.807 296.07C581.966 246.379 559.521 199.943 522.926 166.056C486.693 132.504 439.259 113.726 389.949 113.34C388.54 113.329 387.581 114.754 388.105 116.062L406.073 160.911C406.229 161.302 406.259 161.732 406.156 162.141L394.318 209.414C394 210.682 394.967 211.908 396.274 211.936C420.135 212.43 437.823 222.177 455.661 238.695C473.781 255.473 484.962 278.405 487.043 302.977C487.116 303.841 487.726 304.57 488.568 304.778L537.024 316.781C537.431 316.882 537.861 316.852 538.251 316.695L584.564 298.066Z" fill="#0D6EFD"/>
<path d="M375.128 115.167C374.804 114.362 373.997 113.857 373.132 113.923C323.441 117.765 277.005 140.21 243.118 176.805C209.566 213.038 190.789 260.472 190.403 309.782C190.392 311.191 191.816 312.15 193.125 311.625L237.974 293.658C238.364 293.501 238.795 293.472 239.203 293.575L286.477 305.413C287.745 305.73 288.971 304.764 288.998 303.457C289.493 279.596 299.239 261.907 315.757 244.069C332.536 225.95 355.467 214.769 380.039 212.688C380.904 212.614 381.632 212.005 381.841 211.163L393.843 162.707C393.944 162.299 393.914 161.87 393.758 161.48L375.128 115.167Z" fill="#5F5F5F"/>
<path d="M192.229 324.603C191.424 324.927 190.919 325.734 190.986 326.599C194.828 376.29 217.272 422.726 253.867 456.613C290.1 490.165 337.534 508.942 386.844 509.328C388.253 509.339 389.212 507.914 388.688 506.606L370.721 461.757C370.564 461.366 370.535 460.936 370.637 460.528L382.475 413.254C382.793 411.986 381.827 410.76 380.52 410.733C356.658 410.238 338.97 400.492 321.132 383.973C303.013 367.195 291.831 344.263 289.75 319.692C289.677 318.827 289.067 318.099 288.225 317.89L239.77 305.887C239.362 305.786 238.932 305.816 238.543 305.973L192.229 324.603Z" fill="#0D6EFD"/>
<path d="M192.229 324.603C191.424 324.927 190.919 325.734 190.986 326.599C194.828 376.29 217.272 422.726 253.867 456.613C290.1 490.165 337.534 508.942 386.844 509.328C388.253 509.339 389.212 507.914 388.688 506.606L370.721 461.757C370.564 461.366 370.535 460.936 370.637 460.528L382.475 413.254C382.793 411.986 381.827 410.76 380.52 410.733C356.658 410.238 338.97 400.492 321.132 383.973C303.013 367.195 291.831 344.263 289.75 319.692C289.677 318.827 289.067 318.099 288.225 317.89L239.77 305.887C239.362 305.786 238.932 305.816 238.543 305.973L192.229 324.603Z" fill="#0D6EFD"/>
<path d="M401.665 507.502C401.989 508.306 402.796 508.812 403.661 508.745C453.352 504.903 499.788 482.458 533.675 445.864C567.227 409.631 586.005 362.197 586.391 312.887C586.402 311.477 584.977 310.519 583.669 311.043L538.82 329.01C538.429 329.167 537.999 329.196 537.59 329.094L490.317 317.255C489.049 316.938 487.822 317.904 487.795 319.211C487.3 343.073 477.554 360.761 461.036 378.599C444.257 396.718 421.326 407.899 396.754 409.981C395.89 410.054 395.161 410.664 394.953 411.506L382.95 459.961C382.849 460.369 382.879 460.798 383.036 461.188L401.665 507.502Z" fill="#0D6EFD"/>
</g>
<path d="M89.3389 445.107C89.6774 444.428 90.3703 444 91.1282 444L355.524 444C356.76 444 357.7 445.11 357.496 446.329L352.297 477.475C352.175 478.208 352.469 478.948 353.06 479.397L387.275 505.408C388.8 506.567 387.98 509 386.064 509L91.1508 509C90.3811 509 89.6797 508.558 89.3472 507.864L74.4227 476.712C74.156 476.155 74.1613 475.507 74.437 474.955L89.3389 445.107Z" fill="#0D6EFD"/>
<path d="M526.5 194C526.5 198.418 522.918 202 518.5 202C514.082 202 510.5 198.418 510.5 194C510.5 189.582 514.082 186 518.5 186C522.918 186 526.5 189.582 526.5 194ZM567 143.5L565.918 142.461L566.361 142L567 142L567 143.5ZM616 145L614.5 145L614.5 142L616 142L616 145ZM610.5 145L607.5 145L607.5 142L610.5 142L610.5 145ZM603.5 145L600.5 145L600.5 142L603.5 142L603.5 145ZM596.5 145L593.5 145L593.5 142L596.5 142L596.5 145ZM589.5 145L586.5 145L586.5 142L589.5 142L589.5 145ZM582.5 145L579.5 145L579.5 142L582.5 142L582.5 145ZM575.5 145L572.5 145L572.5 142L575.5 142L575.5 145ZM568.5 145L567 145L567 142L568.5 142L568.5 145ZM568.082 144.539L567.043 145.621L564.879 143.543L565.918 142.461L568.082 144.539ZM564.271 148.507L562.193 150.671L560.029 148.593L562.107 146.429L564.271 148.507ZM559.421 153.557L557.343 155.721L555.179 153.643L557.257 151.479L559.421 153.557ZM554.571 158.607L552.493 160.771L550.329 158.693L552.407 156.529L554.571 158.607ZM549.721 163.657L547.643 165.821L545.479 163.743L547.557 161.579L549.721 163.657ZM544.871 168.707L542.793 170.871L540.629 168.793L542.707 166.629L544.871 168.707ZM540.021 173.757L537.943 175.921L535.779 173.843L537.857 171.679L540.021 173.757ZM535.171 178.807L533.093 180.971L530.929 178.893L533.007 176.729L535.171 178.807ZM530.321 183.857L528.243 186.021L526.079 183.943L528.157 181.779L530.321 183.857ZM525.471 188.907L523.393 191.071L521.229 188.993L523.307 186.829L525.471 188.907ZM520.621 193.957L519.582 195.039L517.418 192.961L518.457 191.879L520.621 193.957Z" fill="#212529" fill-opacity="0.5"/>
<path d="M529 425.5C529 421.082 525.418 417.5 521 417.5C516.582 417.5 513 421.082 513 425.5C513 429.918 516.582 433.5 521 433.5C525.418 433.5 529 429.918 529 425.5ZM567 461.5L566.076 462.681L566.483 463H567V461.5ZM607 460H605.571V463H607V460ZM601.762 460H598.905V463H601.762V460ZM595.095 460H592.238V463H595.095V460ZM588.429 460H585.571V463H588.429V460ZM581.762 460H578.905V463H581.762V460ZM575.095 460H572.238V463H575.095V460ZM568.429 460H567V463H568.429V460ZM567.924 460.319L566.692 459.354L564.843 461.717L566.076 462.681L567.924 460.319ZM563.407 456.783L560.942 454.854L559.093 457.217L561.558 459.146L563.407 456.783ZM557.657 452.283L555.192 450.354L553.343 452.717L555.808 454.646L557.657 452.283ZM551.907 447.783L549.442 445.854L547.593 448.217L550.058 450.146L551.907 447.783ZM546.157 443.283L543.692 441.354L541.843 443.717L544.308 445.646L546.157 443.283ZM540.407 438.783L537.942 436.854L536.093 439.217L538.558 441.146L540.407 438.783ZM534.657 434.283L532.192 432.354L530.343 434.717L532.808 436.646L534.657 434.283ZM528.907 429.783L526.442 427.854L524.593 430.217L527.058 432.146L528.907 429.783ZM523.157 425.283L521.924 424.319L520.076 426.681L521.308 427.646L523.157 425.283Z" fill="#212529" fill-opacity="0.5"/>
<path d="M82.5474 167.112C82.5474 168.04 82.2274 168.813 81.5874 169.432C80.958 170.04 79.9927 170.344 78.6914 170.344H76.5474V175H75.0914V163.848H78.6914C79.95 163.848 80.9047 164.152 81.5554 164.76C82.2167 165.368 82.5474 166.152 82.5474 167.112ZM78.6914 169.144C79.502 169.144 80.0994 168.968 80.4834 168.616C80.8674 168.264 81.0594 167.763 81.0594 167.112C81.0594 165.736 80.27 165.048 78.6914 165.048H76.5474V169.144H78.6914ZM88.709 166.072C89.3703 166.072 89.9677 166.216 90.501 166.504C91.0343 166.781 91.4503 167.203 91.749 167.768C92.0583 168.333 92.213 169.021 92.213 169.832V175H90.773V170.04C90.773 169.165 90.5543 168.499 90.117 168.04C89.6797 167.571 89.0823 167.336 88.325 167.336C87.557 167.336 86.9437 167.576 86.485 168.056C86.037 168.536 85.813 169.235 85.813 170.152V175H84.357V163.16H85.813V167.48C86.101 167.032 86.4957 166.685 86.997 166.44C87.509 166.195 88.0797 166.072 88.709 166.072ZM102.143 166.232L96.8634 179.128H95.3594L97.0874 174.904L93.5514 166.232H95.1674L97.9194 173.336L100.639 166.232H102.143ZM106.711 175.144C106.039 175.144 105.436 175.032 104.903 174.808C104.37 174.573 103.948 174.253 103.639 173.848C103.33 173.432 103.159 172.957 103.127 172.424H104.631C104.674 172.861 104.876 173.219 105.239 173.496C105.612 173.773 106.098 173.912 106.695 173.912C107.25 173.912 107.687 173.789 108.007 173.544C108.327 173.299 108.487 172.989 108.487 172.616C108.487 172.232 108.316 171.949 107.975 171.768C107.634 171.576 107.106 171.389 106.391 171.208C105.74 171.037 105.207 170.867 104.791 170.696C104.386 170.515 104.034 170.253 103.735 169.912C103.447 169.56 103.303 169.101 103.303 168.536C103.303 168.088 103.436 167.677 103.703 167.304C103.97 166.931 104.348 166.637 104.839 166.424C105.33 166.2 105.89 166.088 106.519 166.088C107.49 166.088 108.274 166.333 108.871 166.824C109.468 167.315 109.788 167.987 109.831 168.84H108.375C108.343 168.381 108.156 168.013 107.815 167.736C107.484 167.459 107.036 167.32 106.471 167.32C105.948 167.32 105.532 167.432 105.223 167.656C104.914 167.88 104.759 168.173 104.759 168.536C104.759 168.824 104.85 169.064 105.031 169.256C105.223 169.437 105.458 169.587 105.735 169.704C106.023 169.811 106.418 169.933 106.919 170.072C107.548 170.243 108.06 170.413 108.455 170.584C108.85 170.744 109.186 170.989 109.463 171.32C109.751 171.651 109.9 172.083 109.911 172.616C109.911 173.096 109.778 173.528 109.511 173.912C109.244 174.296 108.866 174.6 108.375 174.824C107.895 175.037 107.34 175.144 106.711 175.144ZM112.718 164.808C112.441 164.808 112.206 164.712 112.014 164.52C111.822 164.328 111.726 164.093 111.726 163.816C111.726 163.539 111.822 163.304 112.014 163.112C112.206 162.92 112.441 162.824 112.718 162.824C112.985 162.824 113.209 162.92 113.39 163.112C113.582 163.304 113.678 163.539 113.678 163.816C113.678 164.093 113.582 164.328 113.39 164.52C113.209 164.712 112.985 164.808 112.718 164.808ZM113.422 166.232V175H111.966V166.232H113.422ZM115.36 170.6C115.36 169.693 115.541 168.904 115.904 168.232C116.267 167.549 116.768 167.021 117.408 166.648C118.059 166.275 118.8 166.088 119.632 166.088C120.709 166.088 121.595 166.349 122.288 166.872C122.992 167.395 123.456 168.12 123.68 169.048H122.112C121.963 168.515 121.669 168.093 121.232 167.784C120.805 167.475 120.272 167.32 119.632 167.32C118.8 167.32 118.128 167.608 117.616 168.184C117.104 168.749 116.848 169.555 116.848 170.6C116.848 171.656 117.104 172.472 117.616 173.048C118.128 173.624 118.8 173.912 119.632 173.912C120.272 173.912 120.805 173.763 121.232 173.464C121.659 173.165 121.952 172.739 122.112 172.184H123.68C123.445 173.08 122.976 173.8 122.272 174.344C121.568 174.877 120.688 175.144 119.632 175.144C118.8 175.144 118.059 174.957 117.408 174.584C116.768 174.211 116.267 173.683 115.904 173C115.541 172.317 115.36 171.517 115.36 170.6ZM125.079 170.584C125.079 169.688 125.26 168.904 125.623 168.232C125.985 167.549 126.481 167.021 127.111 166.648C127.751 166.275 128.46 166.088 129.239 166.088C130.007 166.088 130.673 166.253 131.239 166.584C131.804 166.915 132.225 167.331 132.503 167.832V166.232H133.975V175H132.503V173.368C132.215 173.88 131.783 174.307 131.207 174.648C130.641 174.979 129.98 175.144 129.223 175.144C128.444 175.144 127.74 174.952 127.111 174.568C126.481 174.184 125.985 173.645 125.623 172.952C125.26 172.259 125.079 171.469 125.079 170.584ZM132.503 170.6C132.503 169.939 132.369 169.363 132.103 168.872C131.836 168.381 131.473 168.008 131.015 167.752C130.567 167.485 130.071 167.352 129.527 167.352C128.983 167.352 128.487 167.48 128.039 167.736C127.591 167.992 127.233 168.365 126.967 168.856C126.7 169.347 126.567 169.923 126.567 170.584C126.567 171.256 126.7 171.843 126.967 172.344C127.233 172.835 127.591 173.213 128.039 173.48C128.487 173.736 128.983 173.864 129.527 173.864C130.071 173.864 130.567 173.736 131.015 173.48C131.473 173.213 131.836 172.835 132.103 172.344C132.369 171.843 132.503 171.261 132.503 170.6ZM137.891 163.16V175H136.435V163.16H137.891ZM68.7524 199.112C68.0164 199.112 67.355 198.984 66.7684 198.728C66.1924 198.461 65.739 198.099 65.4084 197.64C65.0777 197.171 64.907 196.632 64.8964 196.024H66.4484C66.5017 196.547 66.715 196.989 67.0884 197.352C67.4724 197.704 68.027 197.88 68.7524 197.88C69.4457 197.88 69.9897 197.709 70.3844 197.368C70.7897 197.016 70.9924 196.568 70.9924 196.024C70.9924 195.597 70.875 195.251 70.6404 194.984C70.4057 194.717 70.1124 194.515 69.7604 194.376C69.4084 194.237 68.9337 194.088 68.3364 193.928C67.6004 193.736 67.0084 193.544 66.5604 193.352C66.123 193.16 65.7444 192.861 65.4244 192.456C65.115 192.04 64.9604 191.485 64.9604 190.792C64.9604 190.184 65.115 189.645 65.4244 189.176C65.7337 188.707 66.1657 188.344 66.7204 188.088C67.2857 187.832 67.931 187.704 68.6564 187.704C69.7017 187.704 70.555 187.965 71.2164 188.488C71.8884 189.011 72.267 189.704 72.3524 190.568H70.7524C70.699 190.141 70.475 189.768 70.0804 189.448C69.6857 189.117 69.163 188.952 68.5124 188.952C67.9044 188.952 67.4084 189.112 67.0244 189.432C66.6404 189.741 66.4484 190.179 66.4484 190.744C66.4484 191.149 66.5604 191.48 66.7844 191.736C67.019 191.992 67.3017 192.189 67.6324 192.328C67.9737 192.456 68.4484 192.605 69.0564 192.776C69.7924 192.979 70.3844 193.181 70.8324 193.384C71.2804 193.576 71.6644 193.88 71.9844 194.296C72.3044 194.701 72.4644 195.256 72.4644 195.96C72.4644 196.504 72.3204 197.016 72.0324 197.496C71.7444 197.976 71.3177 198.365 70.7524 198.664C70.187 198.963 69.5204 199.112 68.7524 199.112ZM75.359 188.808C75.0817 188.808 74.847 188.712 74.655 188.52C74.463 188.328 74.367 188.093 74.367 187.816C74.367 187.539 74.463 187.304 74.655 187.112C74.847 186.92 75.0817 186.824 75.359 186.824C75.6257 186.824 75.8497 186.92 76.031 187.112C76.223 187.304 76.319 187.539 76.319 187.816C76.319 188.093 76.223 188.328 76.031 188.52C75.8497 188.712 75.6257 188.808 75.359 188.808ZM76.063 190.232V199H74.607V190.232H76.063ZM89.0885 190.072C89.7712 190.072 90.3792 190.216 90.9125 190.504C91.4458 190.781 91.8672 191.203 92.1765 191.768C92.4858 192.333 92.6405 193.021 92.6405 193.832V199H91.2005V194.04C91.2005 193.165 90.9818 192.499 90.5445 192.04C90.1178 191.571 89.5365 191.336 88.8005 191.336C88.0432 191.336 87.4405 191.581 86.9925 192.072C86.5445 192.552 86.3205 193.251 86.3205 194.168V199H84.8805V194.04C84.8805 193.165 84.6618 192.499 84.2245 192.04C83.7978 191.571 83.2165 191.336 82.4805 191.336C81.7232 191.336 81.1205 191.581 80.6725 192.072C80.2245 192.552 80.0005 193.251 80.0005 194.168V199H78.5445V190.232H80.0005V191.496C80.2885 191.037 80.6725 190.685 81.1525 190.44C81.6432 190.195 82.1818 190.072 82.7685 190.072C83.5045 190.072 84.1552 190.237 84.7205 190.568C85.2858 190.899 85.7072 191.384 85.9845 192.024C86.2298 191.405 86.6352 190.925 87.2005 190.584C87.7658 190.243 88.3952 190.072 89.0885 190.072ZM102.805 190.232V199H101.349V197.704C101.072 198.152 100.682 198.504 100.181 198.76C99.6902 199.005 99.1462 199.128 98.5489 199.128C97.8662 199.128 97.2529 198.989 96.7089 198.712C96.1649 198.424 95.7329 197.997 95.4129 197.432C95.1035 196.867 94.9489 196.179 94.9489 195.368V190.232H96.3889V195.176C96.3889 196.04 96.6075 196.707 97.0449 197.176C97.4822 197.635 98.0795 197.864 98.8369 197.864C99.6155 197.864 100.229 197.624 100.677 197.144C101.125 196.664 101.349 195.965 101.349 195.048V190.232H102.805ZM106.719 187.16V199H105.263V187.16H106.719ZM108.657 194.584C108.657 193.688 108.838 192.904 109.201 192.232C109.563 191.549 110.059 191.021 110.689 190.648C111.329 190.275 112.038 190.088 112.817 190.088C113.585 190.088 114.251 190.253 114.817 190.584C115.382 190.915 115.803 191.331 116.081 191.832V190.232H117.553V199H116.081V197.368C115.793 197.88 115.361 198.307 114.785 198.648C114.219 198.979 113.558 199.144 112.801 199.144C112.022 199.144 111.318 198.952 110.689 198.568C110.059 198.184 109.563 197.645 109.201 196.952C108.838 196.259 108.657 195.469 108.657 194.584ZM116.081 194.6C116.081 193.939 115.947 193.363 115.681 192.872C115.414 192.381 115.051 192.008 114.593 191.752C114.145 191.485 113.649 191.352 113.105 191.352C112.561 191.352 112.065 191.48 111.617 191.736C111.169 191.992 110.811 192.365 110.545 192.856C110.278 193.347 110.145 193.923 110.145 194.584C110.145 195.256 110.278 195.843 110.545 196.344C110.811 196.835 111.169 197.213 111.617 197.48C112.065 197.736 112.561 197.864 113.105 197.864C113.649 197.864 114.145 197.736 114.593 197.48C115.051 197.213 115.414 196.835 115.681 196.344C115.947 195.843 116.081 195.261 116.081 194.6ZM121.789 191.432V196.6C121.789 197.027 121.88 197.331 122.061 197.512C122.243 197.683 122.557 197.768 123.005 197.768H124.077V199H122.765C121.955 199 121.347 198.813 120.941 198.44C120.536 198.067 120.333 197.453 120.333 196.6V191.432H119.197V190.232H120.333V188.024H121.789V190.232H124.077V191.432H121.789ZM126.593 188.808C126.316 188.808 126.081 188.712 125.889 188.52C125.697 188.328 125.601 188.093 125.601 187.816C125.601 187.539 125.697 187.304 125.889 187.112C126.081 186.92 126.316 186.824 126.593 186.824C126.86 186.824 127.084 186.92 127.265 187.112C127.457 187.304 127.553 187.539 127.553 187.816C127.553 188.093 127.457 188.328 127.265 188.52C127.084 188.712 126.86 188.808 126.593 188.808ZM127.297 190.232V199H125.841V190.232H127.297ZM133.603 199.144C132.782 199.144 132.035 198.957 131.363 198.584C130.702 198.211 130.179 197.683 129.795 197C129.422 196.307 129.235 195.507 129.235 194.6C129.235 193.704 129.427 192.915 129.811 192.232C130.206 191.539 130.739 191.011 131.411 190.648C132.083 190.275 132.835 190.088 133.667 190.088C134.499 190.088 135.251 190.275 135.923 190.648C136.595 191.011 137.123 191.533 137.507 192.216C137.902 192.899 138.099 193.693 138.099 194.6C138.099 195.507 137.896 196.307 137.491 197C137.096 197.683 136.558 198.211 135.875 198.584C135.192 198.957 134.435 199.144 133.603 199.144ZM133.603 197.864C134.126 197.864 134.616 197.741 135.075 197.496C135.534 197.251 135.902 196.883 136.179 196.392C136.467 195.901 136.611 195.304 136.611 194.6C136.611 193.896 136.472 193.299 136.195 192.808C135.918 192.317 135.555 191.955 135.107 191.72C134.659 191.475 134.174 191.352 133.651 191.352C133.118 191.352 132.627 191.475 132.179 191.72C131.742 191.955 131.39 192.317 131.123 192.808C130.856 193.299 130.723 193.896 130.723 194.6C130.723 195.315 130.851 195.917 131.107 196.408C131.374 196.899 131.726 197.267 132.163 197.512C132.6 197.747 133.08 197.864 133.603 197.864ZM144.285 190.072C145.352 190.072 146.216 190.397 146.877 191.048C147.539 191.688 147.869 192.616 147.869 193.832V199H146.429V194.04C146.429 193.165 146.211 192.499 145.773 192.04C145.336 191.571 144.739 191.336 143.981 191.336C143.213 191.336 142.6 191.576 142.141 192.056C141.693 192.536 141.469 193.235 141.469 194.152V199H140.013V190.232H141.469V191.48C141.757 191.032 142.147 190.685 142.637 190.44C143.139 190.195 143.688 190.072 144.285 190.072Z" fill="#212529" fill-opacity="0.85"/>
<path d="M634.649 121.848C635.865 121.848 636.916 122.077 637.801 122.536C638.697 122.984 639.38 123.629 639.849 124.472C640.329 125.315 640.569 126.307 640.569 127.448C640.569 128.589 640.329 129.581 639.849 130.424C639.38 131.256 638.697 131.896 637.801 132.344C636.916 132.781 635.865 133 634.649 133H631.177V121.848H634.649ZM634.649 131.8C636.089 131.8 637.188 131.421 637.945 130.664C638.703 129.896 639.081 128.824 639.081 127.448C639.081 126.061 638.697 124.979 637.929 124.2C637.172 123.421 636.079 123.032 634.649 123.032H632.633V131.8H634.649ZM641.946 128.584C641.946 127.688 642.127 126.904 642.49 126.232C642.852 125.549 643.348 125.021 643.978 124.648C644.618 124.275 645.327 124.088 646.106 124.088C646.874 124.088 647.54 124.253 648.106 124.584C648.671 124.915 649.092 125.331 649.37 125.832V124.232H650.842V133H649.37V131.368C649.082 131.88 648.65 132.307 648.074 132.648C647.508 132.979 646.847 133.144 646.09 133.144C645.311 133.144 644.607 132.952 643.978 132.568C643.348 132.184 642.852 131.645 642.49 130.952C642.127 130.259 641.946 129.469 641.946 128.584ZM649.37 128.6C649.37 127.939 649.236 127.363 648.97 126.872C648.703 126.381 648.34 126.008 647.882 125.752C647.434 125.485 646.938 125.352 646.394 125.352C645.85 125.352 645.354 125.48 644.906 125.736C644.458 125.992 644.1 126.365 643.834 126.856C643.567 127.347 643.434 127.923 643.434 128.584C643.434 129.256 643.567 129.843 643.834 130.344C644.1 130.835 644.458 131.213 644.906 131.48C645.354 131.736 645.85 131.864 646.394 131.864C646.938 131.864 647.434 131.736 647.882 131.48C648.34 131.213 648.703 130.835 648.97 130.344C649.236 129.843 649.37 129.261 649.37 128.6ZM655.078 125.432V130.6C655.078 131.027 655.169 131.331 655.35 131.512C655.532 131.683 655.846 131.768 656.294 131.768H657.366V133H656.054C655.244 133 654.636 132.813 654.23 132.44C653.825 132.067 653.622 131.453 653.622 130.6V125.432H652.486V124.232H653.622V122.024H655.078V124.232H657.366V125.432H655.078ZM658.586 128.584C658.586 127.688 658.768 126.904 659.13 126.232C659.493 125.549 659.989 125.021 660.618 124.648C661.258 124.275 661.968 124.088 662.746 124.088C663.514 124.088 664.181 124.253 664.746 124.584C665.312 124.915 665.733 125.331 666.01 125.832V124.232H667.482V133H666.01V131.368C665.722 131.88 665.29 132.307 664.714 132.648C664.149 132.979 663.488 133.144 662.73 133.144C661.952 133.144 661.248 132.952 660.618 132.568C659.989 132.184 659.493 131.645 659.13 130.952C658.768 130.259 658.586 129.469 658.586 128.584ZM666.01 128.6C666.01 127.939 665.877 127.363 665.61 126.872C665.344 126.381 664.981 126.008 664.522 125.752C664.074 125.485 663.578 125.352 663.034 125.352C662.49 125.352 661.994 125.48 661.546 125.736C661.098 125.992 660.741 126.365 660.474 126.856C660.208 127.347 660.074 127.923 660.074 128.584C660.074 129.256 660.208 129.843 660.474 130.344C660.741 130.835 661.098 131.213 661.546 131.48C661.994 131.736 662.49 131.864 663.034 131.864C663.578 131.864 664.074 131.736 664.522 131.48C664.981 131.213 665.344 130.835 665.61 130.344C665.877 129.843 666.01 129.261 666.01 128.6ZM681.665 125.112C681.665 126.04 681.345 126.813 680.705 127.432C680.075 128.04 679.11 128.344 677.809 128.344H675.665V133H674.209V121.848H677.809C679.067 121.848 680.022 122.152 680.673 122.76C681.334 123.368 681.665 124.152 681.665 125.112ZM677.809 127.144C678.619 127.144 679.217 126.968 679.601 126.616C679.985 126.264 680.177 125.763 680.177 125.112C680.177 123.736 679.387 123.048 677.809 123.048H675.665V127.144H677.809ZM684.93 125.656C685.186 125.155 685.549 124.765 686.018 124.488C686.498 124.211 687.08 124.072 687.762 124.072V125.576H687.378C685.746 125.576 684.93 126.461 684.93 128.232V133H683.474V124.232H684.93V125.656ZM693.267 133.144C692.446 133.144 691.699 132.957 691.027 132.584C690.366 132.211 689.843 131.683 689.459 131C689.086 130.307 688.899 129.507 688.899 128.6C688.899 127.704 689.091 126.915 689.475 126.232C689.87 125.539 690.403 125.011 691.075 124.648C691.747 124.275 692.499 124.088 693.331 124.088C694.163 124.088 694.915 124.275 695.587 124.648C696.259 125.011 696.787 125.533 697.171 126.216C697.566 126.899 697.763 127.693 697.763 128.6C697.763 129.507 697.56 130.307 697.155 131C696.76 131.683 696.222 132.211 695.539 132.584C694.856 132.957 694.099 133.144 693.267 133.144ZM693.267 131.864C693.79 131.864 694.28 131.741 694.739 131.496C695.198 131.251 695.566 130.883 695.843 130.392C696.131 129.901 696.275 129.304 696.275 128.6C696.275 127.896 696.136 127.299 695.859 126.808C695.582 126.317 695.219 125.955 694.771 125.72C694.323 125.475 693.838 125.352 693.315 125.352C692.782 125.352 692.291 125.475 691.843 125.72C691.406 125.955 691.054 126.317 690.787 126.808C690.52 127.299 690.387 127.896 690.387 128.6C690.387 129.315 690.515 129.917 690.771 130.408C691.038 130.899 691.39 131.267 691.827 131.512C692.264 131.747 692.744 131.864 693.267 131.864ZM699.133 128.6C699.133 127.693 699.315 126.904 699.677 126.232C700.04 125.549 700.541 125.021 701.181 124.648C701.832 124.275 702.573 124.088 703.405 124.088C704.483 124.088 705.368 124.349 706.061 124.872C706.765 125.395 707.229 126.12 707.453 127.048H705.885C705.736 126.515 705.443 126.093 705.005 125.784C704.579 125.475 704.045 125.32 703.405 125.32C702.573 125.32 701.901 125.608 701.389 126.184C700.877 126.749 700.621 127.555 700.621 128.6C700.621 129.656 700.877 130.472 701.389 131.048C701.901 131.624 702.573 131.912 703.405 131.912C704.045 131.912 704.579 131.763 705.005 131.464C705.432 131.165 705.725 130.739 705.885 130.184H707.453C707.219 131.08 706.749 131.8 706.045 132.344C705.341 132.877 704.461 133.144 703.405 133.144C702.573 133.144 701.832 132.957 701.181 132.584C700.541 132.211 700.04 131.683 699.677 131C699.315 130.317 699.133 129.517 699.133 128.6ZM717.396 128.28C717.396 128.557 717.38 128.851 717.348 129.16H710.34C710.393 130.024 710.687 130.701 711.22 131.192C711.764 131.672 712.42 131.912 713.188 131.912C713.817 131.912 714.34 131.768 714.756 131.48C715.183 131.181 715.481 130.787 715.652 130.296H717.22C716.985 131.139 716.516 131.827 715.812 132.36C715.108 132.883 714.233 133.144 713.188 133.144C712.356 133.144 711.609 132.957 710.948 132.584C710.297 132.211 709.785 131.683 709.412 131C709.039 130.307 708.852 129.507 708.852 128.6C708.852 127.693 709.033 126.899 709.396 126.216C709.759 125.533 710.265 125.011 710.916 124.648C711.577 124.275 712.335 124.088 713.188 124.088C714.02 124.088 714.756 124.269 715.396 124.632C716.036 124.995 716.527 125.496 716.868 126.136C717.22 126.765 717.396 127.48 717.396 128.28ZM715.892 127.976C715.892 127.421 715.769 126.947 715.524 126.552C715.279 126.147 714.943 125.843 714.516 125.64C714.1 125.427 713.636 125.32 713.124 125.32C712.388 125.32 711.759 125.555 711.236 126.024C710.724 126.493 710.431 127.144 710.356 127.976H715.892ZM722.422 133.144C721.75 133.144 721.147 133.032 720.614 132.808C720.081 132.573 719.659 132.253 719.35 131.848C719.041 131.432 718.87 130.957 718.838 130.424H720.342C720.385 130.861 720.587 131.219 720.95 131.496C721.323 131.773 721.809 131.912 722.406 131.912C722.961 131.912 723.398 131.789 723.718 131.544C724.038 131.299 724.198 130.989 724.198 130.616C724.198 130.232 724.027 129.949 723.686 129.768C723.345 129.576 722.817 129.389 722.102 129.208C721.451 129.037 720.918 128.867 720.502 128.696C720.097 128.515 719.745 128.253 719.446 127.912C719.158 127.56 719.014 127.101 719.014 126.536C719.014 126.088 719.147 125.677 719.414 125.304C719.681 124.931 720.059 124.637 720.55 124.424C721.041 124.2 721.601 124.088 722.23 124.088C723.201 124.088 723.985 124.333 724.582 124.824C725.179 125.315 725.499 125.987 725.542 126.84H724.086C724.054 126.381 723.867 126.013 723.526 125.736C723.195 125.459 722.747 125.32 722.182 125.32C721.659 125.32 721.243 125.432 720.934 125.656C720.625 125.88 720.47 126.173 720.47 126.536C720.47 126.824 720.561 127.064 720.742 127.256C720.934 127.437 721.169 127.587 721.446 127.704C721.734 127.811 722.129 127.933 722.63 128.072C723.259 128.243 723.771 128.413 724.166 128.584C724.561 128.744 724.897 128.989 725.174 129.32C725.462 129.651 725.611 130.083 725.622 130.616C725.622 131.096 725.489 131.528 725.222 131.912C724.955 132.296 724.577 132.6 724.086 132.824C723.606 133.037 723.051 133.144 722.422 133.144ZM730.781 133.144C730.109 133.144 729.507 133.032 728.973 132.808C728.44 132.573 728.019 132.253 727.709 131.848C727.4 131.432 727.229 130.957 727.197 130.424H728.701C728.744 130.861 728.947 131.219 729.309 131.496C729.683 131.773 730.168 131.912 730.765 131.912C731.32 131.912 731.757 131.789 732.077 131.544C732.397 131.299 732.557 130.989 732.557 130.616C732.557 130.232 732.387 129.949 732.045 129.768C731.704 129.576 731.176 129.389 730.461 129.208C729.811 129.037 729.277 128.867 728.861 128.696C728.456 128.515 728.104 128.253 727.805 127.912C727.517 127.56 727.373 127.101 727.373 126.536C727.373 126.088 727.507 125.677 727.773 125.304C728.04 124.931 728.419 124.637 728.909 124.424C729.4 124.2 729.96 124.088 730.589 124.088C731.56 124.088 732.344 124.333 732.941 124.824C733.539 125.315 733.859 125.987 733.901 126.84H732.445C732.413 126.381 732.227 126.013 731.885 125.736C731.555 125.459 731.107 125.32 730.541 125.32C730.019 125.32 729.603 125.432 729.293 125.656C728.984 125.88 728.829 126.173 728.829 126.536C728.829 126.824 728.92 127.064 729.101 127.256C729.293 127.437 729.528 127.587 729.805 127.704C730.093 127.811 730.488 127.933 730.989 128.072C731.619 128.243 732.131 128.413 732.525 128.584C732.92 128.744 733.256 128.989 733.533 129.32C733.821 129.651 733.971 130.083 733.981 130.616C733.981 131.096 733.848 131.528 733.581 131.912C733.315 132.296 732.936 132.6 732.445 132.824C731.965 133.037 731.411 133.144 730.781 133.144ZM736.789 122.808C736.511 122.808 736.277 122.712 736.085 122.52C735.893 122.328 735.797 122.093 735.797 121.816C735.797 121.539 735.893 121.304 736.085 121.112C736.277 120.92 736.511 120.824 736.789 120.824C737.055 120.824 737.279 120.92 737.461 121.112C737.653 121.304 737.749 121.539 737.749 121.816C737.749 122.093 737.653 122.328 737.461 122.52C737.279 122.712 737.055 122.808 736.789 122.808ZM737.493 124.232V133H736.037V124.232H737.493ZM744.246 124.072C745.313 124.072 746.177 124.397 746.838 125.048C747.5 125.688 747.83 126.616 747.83 127.832V133H746.39V128.04C746.39 127.165 746.172 126.499 745.734 126.04C745.297 125.571 744.7 125.336 743.942 125.336C743.174 125.336 742.561 125.576 742.102 126.056C741.654 126.536 741.43 127.235 741.43 128.152V133H739.974V124.232H741.43V125.48C741.718 125.032 742.108 124.685 742.598 124.44C743.1 124.195 743.649 124.072 744.246 124.072ZM753.825 124.088C754.582 124.088 755.243 124.253 755.809 124.584C756.385 124.915 756.811 125.331 757.089 125.832V124.232H758.561V133.192C758.561 133.992 758.39 134.701 758.049 135.32C757.707 135.949 757.217 136.44 756.577 136.792C755.947 137.144 755.211 137.32 754.369 137.32C753.217 137.32 752.257 137.048 751.489 136.504C750.721 135.96 750.267 135.219 750.129 134.28H751.569C751.729 134.813 752.059 135.24 752.561 135.56C753.062 135.891 753.665 136.056 754.369 136.056C755.169 136.056 755.819 135.805 756.321 135.304C756.833 134.803 757.089 134.099 757.089 133.192V131.352C756.801 131.864 756.374 132.291 755.809 132.632C755.243 132.973 754.582 133.144 753.825 133.144C753.046 133.144 752.337 132.952 751.697 132.568C751.067 132.184 750.571 131.645 750.209 130.952C749.846 130.259 749.665 129.469 749.665 128.584C749.665 127.688 749.846 126.904 750.209 126.232C750.571 125.549 751.067 125.021 751.697 124.648C752.337 124.275 753.046 124.088 753.825 124.088ZM757.089 128.6C757.089 127.939 756.955 127.363 756.689 126.872C756.422 126.381 756.059 126.008 755.601 125.752C755.153 125.485 754.657 125.352 754.113 125.352C753.569 125.352 753.073 125.48 752.625 125.736C752.177 125.992 751.819 126.365 751.553 126.856C751.286 127.347 751.153 127.923 751.153 128.584C751.153 129.256 751.286 129.843 751.553 130.344C751.819 130.835 752.177 131.213 752.625 131.48C753.073 131.736 753.569 131.864 754.113 131.864C754.657 131.864 755.153 131.736 755.601 131.48C756.059 131.213 756.422 130.835 756.689 130.344C756.955 129.843 757.089 129.261 757.089 128.6ZM674.704 149.112C674.704 150.04 674.384 150.813 673.744 151.432C673.114 152.04 672.149 152.344 670.848 152.344H668.704V157H667.248V145.848H670.848C672.106 145.848 673.061 146.152 673.712 146.76C674.373 147.368 674.704 148.152 674.704 149.112ZM670.848 151.144C671.658 151.144 672.256 150.968 672.64 150.616C673.024 150.264 673.216 149.763 673.216 149.112C673.216 147.736 672.426 147.048 670.848 147.048H668.704V151.144H670.848ZM677.265 146.808C676.988 146.808 676.753 146.712 676.561 146.52C676.369 146.328 676.273 146.093 676.273 145.816C676.273 145.539 676.369 145.304 676.561 145.112C676.753 144.92 676.988 144.824 677.265 144.824C677.532 144.824 677.756 144.92 677.937 145.112C678.129 145.304 678.225 145.539 678.225 145.816C678.225 146.093 678.129 146.328 677.937 146.52C677.756 146.712 677.532 146.808 677.265 146.808ZM677.969 148.232V157H676.513V148.232H677.969ZM681.907 149.848C682.195 149.347 682.621 148.931 683.187 148.6C683.763 148.259 684.429 148.088 685.187 148.088C685.965 148.088 686.669 148.275 687.299 148.648C687.939 149.021 688.44 149.549 688.803 150.232C689.165 150.904 689.347 151.688 689.347 152.584C689.347 153.469 689.165 154.259 688.803 154.952C688.44 155.645 687.939 156.184 687.299 156.568C686.669 156.952 685.965 157.144 685.187 157.144C684.44 157.144 683.779 156.979 683.203 156.648C682.637 156.307 682.205 155.885 681.907 155.384V161.16H680.451V148.232H681.907V149.848ZM687.859 152.584C687.859 151.923 687.725 151.347 687.459 150.856C687.192 150.365 686.829 149.992 686.371 149.736C685.923 149.48 685.427 149.352 684.883 149.352C684.349 149.352 683.853 149.485 683.395 149.752C682.947 150.008 682.584 150.387 682.307 150.888C682.04 151.379 681.907 151.949 681.907 152.6C681.907 153.261 682.04 153.843 682.307 154.344C682.584 154.835 682.947 155.213 683.395 155.48C683.853 155.736 684.349 155.864 684.883 155.864C685.427 155.864 685.923 155.736 686.371 155.48C686.829 155.213 687.192 154.835 687.459 154.344C687.725 153.843 687.859 153.256 687.859 152.584ZM699.263 152.28C699.263 152.557 699.247 152.851 699.215 153.16H692.207C692.261 154.024 692.554 154.701 693.087 155.192C693.631 155.672 694.287 155.912 695.055 155.912C695.685 155.912 696.207 155.768 696.623 155.48C697.05 155.181 697.349 154.787 697.519 154.296H699.087C698.853 155.139 698.383 155.827 697.679 156.36C696.975 156.883 696.101 157.144 695.055 157.144C694.223 157.144 693.477 156.957 692.815 156.584C692.165 156.211 691.653 155.683 691.279 155C690.906 154.307 690.719 153.507 690.719 152.6C690.719 151.693 690.901 150.899 691.263 150.216C691.626 149.533 692.133 149.011 692.783 148.648C693.445 148.275 694.202 148.088 695.055 148.088C695.887 148.088 696.623 148.269 697.263 148.632C697.903 148.995 698.394 149.496 698.735 150.136C699.087 150.765 699.263 151.48 699.263 152.28ZM697.759 151.976C697.759 151.421 697.637 150.947 697.391 150.552C697.146 150.147 696.81 149.843 696.383 149.64C695.967 149.427 695.503 149.32 694.991 149.32C694.255 149.32 693.626 149.555 693.103 150.024C692.591 150.493 692.298 151.144 692.223 151.976H697.759ZM702.641 145.16V157H701.185V145.16H702.641ZM705.875 146.808C705.597 146.808 705.363 146.712 705.171 146.52C704.979 146.328 704.883 146.093 704.883 145.816C704.883 145.539 704.979 145.304 705.171 145.112C705.363 144.92 705.597 144.824 705.875 144.824C706.141 144.824 706.365 144.92 706.547 145.112C706.739 145.304 706.835 145.539 706.835 145.816C706.835 146.093 706.739 146.328 706.547 146.52C706.365 146.712 706.141 146.808 705.875 146.808ZM706.579 148.232V157H705.123V148.232H706.579ZM713.332 148.072C714.399 148.072 715.263 148.397 715.924 149.048C716.585 149.688 716.916 150.616 716.916 151.832V157H715.476V152.04C715.476 151.165 715.257 150.499 714.82 150.04C714.383 149.571 713.785 149.336 713.028 149.336C712.26 149.336 711.647 149.576 711.188 150.056C710.74 150.536 710.516 151.235 710.516 152.152V157H709.06V148.232H710.516V149.48C710.804 149.032 711.193 148.685 711.684 148.44C712.185 148.195 712.735 148.072 713.332 148.072ZM727.295 152.28C727.295 152.557 727.279 152.851 727.247 153.16H720.239C720.292 154.024 720.585 154.701 721.119 155.192C721.663 155.672 722.319 155.912 723.087 155.912C723.716 155.912 724.239 155.768 724.655 155.48C725.081 155.181 725.38 154.787 725.551 154.296H727.119C726.884 155.139 726.415 155.827 725.711 156.36C725.007 156.883 724.132 157.144 723.087 157.144C722.255 157.144 721.508 156.957 720.847 156.584C720.196 156.211 719.684 155.683 719.311 155C718.937 154.307 718.751 153.507 718.751 152.6C718.751 151.693 718.932 150.899 719.295 150.216C719.657 149.533 720.164 149.011 720.815 148.648C721.476 148.275 722.233 148.088 723.087 148.088C723.919 148.088 724.655 148.269 725.295 148.632C725.935 148.995 726.425 149.496 726.767 150.136C727.119 150.765 727.295 151.48 727.295 152.28ZM725.791 151.976C725.791 151.421 725.668 150.947 725.423 150.552C725.177 150.147 724.841 149.843 724.415 149.64C723.999 149.427 723.535 149.32 723.023 149.32C722.287 149.32 721.657 149.555 721.135 150.024C720.623 150.493 720.329 151.144 720.255 151.976H725.791Z" fill="#212529" fill-opacity="0.85"/>
<path d="M8.24306 332.848C9.45906 332.848 10.5097 333.077 11.3951 333.536C12.2911 333.984 12.9737 334.629 13.4431 335.472C13.9231 336.315 14.1631 337.307 14.1631 338.448C14.1631 339.589 13.9231 340.581 13.4431 341.424C12.9737 342.256 12.2911 342.896 11.3951 343.344C10.5097 343.781 9.45906 344 8.24306 344H4.77106V332.848H8.24306ZM8.24306 342.8C9.68306 342.8 10.7817 342.421 11.5391 341.664C12.2964 340.896 12.6751 339.824 12.6751 338.448C12.6751 337.061 12.2911 335.979 11.5231 335.2C10.7657 334.421 9.6724 334.032 8.24306 334.032H6.22706V342.8H8.24306ZM15.5396 339.584C15.5396 338.688 15.7209 337.904 16.0836 337.232C16.4462 336.549 16.9422 336.021 17.5716 335.648C18.2116 335.275 18.9209 335.088 19.6996 335.088C20.4676 335.088 21.1342 335.253 21.6996 335.584C22.2649 335.915 22.6862 336.331 22.9636 336.832V335.232H24.4356V344H22.9636V342.368C22.6756 342.88 22.2436 343.307 21.6676 343.648C21.1022 343.979 20.4409 344.144 19.6836 344.144C18.9049 344.144 18.2009 343.952 17.5716 343.568C16.9422 343.184 16.4462 342.645 16.0836 341.952C15.7209 341.259 15.5396 340.469 15.5396 339.584ZM22.9636 339.6C22.9636 338.939 22.8302 338.363 22.5636 337.872C22.2969 337.381 21.9342 337.008 21.4756 336.752C21.0276 336.485 20.5316 336.352 19.9876 336.352C19.4436 336.352 18.9476 336.48 18.4996 336.736C18.0516 336.992 17.6942 337.365 17.4276 337.856C17.1609 338.347 17.0276 338.923 17.0276 339.584C17.0276 340.256 17.1609 340.843 17.4276 341.344C17.6942 341.835 18.0516 342.213 18.4996 342.48C18.9476 342.736 19.4436 342.864 19.9876 342.864C20.5316 342.864 21.0276 342.736 21.4756 342.48C21.9342 342.213 22.2969 341.835 22.5636 341.344C22.8302 340.843 22.9636 340.261 22.9636 339.6ZM28.6721 336.432V341.6C28.6721 342.027 28.7627 342.331 28.9441 342.512C29.1254 342.683 29.4401 342.768 29.8881 342.768H30.9601V344H29.6481C28.8374 344 28.2294 343.813 27.8241 343.44C27.4187 343.067 27.2161 342.453 27.2161 341.6V336.432H26.0801V335.232H27.2161V333.024H28.6721V335.232H30.9601V336.432H28.6721ZM32.1802 339.584C32.1802 338.688 32.3615 337.904 32.7242 337.232C33.0869 336.549 33.5829 336.021 34.2122 335.648C34.8522 335.275 35.5615 335.088 36.3402 335.088C37.1082 335.088 37.7749 335.253 38.3402 335.584C38.9055 335.915 39.3269 336.331 39.6042 336.832V335.232H41.0762V344H39.6042V342.368C39.3162 342.88 38.8842 343.307 38.3082 343.648C37.7429 343.979 37.0815 344.144 36.3242 344.144C35.5455 344.144 34.8415 343.952 34.2122 343.568C33.5829 343.184 33.0869 342.645 32.7242 341.952C32.3615 341.259 32.1802 340.469 32.1802 339.584ZM39.6042 339.6C39.6042 338.939 39.4709 338.363 39.2042 337.872C38.9375 337.381 38.5749 337.008 38.1162 336.752C37.6682 336.485 37.1722 336.352 36.6282 336.352C36.0842 336.352 35.5882 336.48 35.1402 336.736C34.6922 336.992 34.3349 337.365 34.0682 337.856C33.8015 338.347 33.6682 338.923 33.6682 339.584C33.6682 340.256 33.8015 340.843 34.0682 341.344C34.3349 341.835 34.6922 342.213 35.1402 342.48C35.5882 342.736 36.0842 342.864 36.6282 342.864C37.1722 342.864 37.6682 342.736 38.1162 342.48C38.5749 342.213 38.9375 341.835 39.2042 341.344C39.4709 340.843 39.6042 340.261 39.6042 339.6ZM49.6167 337.52V338.752H43.2327V337.52H49.6167ZM55.8212 332.848C57.0372 332.848 58.0879 333.077 58.9732 333.536C59.8692 333.984 60.5519 334.629 61.0212 335.472C61.5012 336.315 61.7412 337.307 61.7412 338.448C61.7412 339.589 61.5012 340.581 61.0212 341.424C60.5519 342.256 59.8692 342.896 58.9732 343.344C58.0879 343.781 57.0372 344 55.8212 344H52.3492V332.848H55.8212ZM55.8212 342.8C57.2612 342.8 58.3599 342.421 59.1172 341.664C59.8745 340.896 60.2532 339.824 60.2532 338.448C60.2532 337.061 59.8692 335.979 59.1012 335.2C58.3439 334.421 57.2505 334.032 55.8212 334.032H53.8052V342.8H55.8212ZM65.1177 336.656C65.3737 336.155 65.7364 335.765 66.2057 335.488C66.6857 335.211 67.267 335.072 67.9497 335.072V336.576H67.5657C65.9337 336.576 65.1177 337.461 65.1177 339.232V344H63.6617V335.232H65.1177V336.656ZM70.3824 333.808C70.1051 333.808 69.8704 333.712 69.6784 333.52C69.4864 333.328 69.3904 333.093 69.3904 332.816C69.3904 332.539 69.4864 332.304 69.6784 332.112C69.8704 331.92 70.1051 331.824 70.3824 331.824C70.6491 331.824 70.8731 331.92 71.0544 332.112C71.2464 332.304 71.3424 332.539 71.3424 332.816C71.3424 333.093 71.2464 333.328 71.0544 333.52C70.8731 333.712 70.6491 333.808 70.3824 333.808ZM71.0864 335.232V344H69.6304V335.232H71.0864ZM76.8319 342.656L79.5519 335.232H81.1039L77.6639 344H75.9679L72.5279 335.232H74.0959L76.8319 342.656ZM90.5367 339.28C90.5367 339.557 90.5207 339.851 90.4887 340.16H83.4807C83.534 341.024 83.8274 341.701 84.3607 342.192C84.9047 342.672 85.5607 342.912 86.3287 342.912C86.958 342.912 87.4807 342.768 87.8967 342.48C88.3234 342.181 88.622 341.787 88.7927 341.296H90.3607C90.126 342.139 89.6567 342.827 88.9527 343.36C88.2487 343.883 87.374 344.144 86.3287 344.144C85.4967 344.144 84.75 343.957 84.0887 343.584C83.438 343.211 82.926 342.683 82.5527 342C82.1794 341.307 81.9927 340.507 81.9927 339.6C81.9927 338.693 82.174 337.899 82.5367 337.216C82.8994 336.533 83.406 336.011 84.0567 335.648C84.718 335.275 85.4754 335.088 86.3287 335.088C87.1607 335.088 87.8967 335.269 88.5367 335.632C89.1767 335.995 89.6674 336.496 90.0087 337.136C90.3607 337.765 90.5367 338.48 90.5367 339.28ZM89.0327 338.976C89.0327 338.421 88.91 337.947 88.6647 337.552C88.4194 337.147 88.0834 336.843 87.6567 336.64C87.2407 336.427 86.7767 336.32 86.2647 336.32C85.5287 336.32 84.8994 336.555 84.3767 337.024C83.8647 337.493 83.5714 338.144 83.4967 338.976H89.0327ZM96.7306 335.072C97.7972 335.072 98.6612 335.397 99.3226 336.048C99.9839 336.688 100.315 337.616 100.315 338.832V344H98.8746V339.04C98.8746 338.165 98.6559 337.499 98.2186 337.04C97.7812 336.571 97.1839 336.336 96.4266 336.336C95.6586 336.336 95.0452 336.576 94.5866 337.056C94.1386 337.536 93.9146 338.235 93.9146 339.152V344H92.4586V335.232H93.9146V336.48C94.2026 336.032 94.5919 335.685 95.0826 335.44C95.5839 335.195 96.1332 335.072 96.7306 335.072ZM20.413 368.112C19.3783 368.112 18.4343 367.872 17.581 367.392C16.7277 366.901 16.0503 366.224 15.549 365.36C15.0583 364.485 14.813 363.504 14.813 362.416C14.813 361.328 15.0583 360.352 15.549 359.488C16.0503 358.613 16.7277 357.936 17.581 357.456C18.4343 356.965 19.3783 356.72 20.413 356.72C21.4583 356.72 22.4077 356.965 23.261 357.456C24.1143 357.936 24.7863 358.608 25.277 359.472C25.7677 360.336 26.013 361.317 26.013 362.416C26.013 363.515 25.7677 364.496 25.277 365.36C24.7863 366.224 24.1143 366.901 23.261 367.392C22.4077 367.872 21.4583 368.112 20.413 368.112ZM20.413 366.848C21.1917 366.848 21.8903 366.667 22.509 366.304C23.1383 365.941 23.629 365.424 23.981 364.752C24.3437 364.08 24.525 363.301 24.525 362.416C24.525 361.52 24.3437 360.741 23.981 360.08C23.629 359.408 23.1437 358.891 22.525 358.528C21.9063 358.165 21.2023 357.984 20.413 357.984C19.6237 357.984 18.9197 358.165 18.301 358.528C17.6823 358.891 17.1917 359.408 16.829 360.08C16.477 360.741 16.301 361.52 16.301 362.416C16.301 363.301 16.477 364.08 16.829 364.752C17.1917 365.424 17.6823 365.941 18.301 366.304C18.9303 366.667 19.6343 366.848 20.413 366.848ZM29.3911 360.848C29.6791 360.347 30.1058 359.931 30.6711 359.6C31.2471 359.259 31.9138 359.088 32.6711 359.088C33.4498 359.088 34.1538 359.275 34.7831 359.648C35.4231 360.021 35.9245 360.549 36.2871 361.232C36.6498 361.904 36.8311 362.688 36.8311 363.584C36.8311 364.469 36.6498 365.259 36.2871 365.952C35.9245 366.645 35.4231 367.184 34.7831 367.568C34.1538 367.952 33.4498 368.144 32.6711 368.144C31.9245 368.144 31.2631 367.979 30.6871 367.648C30.1218 367.307 29.6898 366.885 29.3911 366.384V372.16H27.9351V359.232H29.3911V360.848ZM35.3431 363.584C35.3431 362.923 35.2098 362.347 34.9431 361.856C34.6765 361.365 34.3138 360.992 33.8551 360.736C33.4071 360.48 32.9111 360.352 32.3671 360.352C31.8338 360.352 31.3378 360.485 30.8791 360.752C30.4311 361.008 30.0685 361.387 29.7911 361.888C29.5245 362.379 29.3911 362.949 29.3911 363.6C29.3911 364.261 29.5245 364.843 29.7911 365.344C30.0685 365.835 30.4311 366.213 30.8791 366.48C31.3378 366.736 31.8338 366.864 32.3671 366.864C32.9111 366.864 33.4071 366.736 33.8551 366.48C34.3138 366.213 34.6765 365.835 34.9431 365.344C35.2098 364.843 35.3431 364.256 35.3431 363.584ZM40.5236 360.432V365.6C40.5236 366.027 40.6143 366.331 40.7956 366.512C40.977 366.683 41.2916 366.768 41.7396 366.768H42.8116V368H41.4996C40.689 368 40.081 367.813 39.6756 367.44C39.2703 367.067 39.0676 366.453 39.0676 365.6V360.432H37.9316V359.232H39.0676V357.024H40.5236V359.232H42.8116V360.432H40.5236ZM45.3278 357.808C45.0504 357.808 44.8158 357.712 44.6238 357.52C44.4318 357.328 44.3358 357.093 44.3358 356.816C44.3358 356.539 44.4318 356.304 44.6238 356.112C44.8158 355.92 45.0504 355.824 45.3278 355.824C45.5944 355.824 45.8184 355.92 45.9998 356.112C46.1918 356.304 46.2878 356.539 46.2878 356.816C46.2878 357.093 46.1918 357.328 45.9998 357.52C45.8184 357.712 45.5944 357.808 45.3278 357.808ZM46.0318 359.232V368H44.5758V359.232H46.0318ZM59.0573 359.072C59.7399 359.072 60.3479 359.216 60.8813 359.504C61.4146 359.781 61.8359 360.203 62.1453 360.768C62.4546 361.333 62.6093 362.021 62.6093 362.832V368H61.1693V363.04C61.1693 362.165 60.9506 361.499 60.5133 361.04C60.0866 360.571 59.5053 360.336 58.7693 360.336C58.0119 360.336 57.4093 360.581 56.9613 361.072C56.5133 361.552 56.2893 362.251 56.2893 363.168V368H54.8493V363.04C54.8493 362.165 54.6306 361.499 54.1933 361.04C53.7666 360.571 53.1853 360.336 52.4493 360.336C51.6919 360.336 51.0893 360.581 50.6413 361.072C50.1933 361.552 49.9693 362.251 49.9693 363.168V368H48.5133V359.232H49.9693V360.496C50.2573 360.037 50.6413 359.685 51.1213 359.44C51.6119 359.195 52.1506 359.072 52.7373 359.072C53.4733 359.072 54.1239 359.237 54.6893 359.568C55.2546 359.899 55.6759 360.384 55.9533 361.024C56.1986 360.405 56.6039 359.925 57.1693 359.584C57.7346 359.243 58.3639 359.072 59.0573 359.072ZM65.7496 357.808C65.4723 357.808 65.2376 357.712 65.0456 357.52C64.8536 357.328 64.7576 357.093 64.7576 356.816C64.7576 356.539 64.8536 356.304 65.0456 356.112C65.2376 355.92 65.4723 355.824 65.7496 355.824C66.0163 355.824 66.2403 355.92 66.4216 356.112C66.6136 356.304 66.7096 356.539 66.7096 356.816C66.7096 357.093 66.6136 357.328 66.4216 357.52C66.2403 357.712 66.0163 357.808 65.7496 357.808ZM66.4536 359.232V368H64.9976V359.232H66.4536ZM70.0231 366.8H74.3271V368H68.3591V366.8L72.6151 360.416H68.3911V359.232H74.2951V360.416L70.0231 366.8ZM84.2164 363.28C84.2164 363.557 84.2004 363.851 84.1684 364.16H77.1604C77.2137 365.024 77.507 365.701 78.0404 366.192C78.5844 366.672 79.2404 366.912 80.0084 366.912C80.6377 366.912 81.1604 366.768 81.5764 366.48C82.003 366.181 82.3017 365.787 82.4724 365.296H84.0404C83.8057 366.139 83.3364 366.827 82.6324 367.36C81.9284 367.883 81.0537 368.144 80.0084 368.144C79.1764 368.144 78.4297 367.957 77.7684 367.584C77.1177 367.211 76.6057 366.683 76.2324 366C75.859 365.307 75.6724 364.507 75.6724 363.6C75.6724 362.693 75.8537 361.899 76.2164 361.216C76.579 360.533 77.0857 360.011 77.7364 359.648C78.3977 359.275 79.155 359.088 80.0084 359.088C80.8404 359.088 81.5764 359.269 82.2164 359.632C82.8564 359.995 83.347 360.496 83.6884 361.136C84.0404 361.765 84.2164 362.48 84.2164 363.28ZM82.7124 362.976C82.7124 362.421 82.5897 361.947 82.3444 361.552C82.099 361.147 81.763 360.843 81.3364 360.64C80.9204 360.427 80.4564 360.32 79.9444 360.32C79.2084 360.32 78.579 360.555 78.0564 361.024C77.5444 361.493 77.251 362.144 77.1764 362.976H82.7124ZM87.5943 360.656C87.8503 360.155 88.2129 359.765 88.6823 359.488C89.1623 359.211 89.7436 359.072 90.4263 359.072V360.576H90.0423C88.4103 360.576 87.5943 361.461 87.5943 363.232V368H86.1383V359.232H87.5943V360.656Z" fill="#212529" fill-opacity="0.85"/>
<path d="M630.426 444.848V456H628.97V450.944H623.29V456H621.834V444.848H623.29V449.744H628.97V444.848H630.426ZM633.664 445.808C633.386 445.808 633.152 445.712 632.96 445.52C632.768 445.328 632.672 445.093 632.672 444.816C632.672 444.539 632.768 444.304 632.96 444.112C633.152 443.92 633.386 443.824 633.664 443.824C633.93 443.824 634.154 443.92 634.336 444.112C634.528 444.304 634.624 444.539 634.624 444.816C634.624 445.093 634.528 445.328 634.336 445.52C634.154 445.712 633.93 445.808 633.664 445.808ZM634.368 447.232V456H632.912V447.232H634.368ZM640.465 447.088C641.223 447.088 641.884 447.253 642.449 447.584C643.025 447.915 643.452 448.331 643.729 448.832V447.232H645.201V456.192C645.201 456.992 645.031 457.701 644.689 458.32C644.348 458.949 643.857 459.44 643.217 459.792C642.588 460.144 641.852 460.32 641.009 460.32C639.857 460.32 638.897 460.048 638.129 459.504C637.361 458.96 636.908 458.219 636.769 457.28H638.209C638.369 457.813 638.7 458.24 639.201 458.56C639.703 458.891 640.305 459.056 641.009 459.056C641.809 459.056 642.46 458.805 642.961 458.304C643.473 457.803 643.729 457.099 643.729 456.192V454.352C643.441 454.864 643.015 455.291 642.449 455.632C641.884 455.973 641.223 456.144 640.465 456.144C639.687 456.144 638.977 455.952 638.337 455.568C637.708 455.184 637.212 454.645 636.849 453.952C636.487 453.259 636.305 452.469 636.305 451.584C636.305 450.688 636.487 449.904 636.849 449.232C637.212 448.549 637.708 448.021 638.337 447.648C638.977 447.275 639.687 447.088 640.465 447.088ZM643.729 451.6C643.729 450.939 643.596 450.363 643.329 449.872C643.063 449.381 642.7 449.008 642.241 448.752C641.793 448.485 641.297 448.352 640.753 448.352C640.209 448.352 639.713 448.48 639.265 448.736C638.817 448.992 638.46 449.365 638.193 449.856C637.927 450.347 637.793 450.923 637.793 451.584C637.793 452.256 637.927 452.843 638.193 453.344C638.46 453.835 638.817 454.213 639.265 454.48C639.713 454.736 640.209 454.864 640.753 454.864C641.297 454.864 641.793 454.736 642.241 454.48C642.7 454.213 643.063 453.835 643.329 453.344C643.596 452.843 643.729 452.261 643.729 451.6ZM652.014 447.072C652.675 447.072 653.272 447.216 653.806 447.504C654.339 447.781 654.755 448.203 655.054 448.768C655.363 449.333 655.518 450.021 655.518 450.832V456H654.078V451.04C654.078 450.165 653.859 449.499 653.422 449.04C652.984 448.571 652.387 448.336 651.63 448.336C650.862 448.336 650.248 448.576 649.79 449.056C649.342 449.536 649.118 450.235 649.118 451.152V456H647.662V444.16H649.118V448.48C649.406 448.032 649.8 447.685 650.302 447.44C650.814 447.195 651.384 447.072 652.014 447.072ZM663.976 449.52V450.752H657.592V449.52H663.976ZM670.277 448.432H668.437V456H666.981V448.432H665.845V447.232H666.981V446.608C666.981 445.627 667.231 444.912 667.733 444.464C668.245 444.005 669.061 443.776 670.181 443.776V444.992C669.541 444.992 669.087 445.12 668.821 445.376C668.565 445.621 668.437 446.032 668.437 446.608V447.232H670.277V448.432ZM672.726 445.808C672.449 445.808 672.214 445.712 672.022 445.52C671.83 445.328 671.734 445.093 671.734 444.816C671.734 444.539 671.83 444.304 672.022 444.112C672.214 443.92 672.449 443.824 672.726 443.824C672.993 443.824 673.217 443.92 673.398 444.112C673.59 444.304 673.686 444.539 673.686 444.816C673.686 445.093 673.59 445.328 673.398 445.52C673.217 445.712 672.993 445.808 672.726 445.808ZM673.43 447.232V456H671.974V447.232H673.43ZM675.368 451.584C675.368 450.688 675.549 449.904 675.912 449.232C676.274 448.549 676.77 448.021 677.4 447.648C678.04 447.275 678.754 447.088 679.544 447.088C680.226 447.088 680.861 447.248 681.448 447.568C682.034 447.877 682.482 448.288 682.792 448.8V444.16H684.264V456H682.792V454.352C682.504 454.875 682.077 455.307 681.512 455.648C680.946 455.979 680.285 456.144 679.528 456.144C678.749 456.144 678.04 455.952 677.4 455.568C676.77 455.184 676.274 454.645 675.912 453.952C675.549 453.259 675.368 452.469 675.368 451.584ZM682.792 451.6C682.792 450.939 682.658 450.363 682.392 449.872C682.125 449.381 681.762 449.008 681.304 448.752C680.856 448.485 680.36 448.352 679.816 448.352C679.272 448.352 678.776 448.48 678.328 448.736C677.88 448.992 677.522 449.365 677.256 449.856C676.989 450.347 676.856 450.923 676.856 451.584C676.856 452.256 676.989 452.843 677.256 453.344C677.522 453.835 677.88 454.213 678.328 454.48C678.776 454.736 679.272 454.864 679.816 454.864C680.36 454.864 680.856 454.736 681.304 454.48C681.762 454.213 682.125 453.835 682.392 453.344C682.658 452.843 682.792 452.261 682.792 451.6ZM694.724 451.28C694.724 451.557 694.708 451.851 694.676 452.16H687.668C687.722 453.024 688.015 453.701 688.548 454.192C689.092 454.672 689.748 454.912 690.516 454.912C691.146 454.912 691.668 454.768 692.084 454.48C692.511 454.181 692.81 453.787 692.98 453.296H694.548C694.314 454.139 693.844 454.827 693.14 455.36C692.436 455.883 691.562 456.144 690.516 456.144C689.684 456.144 688.938 455.957 688.276 455.584C687.626 455.211 687.114 454.683 686.74 454C686.367 453.307 686.18 452.507 686.18 451.6C686.18 450.693 686.362 449.899 686.724 449.216C687.087 448.533 687.594 448.011 688.244 447.648C688.906 447.275 689.663 447.088 690.516 447.088C691.348 447.088 692.084 447.269 692.724 447.632C693.364 447.995 693.855 448.496 694.196 449.136C694.548 449.765 694.724 450.48 694.724 451.28ZM693.22 450.976C693.22 450.421 693.098 449.947 692.852 449.552C692.607 449.147 692.271 448.843 691.844 448.64C691.428 448.427 690.964 448.32 690.452 448.32C689.716 448.32 689.087 448.555 688.564 449.024C688.052 449.493 687.759 450.144 687.684 450.976H693.22ZM698.102 444.16V456H696.646V444.16H698.102ZM701.336 445.808C701.058 445.808 700.824 445.712 700.632 445.52C700.44 445.328 700.344 445.093 700.344 444.816C700.344 444.539 700.44 444.304 700.632 444.112C700.824 443.92 701.058 443.824 701.336 443.824C701.602 443.824 701.826 443.92 702.008 444.112C702.2 444.304 702.296 444.539 702.296 444.816C702.296 445.093 702.2 445.328 702.008 445.52C701.826 445.712 701.602 445.808 701.336 445.808ZM702.04 447.232V456H700.584V447.232H702.04ZM706.297 448.432V453.6C706.297 454.027 706.388 454.331 706.569 454.512C706.75 454.683 707.065 454.768 707.513 454.768H708.585V456H707.273C706.462 456 705.854 455.813 705.449 455.44C705.044 455.067 704.841 454.453 704.841 453.6V448.432H703.705V447.232H704.841V445.024H706.297V447.232H708.585V448.432H706.297ZM717.901 447.232L712.621 460.128H711.117L712.845 455.904L709.309 447.232H710.925L713.677 454.336L716.397 447.232H717.901ZM647.224 468.928V480H645.768V471.744L642.088 480H641.064L637.368 471.728V480H635.912V468.928H637.48L641.576 478.08L645.672 468.928H647.224ZM651.149 478.816H655.053V480H649.693V468.848H651.149V478.816ZM672.177 468.928V480H670.721V471.744L667.041 480H666.017L662.321 471.728V480H660.865V468.928H662.433L666.529 478.08L670.625 468.928H672.177ZM678.47 480.144C677.649 480.144 676.902 479.957 676.23 479.584C675.569 479.211 675.046 478.683 674.662 478C674.289 477.307 674.102 476.507 674.102 475.6C674.102 474.704 674.294 473.915 674.678 473.232C675.073 472.539 675.606 472.011 676.278 471.648C676.95 471.275 677.702 471.088 678.534 471.088C679.366 471.088 680.118 471.275 680.79 471.648C681.462 472.011 681.99 472.533 682.374 473.216C682.769 473.899 682.966 474.693 682.966 475.6C682.966 476.507 682.763 477.307 682.358 478C681.963 478.683 681.425 479.211 680.742 479.584C680.059 479.957 679.302 480.144 678.47 480.144ZM678.47 478.864C678.993 478.864 679.483 478.741 679.942 478.496C680.401 478.251 680.769 477.883 681.046 477.392C681.334 476.901 681.478 476.304 681.478 475.6C681.478 474.896 681.339 474.299 681.062 473.808C680.785 473.317 680.422 472.955 679.974 472.72C679.526 472.475 679.041 472.352 678.518 472.352C677.985 472.352 677.494 472.475 677.046 472.72C676.609 472.955 676.257 473.317 675.99 473.808C675.723 474.299 675.59 474.896 675.59 475.6C675.59 476.315 675.718 476.917 675.974 477.408C676.241 477.899 676.593 478.267 677.03 478.512C677.467 478.747 677.947 478.864 678.47 478.864ZM684.336 475.584C684.336 474.688 684.518 473.904 684.88 473.232C685.243 472.549 685.739 472.021 686.368 471.648C687.008 471.275 687.723 471.088 688.512 471.088C689.195 471.088 689.83 471.248 690.416 471.568C691.003 471.877 691.451 472.288 691.76 472.8V468.16H693.232V480H691.76V478.352C691.472 478.875 691.046 479.307 690.48 479.648C689.915 479.979 689.254 480.144 688.496 480.144C687.718 480.144 687.008 479.952 686.368 479.568C685.739 479.184 685.243 478.645 684.88 477.952C684.518 477.259 684.336 476.469 684.336 475.584ZM691.76 475.6C691.76 474.939 691.627 474.363 691.36 473.872C691.094 473.381 690.731 473.008 690.272 472.752C689.824 472.485 689.328 472.352 688.784 472.352C688.24 472.352 687.744 472.48 687.296 472.736C686.848 472.992 686.491 473.365 686.224 473.856C685.958 474.347 685.824 474.923 685.824 475.584C685.824 476.256 685.958 476.843 686.224 477.344C686.491 477.835 686.848 478.213 687.296 478.48C687.744 478.736 688.24 478.864 688.784 478.864C689.328 478.864 689.824 478.736 690.272 478.48C690.731 478.213 691.094 477.835 691.36 477.344C691.627 476.843 691.76 476.261 691.76 475.6ZM703.693 475.28C703.693 475.557 703.677 475.851 703.645 476.16H696.637C696.69 477.024 696.984 477.701 697.517 478.192C698.061 478.672 698.717 478.912 699.485 478.912C700.114 478.912 700.637 478.768 701.053 478.48C701.48 478.181 701.778 477.787 701.949 477.296H703.517C703.282 478.139 702.813 478.827 702.109 479.36C701.405 479.883 700.53 480.144 699.485 480.144C698.653 480.144 697.906 479.957 697.245 479.584C696.594 479.211 696.082 478.683 695.709 478C695.336 477.307 695.149 476.507 695.149 475.6C695.149 474.693 695.33 473.899 695.693 473.216C696.056 472.533 696.562 472.011 697.213 471.648C697.874 471.275 698.632 471.088 699.485 471.088C700.317 471.088 701.053 471.269 701.693 471.632C702.333 471.995 702.824 472.496 703.165 473.136C703.517 473.765 703.693 474.48 703.693 475.28ZM702.189 474.976C702.189 474.421 702.066 473.947 701.821 473.552C701.576 473.147 701.24 472.843 700.813 472.64C700.397 472.427 699.933 472.32 699.421 472.32C698.685 472.32 698.056 472.555 697.533 473.024C697.021 473.493 696.728 474.144 696.653 474.976H702.189ZM707.071 468.16V480H705.615V468.16H707.071Z" fill="#212529" fill-opacity="0.85"/>
<path d="M257 199C257 203.418 260.582 207 265 207C269.418 207 273 203.418 273 199C273 194.582 269.418 191 265 191C260.582 191 257 194.582 257 199ZM209.5 178.5L210.02 177.093L209.768 177H209.5V178.5ZM160 180H161.515V177H160V180ZM165.556 180H168.587V177H165.556V180ZM172.628 180H175.658V177H172.628V180ZM179.699 180H182.73V177H179.699V180ZM186.77 180H189.801V177H186.77V180ZM193.842 180H196.872V177H193.842V180ZM200.913 180H203.944V177H200.913V180ZM207.985 180H209.5V177H207.985V180ZM208.98 179.907L210.467 180.456L211.506 177.642L210.02 177.093L208.98 179.907ZM214.431 181.92L217.404 183.019L218.444 180.205L215.471 179.106L214.431 181.92ZM221.369 184.483L224.342 185.581L225.381 182.767L222.408 181.669L221.369 184.483ZM228.306 187.045L231.279 188.144L232.319 185.33L229.346 184.231L228.306 187.045ZM235.244 189.608L238.217 190.706L239.256 187.892L236.283 186.794L235.244 189.608ZM242.181 192.17L245.154 193.269L246.194 190.455L243.221 189.356L242.181 192.17ZM249.119 194.733L252.092 195.831L253.131 193.017L250.158 191.919L249.119 194.733ZM256.056 197.295L259.029 198.394L260.069 195.58L257.096 194.481L256.056 197.295ZM262.994 199.858L264.48 200.407L265.52 197.593L264.033 197.044L262.994 199.858Z" fill="#212529" fill-opacity="0.5"/>
<path d="M214 370.5C214 374.918 217.582 378.5 222 378.5C226.418 378.5 230 374.918 230 370.5C230 366.082 226.418 362.5 222 362.5C217.582 362.5 214 366.082 214 370.5ZM166.5 350L167.02 348.593L166.768 348.5H166.5V350ZM117 351.5H118.515V348.5H117V351.5ZM122.556 351.5H125.587V348.5H122.556V351.5ZM129.628 351.5H132.658V348.5H129.628V351.5ZM136.699 351.5H139.73V348.5H136.699V351.5ZM143.77 351.5H146.801V348.5H143.77V351.5ZM150.842 351.5H153.872V348.5H150.842V351.5ZM157.913 351.5H160.944V348.5H157.913V351.5ZM164.985 351.5H166.5V348.5H164.985V351.5ZM165.98 351.407L167.467 351.956L168.506 349.142L167.02 348.593L165.98 351.407ZM171.431 353.42L174.404 354.519L175.444 351.705L172.471 350.606L171.431 353.42ZM178.369 355.983L181.342 357.081L182.381 354.267L179.408 353.169L178.369 355.983ZM185.306 358.545L188.279 359.644L189.319 356.83L186.346 355.731L185.306 358.545ZM192.244 361.108L195.217 362.206L196.256 359.392L193.283 358.294L192.244 361.108ZM199.181 363.67L202.154 364.769L203.194 361.955L200.221 360.856L199.181 363.67ZM206.119 366.233L209.092 367.331L210.131 364.517L207.158 363.419L206.119 366.233ZM213.056 368.795L216.029 369.894L217.069 367.08L214.096 365.981L213.056 368.795ZM219.994 371.358L221.48 371.907L222.52 369.093L221.033 368.544L219.994 371.358Z" fill="#212529" fill-opacity="0.5"/>
<path d="M105.96 481.112C104.925 481.112 103.97 480.872 103.096 480.392C102.232 479.901 101.544 479.224 101.032 478.36C100.53 477.485 100.28 476.504 100.28 475.416C100.28 474.328 100.53 473.352 101.032 472.488C101.544 471.624 102.232 470.952 103.096 470.472C103.97 469.981 104.925 469.736 105.96 469.736C107.005 469.736 107.96 469.981 108.824 470.472C109.698 470.952 110.386 471.624 110.888 472.488C111.389 473.352 111.64 474.328 111.64 475.416C111.64 476.504 111.389 477.485 110.888 478.36C110.386 479.224 109.698 479.901 108.824 480.392C107.96 480.872 107.005 481.112 105.96 481.112ZM105.96 479.528C106.696 479.528 107.352 479.363 107.928 479.032C108.504 478.691 108.952 478.211 109.272 477.592C109.602 476.963 109.768 476.237 109.768 475.416C109.768 474.595 109.602 473.875 109.272 473.256C108.952 472.637 108.504 472.163 107.928 471.832C107.352 471.501 106.696 471.336 105.96 471.336C105.224 471.336 104.568 471.501 103.992 471.832C103.416 472.163 102.962 472.637 102.632 473.256C102.312 473.875 102.152 474.595 102.152 475.416C102.152 476.237 102.312 476.963 102.632 477.592C102.962 478.211 103.416 478.691 103.992 479.032C104.568 479.363 105.224 479.528 105.96 479.528ZM115.258 473.48C115.568 473.075 115.989 472.733 116.522 472.456C117.056 472.179 117.658 472.04 118.33 472.04C119.098 472.04 119.797 472.232 120.426 472.616C121.066 472.989 121.568 473.517 121.93 474.2C122.293 474.883 122.474 475.667 122.474 476.552C122.474 477.437 122.293 478.232 121.93 478.936C121.568 479.629 121.066 480.173 120.426 480.568C119.797 480.952 119.098 481.144 118.33 481.144C117.658 481.144 117.061 481.011 116.538 480.744C116.016 480.467 115.589 480.125 115.258 479.72V485.192H113.434V472.184H115.258V473.48ZM120.618 476.552C120.618 475.944 120.49 475.421 120.234 474.984C119.989 474.536 119.658 474.2 119.242 473.976C118.837 473.741 118.4 473.624 117.93 473.624C117.472 473.624 117.034 473.741 116.618 473.976C116.213 474.211 115.882 474.552 115.626 475C115.381 475.448 115.258 475.976 115.258 476.584C115.258 477.192 115.381 477.725 115.626 478.184C115.882 478.632 116.213 478.973 116.618 479.208C117.034 479.443 117.472 479.56 117.93 479.56C118.4 479.56 118.837 479.443 119.242 479.208C119.658 478.963 119.989 478.611 120.234 478.152C120.49 477.693 120.618 477.16 120.618 476.552ZM126.406 473.672V478.552C126.406 478.883 126.481 479.123 126.63 479.272C126.79 479.411 127.057 479.48 127.43 479.48H128.55V481H127.11C126.289 481 125.659 480.808 125.222 480.424C124.785 480.04 124.566 479.416 124.566 478.552V473.672H123.526V472.184H124.566V469.992H126.406V472.184H128.55V473.672H126.406ZM131.159 471.016C130.829 471.016 130.551 470.904 130.327 470.68C130.103 470.456 129.991 470.179 129.991 469.848C129.991 469.517 130.103 469.24 130.327 469.016C130.551 468.792 130.829 468.68 131.159 468.68C131.479 468.68 131.751 468.792 131.975 469.016C132.199 469.24 132.311 469.517 132.311 469.848C132.311 470.179 132.199 470.456 131.975 470.68C131.751 470.904 131.479 471.016 131.159 471.016ZM132.055 472.184V481H130.231V472.184H132.055ZM145.122 472.04C145.815 472.04 146.434 472.184 146.978 472.472C147.533 472.76 147.965 473.187 148.274 473.752C148.594 474.317 148.754 475 148.754 475.8V481H146.946V476.072C146.946 475.283 146.749 474.68 146.354 474.264C145.959 473.837 145.421 473.624 144.738 473.624C144.055 473.624 143.511 473.837 143.106 474.264C142.711 474.68 142.514 475.283 142.514 476.072V481H140.706V476.072C140.706 475.283 140.509 474.68 140.114 474.264C139.719 473.837 139.181 473.624 138.498 473.624C137.815 473.624 137.271 473.837 136.866 474.264C136.471 474.68 136.274 475.283 136.274 476.072V481H134.45V472.184H136.274V473.192C136.573 472.829 136.951 472.547 137.41 472.344C137.869 472.141 138.359 472.04 138.882 472.04C139.586 472.04 140.215 472.189 140.77 472.488C141.325 472.787 141.751 473.219 142.05 473.784C142.317 473.251 142.733 472.829 143.298 472.52C143.863 472.2 144.471 472.04 145.122 472.04ZM150.467 476.552C150.467 475.667 150.648 474.883 151.011 474.2C151.384 473.517 151.886 472.989 152.515 472.616C153.155 472.232 153.859 472.04 154.627 472.04C155.32 472.04 155.923 472.179 156.435 472.456C156.958 472.723 157.374 473.059 157.683 473.464V472.184H159.523V481H157.683V479.688C157.374 480.104 156.952 480.451 156.419 480.728C155.886 481.005 155.278 481.144 154.595 481.144C153.838 481.144 153.144 480.952 152.515 480.568C151.886 480.173 151.384 479.629 151.011 478.936C150.648 478.232 150.467 477.437 150.467 476.552ZM157.683 476.584C157.683 475.976 157.555 475.448 157.299 475C157.054 474.552 156.728 474.211 156.323 473.976C155.918 473.741 155.48 473.624 155.011 473.624C154.542 473.624 154.104 473.741 153.699 473.976C153.294 474.2 152.963 474.536 152.707 474.984C152.462 475.421 152.339 475.944 152.339 476.552C152.339 477.16 152.462 477.693 152.707 478.152C152.963 478.611 153.294 478.963 153.699 479.208C154.115 479.443 154.552 479.56 155.011 479.56C155.48 479.56 155.918 479.443 156.323 479.208C156.728 478.973 157.054 478.632 157.299 478.184C157.555 477.725 157.683 477.192 157.683 476.584ZM163.743 469.16V481H161.919V469.16H163.743ZM173.926 469.88C175.11 469.88 176.144 470.109 177.03 470.568C177.926 471.016 178.614 471.667 179.094 472.52C179.584 473.363 179.83 474.349 179.83 475.48C179.83 476.611 179.584 477.592 179.094 478.424C178.614 479.256 177.926 479.896 177.03 480.344C176.144 480.781 175.11 481 173.926 481H170.294V469.88H173.926ZM173.926 479.512C175.227 479.512 176.224 479.16 176.918 478.456C177.611 477.752 177.958 476.76 177.958 475.48C177.958 474.189 177.611 473.181 176.918 472.456C176.224 471.731 175.227 471.368 173.926 471.368H172.118V479.512H173.926ZM189.718 476.376C189.718 476.707 189.696 477.005 189.654 477.272H182.918C182.971 477.976 183.232 478.541 183.702 478.968C184.171 479.395 184.747 479.608 185.43 479.608C186.411 479.608 187.104 479.197 187.51 478.376H189.477C189.211 479.187 188.726 479.853 188.022 480.376C187.328 480.888 186.464 481.144 185.43 481.144C184.587 481.144 183.83 480.957 183.158 480.584C182.496 480.2 181.974 479.667 181.59 478.984C181.216 478.291 181.03 477.491 181.03 476.584C181.03 475.677 181.211 474.883 181.574 474.2C181.947 473.507 182.464 472.973 183.126 472.6C183.798 472.227 184.566 472.04 185.43 472.04C186.262 472.04 187.003 472.221 187.654 472.584C188.304 472.947 188.811 473.459 189.174 474.12C189.536 474.771 189.718 475.523 189.718 476.376ZM187.814 475.8C187.803 475.128 187.563 474.589 187.094 474.184C186.624 473.779 186.043 473.576 185.35 473.576C184.72 473.576 184.182 473.779 183.734 474.184C183.286 474.579 183.019 475.117 182.934 475.8H187.814ZM194.713 481.144C194.019 481.144 193.395 481.021 192.841 480.776C192.297 480.52 191.865 480.179 191.545 479.752C191.225 479.315 191.054 478.829 191.033 478.296H192.921C192.953 478.669 193.129 478.984 193.449 479.24C193.779 479.485 194.19 479.608 194.681 479.608C195.193 479.608 195.587 479.512 195.865 479.32C196.153 479.117 196.297 478.861 196.297 478.552C196.297 478.221 196.137 477.976 195.817 477.816C195.507 477.656 195.011 477.48 194.329 477.288C193.667 477.107 193.129 476.931 192.713 476.76C192.297 476.589 191.934 476.328 191.625 475.976C191.326 475.624 191.177 475.16 191.177 474.584C191.177 474.115 191.315 473.688 191.593 473.304C191.87 472.909 192.265 472.6 192.777 472.376C193.299 472.152 193.897 472.04 194.569 472.04C195.571 472.04 196.377 472.296 196.985 472.808C197.603 473.309 197.934 473.997 197.977 474.872H196.153C196.121 474.477 195.961 474.163 195.673 473.928C195.385 473.693 194.995 473.576 194.505 473.576C194.025 473.576 193.657 473.667 193.401 473.848C193.145 474.029 193.017 474.269 193.017 474.568C193.017 474.803 193.102 475 193.273 475.16C193.443 475.32 193.651 475.448 193.897 475.544C194.142 475.629 194.505 475.741 194.985 475.88C195.625 476.051 196.147 476.227 196.553 476.408C196.969 476.579 197.326 476.835 197.625 477.176C197.923 477.517 198.078 477.971 198.089 478.536C198.089 479.037 197.95 479.485 197.673 479.88C197.395 480.275 197.001 480.584 196.489 480.808C195.987 481.032 195.395 481.144 194.713 481.144ZM200.987 471.016C200.657 471.016 200.379 470.904 200.155 470.68C199.931 470.456 199.819 470.179 199.819 469.848C199.819 469.517 199.931 469.24 200.155 469.016C200.379 468.792 200.657 468.68 200.987 468.68C201.307 468.68 201.579 468.792 201.803 469.016C202.027 469.24 202.139 469.517 202.139 469.848C202.139 470.179 202.027 470.456 201.803 470.68C201.579 470.904 201.307 471.016 200.987 471.016ZM201.883 472.184V481H200.059V472.184H201.883ZM207.83 472.04C208.513 472.04 209.115 472.179 209.638 472.456C210.171 472.723 210.587 473.059 210.886 473.464V472.184H212.726V481.144C212.726 481.955 212.555 482.675 212.214 483.304C211.873 483.944 211.377 484.445 210.726 484.808C210.086 485.171 209.318 485.352 208.422 485.352C207.227 485.352 206.235 485.069 205.446 484.504C204.657 483.949 204.209 483.192 204.102 482.232H205.91C206.049 482.691 206.342 483.059 206.79 483.336C207.249 483.624 207.793 483.768 208.422 483.768C209.158 483.768 209.75 483.544 210.198 483.096C210.657 482.648 210.886 481.997 210.886 481.144V479.672C210.577 480.088 210.155 480.44 209.622 480.728C209.099 481.005 208.502 481.144 207.83 481.144C207.062 481.144 206.358 480.952 205.718 480.568C205.089 480.173 204.587 479.629 204.214 478.936C203.851 478.232 203.67 477.437 203.67 476.552C203.67 475.667 203.851 474.883 204.214 474.2C204.587 473.517 205.089 472.989 205.718 472.616C206.358 472.232 207.062 472.04 207.83 472.04ZM210.886 476.584C210.886 475.976 210.758 475.448 210.502 475C210.257 474.552 209.931 474.211 209.526 473.976C209.121 473.741 208.683 473.624 208.214 473.624C207.745 473.624 207.307 473.741 206.902 473.976C206.497 474.2 206.166 474.536 205.91 474.984C205.665 475.421 205.542 475.944 205.542 476.552C205.542 477.16 205.665 477.693 205.91 478.152C206.166 478.611 206.497 478.963 206.902 479.208C207.318 479.443 207.755 479.56 208.214 479.56C208.683 479.56 209.121 479.443 209.526 479.208C209.931 478.973 210.257 478.632 210.502 478.184C210.758 477.725 210.886 477.192 210.886 476.584ZM219.57 472.04C220.263 472.04 220.882 472.184 221.426 472.472C221.981 472.76 222.413 473.187 222.722 473.752C223.031 474.317 223.186 475 223.186 475.8V481H221.378V476.072C221.378 475.283 221.181 474.68 220.786 474.264C220.391 473.837 219.853 473.624 219.17 473.624C218.487 473.624 217.943 473.837 217.538 474.264C217.143 474.68 216.946 475.283 216.946 476.072V481H215.122V472.184H216.946V473.192C217.245 472.829 217.623 472.547 218.082 472.344C218.551 472.141 219.047 472.04 219.57 472.04Z" fill="white"/>
<circle cx="616" cy="45" r="5" fill="#5F5F5F"/>
<path d="M628.688 40.032V43.76H632.752V44.96H628.688V48.8H633.232V50H627.232V38.832H633.232V40.032H628.688ZM640.011 50L637.931 46.736L635.931 50H634.411L637.243 45.648L634.411 41.232H636.059L638.139 44.48L640.123 41.232H641.643L638.827 45.568L641.659 50H640.011ZM644.867 42.432V47.6C644.867 48.0267 644.958 48.3307 645.139 48.512C645.321 48.6827 645.635 48.768 646.083 48.768H647.155V50H645.843C645.033 50 644.425 49.8133 644.019 49.44C643.614 49.0667 643.411 48.4533 643.411 47.6V42.432H642.275V41.232H643.411V39.024H644.867V41.232H647.155V42.432H644.867ZM656.92 45.28C656.92 45.5573 656.904 45.8507 656.872 46.16H649.864C649.917 47.024 650.21 47.7013 650.744 48.192C651.288 48.672 651.944 48.912 652.712 48.912C653.341 48.912 653.864 48.768 654.28 48.48C654.706 48.1813 655.005 47.7867 655.176 47.296H656.744C656.509 48.1387 656.04 48.8267 655.336 49.36C654.632 49.8827 653.757 50.144 652.712 50.144C651.88 50.144 651.133 49.9573 650.472 49.584C649.821 49.2107 649.309 48.6827 648.936 48C648.562 47.3067 648.376 46.5067 648.376 45.6C648.376 44.6933 648.557 43.8987 648.92 43.216C649.282 42.5333 649.789 42.0107 650.44 41.648C651.101 41.2747 651.858 41.088 652.712 41.088C653.544 41.088 654.28 41.2693 654.92 41.632C655.56 41.9947 656.05 42.496 656.392 43.136C656.744 43.7653 656.92 44.48 656.92 45.28ZM655.416 44.976C655.416 44.4213 655.293 43.9467 655.048 43.552C654.802 43.1467 654.466 42.8427 654.04 42.64C653.624 42.4267 653.16 42.32 652.648 42.32C651.912 42.32 651.282 42.5547 650.76 43.024C650.248 43.4933 649.954 44.144 649.88 44.976H655.416ZM660.297 42.656C660.553 42.1547 660.916 41.7653 661.385 41.488C661.865 41.2107 662.447 41.072 663.129 41.072V42.576H662.745C661.113 42.576 660.297 43.4613 660.297 45.232V50H658.841V41.232H660.297V42.656ZM669.082 41.072C670.149 41.072 671.013 41.3973 671.674 42.048C672.335 42.688 672.666 43.616 672.666 44.832V50H671.226V45.04C671.226 44.1653 671.007 43.4987 670.57 43.04C670.133 42.5707 669.535 42.336 668.778 42.336C668.01 42.336 667.397 42.576 666.938 43.056C666.49 43.536 666.266 44.2347 666.266 45.152V50H664.81V41.232H666.266V42.48C666.554 42.032 666.943 41.6853 667.434 41.44C667.935 41.1947 668.485 41.072 669.082 41.072ZM674.501 45.584C674.501 44.688 674.682 43.904 675.045 43.232C675.407 42.5493 675.903 42.0213 676.533 41.648C677.173 41.2747 677.882 41.088 678.661 41.088C679.429 41.088 680.095 41.2533 680.661 41.584C681.226 41.9147 681.647 42.3307 681.925 42.832V41.232H683.397V50H681.925V48.368C681.637 48.88 681.205 49.3067 680.629 49.648C680.063 49.9787 679.402 50.144 678.645 50.144C677.866 50.144 677.162 49.952 676.533 49.568C675.903 49.184 675.407 48.6453 675.045 47.952C674.682 47.2587 674.501 46.4693 674.501 45.584ZM681.925 45.6C681.925 44.9387 681.791 44.3627 681.525 43.872C681.258 43.3813 680.895 43.008 680.437 42.752C679.989 42.4853 679.493 42.352 678.949 42.352C678.405 42.352 677.909 42.48 677.461 42.736C677.013 42.992 676.655 43.3653 676.389 43.856C676.122 44.3467 675.989 44.9227 675.989 45.584C675.989 46.256 676.122 46.8427 676.389 47.344C676.655 47.8347 677.013 48.2133 677.461 48.48C677.909 48.736 678.405 48.864 678.949 48.864C679.493 48.864 679.989 48.736 680.437 48.48C680.895 48.2133 681.258 47.8347 681.525 47.344C681.791 46.8427 681.925 46.2613 681.925 45.6ZM687.313 38.16V50H685.857V38.16H687.313ZM697.596 50.112C696.86 50.112 696.199 49.984 695.612 49.728C695.036 49.4613 694.583 49.0987 694.252 48.64C693.921 48.1707 693.751 47.632 693.74 47.024H695.292C695.345 47.5467 695.559 47.9893 695.932 48.352C696.316 48.704 696.871 48.88 697.596 48.88C698.289 48.88 698.833 48.7093 699.228 48.368C699.633 48.016 699.836 47.568 699.836 47.024C699.836 46.5973 699.719 46.2507 699.484 45.984C699.249 45.7173 698.956 45.5147 698.604 45.376C698.252 45.2373 697.777 45.088 697.18 44.928C696.444 44.736 695.852 44.544 695.404 44.352C694.967 44.16 694.588 43.8613 694.268 43.456C693.959 43.04 693.804 42.4853 693.804 41.792C693.804 41.184 693.959 40.6453 694.268 40.176C694.577 39.7067 695.009 39.344 695.564 39.088C696.129 38.832 696.775 38.704 697.5 38.704C698.545 38.704 699.399 38.9653 700.06 39.488C700.732 40.0107 701.111 40.704 701.196 41.568H699.596C699.543 41.1413 699.319 40.768 698.924 40.448C698.529 40.1173 698.007 39.952 697.356 39.952C696.748 39.952 696.252 40.112 695.868 40.432C695.484 40.7413 695.292 41.1787 695.292 41.744C695.292 42.1493 695.404 42.48 695.628 42.736C695.863 42.992 696.145 43.1893 696.476 43.328C696.817 43.456 697.292 43.6053 697.9 43.776C698.636 43.9787 699.228 44.1813 699.676 44.384C700.124 44.576 700.508 44.88 700.828 45.296C701.148 45.7013 701.308 46.256 701.308 46.96C701.308 47.504 701.164 48.016 700.876 48.496C700.588 48.976 700.161 49.3653 699.596 49.664C699.031 49.9627 698.364 50.112 697.596 50.112ZM707.275 50.144C706.453 50.144 705.707 49.9573 705.035 49.584C704.373 49.2107 703.851 48.6827 703.467 48C703.093 47.3067 702.907 46.5067 702.907 45.6C702.907 44.704 703.099 43.9147 703.483 43.232C703.877 42.5387 704.411 42.0107 705.083 41.648C705.755 41.2747 706.507 41.088 707.339 41.088C708.171 41.088 708.923 41.2747 709.595 41.648C710.267 42.0107 710.795 42.5333 711.179 43.216C711.573 43.8987 711.771 44.6933 711.771 45.6C711.771 46.5067 711.568 47.3067 711.163 48C710.768 48.6827 710.229 49.2107 709.547 49.584C708.864 49.9573 708.107 50.144 707.275 50.144ZM707.275 48.864C707.797 48.864 708.288 48.7413 708.747 48.496C709.205 48.2507 709.573 47.8827 709.851 47.392C710.139 46.9013 710.283 46.304 710.283 45.6C710.283 44.896 710.144 44.2987 709.867 43.808C709.589 43.3173 709.227 42.9547 708.779 42.72C708.331 42.4747 707.845 42.352 707.323 42.352C706.789 42.352 706.299 42.4747 705.851 42.72C705.413 42.9547 705.061 43.3173 704.795 43.808C704.528 44.2987 704.395 44.896 704.395 45.6C704.395 46.3147 704.523 46.9173 704.779 47.408C705.045 47.8987 705.397 48.2667 705.835 48.512C706.272 48.7467 706.752 48.864 707.275 48.864ZM717.253 42.432H715.413V50H713.957V42.432H712.821V41.232H713.957V40.608C713.957 39.6267 714.208 38.912 714.709 38.464C715.221 38.0053 716.037 37.776 717.157 37.776V38.992C716.517 38.992 716.064 39.12 715.797 39.376C715.541 39.6213 715.413 40.032 715.413 40.608V41.232H717.253V42.432ZM720.727 42.432V47.6C720.727 48.0267 720.817 48.3307 720.999 48.512C721.18 48.6827 721.495 48.768 721.943 48.768H723.015V50H721.703C720.892 50 720.284 49.8133 719.879 49.44C719.473 49.0667 719.271 48.4533 719.271 47.6V42.432H718.135V41.232H719.271V39.024H720.727V41.232H723.015V42.432H720.727ZM736.459 41.232L733.723 50H732.219L730.107 43.04L727.995 50H726.491L723.739 41.232H725.227L727.243 48.592L729.419 41.232H730.907L733.035 48.608L735.019 41.232H736.459ZM737.36 45.584C737.36 44.688 737.541 43.904 737.904 43.232C738.267 42.5493 738.763 42.0213 739.392 41.648C740.032 41.2747 740.741 41.088 741.52 41.088C742.288 41.088 742.955 41.2533 743.52 41.584C744.085 41.9147 744.507 42.3307 744.784 42.832V41.232H746.256V50H744.784V48.368C744.496 48.88 744.064 49.3067 743.488 49.648C742.923 49.9787 742.261 50.144 741.504 50.144C740.725 50.144 740.021 49.952 739.392 49.568C738.763 49.184 738.267 48.6453 737.904 47.952C737.541 47.2587 737.36 46.4693 737.36 45.584ZM744.784 45.6C744.784 44.9387 744.651 44.3627 744.384 43.872C744.117 43.3813 743.755 43.008 743.296 42.752C742.848 42.4853 742.352 42.352 741.808 42.352C741.264 42.352 740.768 42.48 740.32 42.736C739.872 42.992 739.515 43.3653 739.248 43.856C738.981 44.3467 738.848 44.9227 738.848 45.584C738.848 46.256 738.981 46.8427 739.248 47.344C739.515 47.8347 739.872 48.2133 740.32 48.48C740.768 48.736 741.264 48.864 741.808 48.864C742.352 48.864 742.848 48.736 743.296 48.48C743.755 48.2133 744.117 47.8347 744.384 47.344C744.651 46.8427 744.784 46.2613 744.784 45.6ZM750.172 42.656C750.428 42.1547 750.791 41.7653 751.26 41.488C751.74 41.2107 752.322 41.072 753.004 41.072V42.576H752.62C750.988 42.576 750.172 43.4613 750.172 45.232V50H748.716V41.232H750.172V42.656ZM762.685 45.28C762.685 45.5573 762.669 45.8507 762.637 46.16H755.629C755.682 47.024 755.976 47.7013 756.509 48.192C757.053 48.672 757.709 48.912 758.477 48.912C759.106 48.912 759.629 48.768 760.045 48.48C760.472 48.1813 760.77 47.7867 760.941 47.296H762.509C762.274 48.1387 761.805 48.8267 761.101 49.36C760.397 49.8827 759.522 50.144 758.477 50.144C757.645 50.144 756.898 49.9573 756.237 49.584C755.586 49.2107 755.074 48.6827 754.701 48C754.328 47.3067 754.141 46.5067 754.141 45.6C754.141 44.6933 754.322 43.8987 754.685 43.216C755.048 42.5333 755.554 42.0107 756.205 41.648C756.866 41.2747 757.624 41.088 758.477 41.088C759.309 41.088 760.045 41.2693 760.685 41.632C761.325 41.9947 761.816 42.496 762.157 43.136C762.509 43.7653 762.685 44.48 762.685 45.28ZM761.181 44.976C761.181 44.4213 761.058 43.9467 760.813 43.552C760.568 43.1467 760.232 42.8427 759.805 42.64C759.389 42.4267 758.925 42.32 758.413 42.32C757.677 42.32 757.048 42.5547 756.525 43.024C756.013 43.4933 755.72 44.144 755.645 44.976H761.181Z" fill="#212529" fill-opacity="0.85"/>
<circle cx="616" cy="20" r="5" fill="#0D6EFD"/>
<path d="M628.688 13.848V25H627.232V13.848H628.688ZM635.442 16.072C636.508 16.072 637.372 16.3973 638.034 17.048C638.695 17.688 639.026 18.616 639.026 19.832V25H637.586V20.04C637.586 19.1653 637.367 18.4987 636.93 18.04C636.492 17.5707 635.895 17.336 635.138 17.336C634.37 17.336 633.756 17.576 633.298 18.056C632.85 18.536 632.626 19.2347 632.626 20.152V25H631.17V16.232H632.626V17.48C632.914 17.032 633.303 16.6853 633.794 16.44C634.295 16.1947 634.844 16.072 635.442 16.072ZM644.972 17.432H643.132V25H641.676V17.432H640.54V16.232H641.676V15.608C641.676 14.6267 641.927 13.912 642.428 13.464C642.94 13.0053 643.756 12.776 644.876 12.776V13.992C644.236 13.992 643.783 14.12 643.516 14.376C643.26 14.6213 643.132 15.032 643.132 15.608V16.232H644.972V17.432ZM654.67 20.28C654.67 20.5573 654.654 20.8507 654.622 21.16H647.614C647.667 22.024 647.96 22.7013 648.494 23.192C649.038 23.672 649.694 23.912 650.462 23.912C651.091 23.912 651.614 23.768 652.03 23.48C652.456 23.1813 652.755 22.7867 652.926 22.296H654.494C654.259 23.1387 653.79 23.8267 653.086 24.36C652.382 24.8827 651.507 25.144 650.462 25.144C649.63 25.144 648.883 24.9573 648.222 24.584C647.571 24.2107 647.059 23.6827 646.686 23C646.312 22.3067 646.126 21.5067 646.126 20.6C646.126 19.6933 646.307 18.8987 646.67 18.216C647.032 17.5333 647.539 17.0107 648.19 16.648C648.851 16.2747 649.608 16.088 650.462 16.088C651.294 16.088 652.03 16.2693 652.67 16.632C653.31 16.9947 653.8 17.496 654.142 18.136C654.494 18.7653 654.67 19.48 654.67 20.28ZM653.166 19.976C653.166 19.4213 653.043 18.9467 652.798 18.552C652.552 18.1467 652.216 17.8427 651.79 17.64C651.374 17.4267 650.91 17.32 650.398 17.32C649.662 17.32 649.032 17.5547 648.51 18.024C647.998 18.4933 647.704 19.144 647.63 19.976H653.166ZM658.047 17.656C658.303 17.1547 658.666 16.7653 659.135 16.488C659.615 16.2107 660.197 16.072 660.879 16.072V17.576H660.495C658.863 17.576 658.047 18.4613 658.047 20.232V25H656.591V16.232H658.047V17.656ZM662.016 20.584C662.016 19.688 662.197 18.904 662.56 18.232C662.923 17.5493 663.419 17.0213 664.048 16.648C664.688 16.2747 665.397 16.088 666.176 16.088C666.944 16.088 667.611 16.2533 668.176 16.584C668.741 16.9147 669.163 17.3307 669.44 17.832V16.232H670.912V25H669.44V23.368C669.152 23.88 668.72 24.3067 668.144 24.648C667.579 24.9787 666.917 25.144 666.16 25.144C665.381 25.144 664.677 24.952 664.048 24.568C663.419 24.184 662.923 23.6453 662.56 22.952C662.197 22.2587 662.016 21.4693 662.016 20.584ZM669.44 20.6C669.44 19.9387 669.307 19.3627 669.04 18.872C668.773 18.3813 668.411 18.008 667.952 17.752C667.504 17.4853 667.008 17.352 666.464 17.352C665.92 17.352 665.424 17.48 664.976 17.736C664.528 17.992 664.171 18.3653 663.904 18.856C663.637 19.3467 663.504 19.9227 663.504 20.584C663.504 21.256 663.637 21.8427 663.904 22.344C664.171 22.8347 664.528 23.2133 664.976 23.48C665.424 23.736 665.92 23.864 666.464 23.864C667.008 23.864 667.504 23.736 667.952 23.48C668.411 23.2133 668.773 22.8347 669.04 22.344C669.307 21.8427 669.44 21.2613 669.44 20.6ZM673.597 13.848H675.213L673.677 17.48H672.653L673.597 13.848ZM679.977 25.144C679.305 25.144 678.702 25.032 678.169 24.808C677.635 24.5733 677.214 24.2533 676.905 23.848C676.595 23.432 676.425 22.9573 676.393 22.424H677.897C677.939 22.8613 678.142 23.2187 678.505 23.496C678.878 23.7733 679.363 23.912 679.961 23.912C680.515 23.912 680.953 23.7893 681.273 23.544C681.593 23.2987 681.753 22.9893 681.753 22.616C681.753 22.232 681.582 21.9493 681.241 21.768C680.899 21.576 680.371 21.3893 679.657 21.208C679.006 21.0373 678.473 20.8667 678.057 20.696C677.651 20.5147 677.299 20.2533 677.001 19.912C676.713 19.56 676.569 19.1013 676.569 18.536C676.569 18.088 676.702 17.6773 676.969 17.304C677.235 16.9307 677.614 16.6373 678.105 16.424C678.595 16.2 679.155 16.088 679.785 16.088C680.755 16.088 681.539 16.3333 682.137 16.824C682.734 17.3147 683.054 17.9867 683.097 18.84H681.641C681.609 18.3813 681.422 18.0133 681.081 17.736C680.75 17.4587 680.302 17.32 679.737 17.32C679.214 17.32 678.798 17.432 678.489 17.656C678.179 17.88 678.025 18.1733 678.025 18.536C678.025 18.824 678.115 19.064 678.297 19.256C678.489 19.4373 678.723 19.5867 679.001 19.704C679.289 19.8107 679.683 19.9333 680.185 20.072C680.814 20.2427 681.326 20.4133 681.721 20.584C682.115 20.744 682.451 20.9893 682.729 21.32C683.017 21.6507 683.166 22.0827 683.177 22.616C683.177 23.096 683.043 23.528 682.777 23.912C682.51 24.296 682.131 24.6 681.641 24.824C681.161 25.0373 680.606 25.144 679.977 25.144ZM696.954 17.112C696.954 18.04 696.634 18.8133 695.994 19.432C695.364 20.04 694.399 20.344 693.098 20.344H690.954V25H689.498V13.848H693.098C694.356 13.848 695.311 14.152 695.962 14.76C696.623 15.368 696.954 16.152 696.954 17.112ZM693.098 19.144C693.908 19.144 694.506 18.968 694.89 18.616C695.274 18.264 695.466 17.7627 695.466 17.112C695.466 15.736 694.676 15.048 693.098 15.048H690.954V19.144H693.098ZM700.219 13.16V25H698.763V13.16H700.219ZM702.157 20.584C702.157 19.688 702.338 18.904 702.701 18.232C703.063 17.5493 703.559 17.0213 704.189 16.648C704.829 16.2747 705.538 16.088 706.317 16.088C707.085 16.088 707.751 16.2533 708.317 16.584C708.882 16.9147 709.303 17.3307 709.581 17.832V16.232H711.053V25H709.581V23.368C709.293 23.88 708.861 24.3067 708.285 24.648C707.719 24.9787 707.058 25.144 706.301 25.144C705.522 25.144 704.818 24.952 704.189 24.568C703.559 24.184 703.063 23.6453 702.701 22.952C702.338 22.2587 702.157 21.4693 702.157 20.584ZM709.581 20.6C709.581 19.9387 709.447 19.3627 709.181 18.872C708.914 18.3813 708.551 18.008 708.093 17.752C707.645 17.4853 707.149 17.352 706.605 17.352C706.061 17.352 705.565 17.48 705.117 17.736C704.669 17.992 704.311 18.3653 704.045 18.856C703.778 19.3467 703.645 19.9227 703.645 20.584C703.645 21.256 703.778 21.8427 704.045 22.344C704.311 22.8347 704.669 23.2133 705.117 23.48C705.565 23.736 706.061 23.864 706.605 23.864C707.149 23.864 707.645 23.736 708.093 23.48C708.551 23.2133 708.914 22.8347 709.181 22.344C709.447 21.8427 709.581 21.2613 709.581 20.6ZM715.289 17.432V22.6C715.289 23.0267 715.38 23.3307 715.561 23.512C715.743 23.6827 716.057 23.768 716.505 23.768H717.577V25H716.265C715.455 25 714.847 24.8133 714.441 24.44C714.036 24.0667 713.833 23.4533 713.833 22.6V17.432H712.697V16.232H713.833V14.024H715.289V16.232H717.577V17.432H715.289ZM722.909 17.432H721.069V25H719.613V17.432H718.477V16.232H719.613V15.608C719.613 14.6267 719.864 13.912 720.365 13.464C720.877 13.0053 721.693 12.776 722.813 12.776V13.992C722.173 13.992 721.72 14.12 721.453 14.376C721.197 14.6213 721.069 15.032 721.069 15.608V16.232H722.909V17.432ZM728.431 25.144C727.61 25.144 726.863 24.9573 726.191 24.584C725.53 24.2107 725.007 23.6827 724.623 23C724.25 22.3067 724.063 21.5067 724.063 20.6C724.063 19.704 724.255 18.9147 724.639 18.232C725.034 17.5387 725.567 17.0107 726.239 16.648C726.911 16.2747 727.663 16.088 728.495 16.088C729.327 16.088 730.079 16.2747 730.751 16.648C731.423 17.0107 731.951 17.5333 732.335 18.216C732.73 18.8987 732.927 19.6933 732.927 20.6C732.927 21.5067 732.724 22.3067 732.319 23C731.924 23.6827 731.386 24.2107 730.703 24.584C730.02 24.9573 729.263 25.144 728.431 25.144ZM728.431 23.864C728.954 23.864 729.444 23.7413 729.903 23.496C730.362 23.2507 730.73 22.8827 731.007 22.392C731.295 21.9013 731.439 21.304 731.439 20.6C731.439 19.896 731.3 19.2987 731.023 18.808C730.746 18.3173 730.383 17.9547 729.935 17.72C729.487 17.4747 729.002 17.352 728.479 17.352C727.946 17.352 727.455 17.4747 727.007 17.72C726.57 17.9547 726.218 18.3173 725.951 18.808C725.684 19.2987 725.551 19.896 725.551 20.6C725.551 21.3147 725.679 21.9173 725.935 22.408C726.202 22.8987 726.554 23.2667 726.991 23.512C727.428 23.7467 727.908 23.864 728.431 23.864ZM736.297 17.656C736.553 17.1547 736.916 16.7653 737.385 16.488C737.865 16.2107 738.447 16.072 739.129 16.072V17.576H738.745C737.113 17.576 736.297 18.4613 736.297 20.232V25H734.841V16.232H736.297V17.656ZM751.354 16.072C752.037 16.072 752.645 16.216 753.178 16.504C753.711 16.7813 754.133 17.2027 754.442 17.768C754.751 18.3333 754.906 19.0213 754.906 19.832V25H753.466V20.04C753.466 19.1653 753.247 18.4987 752.81 18.04C752.383 17.5707 751.802 17.336 751.066 17.336C750.309 17.336 749.706 17.5813 749.258 18.072C748.81 18.552 748.586 19.2507 748.586 20.168V25H747.146V20.04C747.146 19.1653 746.927 18.4987 746.49 18.04C746.063 17.5707 745.482 17.336 744.746 17.336C743.989 17.336 743.386 17.5813 742.938 18.072C742.49 18.552 742.266 19.2507 742.266 20.168V25H740.81V16.232H742.266V17.496C742.554 17.0373 742.938 16.6853 743.418 16.44C743.909 16.1947 744.447 16.072 745.034 16.072C745.77 16.072 746.421 16.2373 746.986 16.568C747.551 16.8987 747.973 17.384 748.25 18.024C748.495 17.4053 748.901 16.9253 749.466 16.584C750.031 16.2427 750.661 16.072 751.354 16.072Z" fill="#212529" fill-opacity="0.85"/>
</g>
<defs>
<clipPath id="clip0_71_160">
<rect width="767" height="516" rx="12" fill="white"/>
</clipPath>
</defs>
</svg>
