<svg width="894" height="623" viewBox="0 0 894 623" fill="none" xmlns="http://www.w3.org/2000/svg">
<path d="M147.339 498.107C147.677 497.428 148.37 497 149.128 497L413.524 497C414.76 497 415.7 498.11 415.496 499.329L410.297 530.475C410.175 531.208 410.469 531.948 411.06 532.397L445.275 558.408C446.8 559.567 445.98 562 444.064 562L149.151 562C148.381 562 147.68 561.558 147.347 560.864L132.423 529.712C132.156 529.155 132.161 528.507 132.437 527.955L147.339 498.107Z" fill="#0D6EFD"/>
<g clip-path="url(#clip0_1_672)">
<path d="M643.198 350.699C644.003 350.375 644.508 349.568 644.441 348.703C640.6 299.012 618.155 252.576 581.56 218.689C545.327 185.137 497.893 166.359 448.583 165.973C447.174 165.962 446.215 167.387 446.739 168.695L464.707 213.544C464.863 213.935 464.893 214.365 464.79 214.774L452.952 262.047C452.634 263.315 453.601 264.541 454.908 264.569C478.769 265.063 496.457 274.81 514.295 291.328C532.415 308.106 543.596 331.038 545.677 355.61C545.75 356.474 546.36 357.203 547.202 357.411L595.658 369.414C596.065 369.515 596.495 369.485 596.885 369.328L643.198 350.699Z" fill="#0D6EFD"/>
<path d="M433.762 167.8C433.438 166.995 432.631 166.49 431.766 166.556C382.075 170.398 335.639 192.843 301.752 229.438C268.2 265.671 249.423 313.105 249.037 362.415C249.026 363.824 250.45 364.783 251.759 364.258L296.608 346.291C296.998 346.134 297.429 346.105 297.837 346.208L345.111 358.046C346.379 358.363 347.605 357.397 347.632 356.09C348.127 332.229 357.873 314.54 374.391 296.702C391.17 278.583 414.101 267.402 438.673 265.321C439.538 265.247 440.266 264.638 440.475 263.796L452.477 215.34C452.578 214.932 452.548 214.503 452.392 214.113L433.762 167.8Z" fill="#5F5F5F"/>
<path d="M250.863 377.236C250.058 377.56 249.553 378.367 249.62 379.232C253.462 428.923 275.906 475.359 312.501 509.246C348.734 542.798 396.168 561.575 445.478 561.961C446.887 561.972 447.846 560.547 447.322 559.239L429.355 514.39C429.198 513.999 429.169 513.569 429.271 513.161L441.109 465.887C441.427 464.619 440.461 463.393 439.154 463.366C415.292 462.871 397.604 453.125 379.766 436.606C361.647 419.828 350.465 396.896 348.384 372.325C348.311 371.46 347.701 370.732 346.859 370.523L298.404 358.52C297.996 358.419 297.566 358.449 297.177 358.606L250.863 377.236Z" fill="#0D6EFD"/>
<path d="M250.863 377.236C250.058 377.56 249.553 378.367 249.62 379.232C253.462 428.923 275.906 475.359 312.501 509.246C348.734 542.798 396.168 561.575 445.478 561.961C446.887 561.972 447.846 560.547 447.322 559.239L429.355 514.39C429.198 513.999 429.169 513.569 429.271 513.161L441.109 465.887C441.427 464.619 440.461 463.393 439.154 463.366C415.292 462.871 397.604 453.125 379.766 436.606C361.647 419.828 350.465 396.896 348.384 372.325C348.311 371.46 347.701 370.732 346.859 370.523L298.404 358.52C297.996 358.419 297.566 358.449 297.177 358.606L250.863 377.236Z" fill="#0D6EFD"/>
<path d="M460.299 560.135C460.623 560.939 461.43 561.445 462.295 561.378C511.986 557.536 558.422 535.091 592.309 498.497C625.861 462.264 644.639 414.83 645.025 365.52C645.036 364.11 643.611 363.152 642.303 363.676L597.454 381.643C597.063 381.8 596.633 381.829 596.224 381.727L548.951 369.888C547.683 369.571 546.456 370.537 546.429 371.844C545.934 395.706 536.188 413.394 519.67 431.232C502.891 449.351 479.96 460.532 455.388 462.614C454.524 462.687 453.795 463.297 453.587 464.139L441.584 512.594C441.483 513.002 441.513 513.431 441.67 513.821L460.299 560.135Z" fill="#0D6EFD"/>
</g>
<path d="M584.5 247C584.5 251.418 580.918 255 576.5 255C572.082 255 568.5 251.418 568.5 247C568.5 242.582 572.082 239 576.5 239C580.918 239 584.5 242.582 584.5 247ZM625 196.5L623.918 195.461L624.361 195L625 195L625 196.5ZM674 198L672.5 198L672.5 195L674 195L674 198ZM668.5 198L665.5 198L665.5 195L668.5 195L668.5 198ZM661.5 198L658.5 198L658.5 195L661.5 195L661.5 198ZM654.5 198L651.5 198L651.5 195L654.5 195L654.5 198ZM647.5 198L644.5 198L644.5 195L647.5 195L647.5 198ZM640.5 198L637.5 198L637.5 195L640.5 195L640.5 198ZM633.5 198L630.5 198L630.5 195L633.5 195L633.5 198ZM626.5 198L625 198L625 195L626.5 195L626.5 198ZM626.082 197.539L625.043 198.621L622.879 196.543L623.918 195.461L626.082 197.539ZM622.271 201.507L620.193 203.671L618.029 201.593L620.107 199.429L622.271 201.507ZM617.421 206.557L615.343 208.721L613.179 206.643L615.257 204.479L617.421 206.557ZM612.571 211.607L610.493 213.771L608.329 211.693L610.407 209.529L612.571 211.607ZM607.721 216.657L605.643 218.821L603.479 216.743L605.557 214.579L607.721 216.657ZM602.871 221.707L600.793 223.871L598.629 221.793L600.707 219.629L602.871 221.707ZM598.021 226.757L595.943 228.921L593.779 226.843L595.857 224.679L598.021 226.757ZM593.171 231.807L591.093 233.971L588.929 231.893L591.007 229.729L593.171 231.807ZM588.321 236.857L586.243 239.021L584.079 236.943L586.157 234.779L588.321 236.857ZM583.471 241.907L581.393 244.071L579.229 241.993L581.307 239.829L583.471 241.907ZM578.621 246.957L577.582 248.039L575.418 245.961L576.457 244.879L578.621 246.957Z" fill="#212529" fill-opacity="0.5"/>
<path d="M587 478.5C587 474.082 583.418 470.5 579 470.5C574.582 470.5 571 474.082 571 478.5C571 482.918 574.582 486.5 579 486.5C583.418 486.5 587 482.918 587 478.5ZM625 514.5L624.076 515.681L624.483 516H625V514.5ZM665 513H663.571V516H665V513ZM659.762 513H656.905V516H659.762L659.762 513ZM653.095 513H650.238L650.238 516H653.095L653.095 513ZM646.429 513H643.571L643.571 516H646.429V513ZM639.762 513H636.905L636.905 516H639.762V513ZM633.095 513H630.238V516H633.095V513ZM626.429 513H625V516H626.429V513ZM625.924 513.319L624.692 512.354L622.843 514.717L624.076 515.681L625.924 513.319ZM621.407 509.783L618.942 507.854L617.093 510.217L619.558 512.146L621.407 509.783ZM615.657 505.283L613.192 503.354L611.343 505.717L613.808 507.646L615.657 505.283ZM609.907 500.783L607.442 498.854L605.593 501.217L608.058 503.146L609.907 500.783ZM604.157 496.283L601.692 494.354L599.843 496.717L602.308 498.646L604.157 496.283ZM598.407 491.783L595.942 489.854L594.093 492.217L596.558 494.146L598.407 491.783ZM592.657 487.283L590.192 485.354L588.343 487.717L590.808 489.646L592.657 487.283ZM586.907 482.783L584.442 480.854L582.593 483.217L585.058 485.146L586.907 482.783ZM581.157 478.283L579.924 477.319L578.076 479.681L579.308 480.646L581.157 478.283Z" fill="#212529" fill-opacity="0.5"/>
<path d="M140.547 220.112C140.547 221.04 140.227 221.813 139.587 222.432C138.958 223.04 137.993 223.344 136.691 223.344H134.547V228H133.091V216.848H136.691C137.95 216.848 138.905 217.152 139.555 217.76C140.217 218.368 140.547 219.152 140.547 220.112ZM136.691 222.144C137.502 222.144 138.099 221.968 138.483 221.616C138.867 221.264 139.059 220.763 139.059 220.112C139.059 218.736 138.27 218.048 136.691 218.048H134.547V222.144H136.691ZM146.709 219.072C147.37 219.072 147.968 219.216 148.501 219.504C149.034 219.781 149.45 220.203 149.749 220.768C150.058 221.333 150.213 222.021 150.213 222.832V228H148.773V223.04C148.773 222.165 148.554 221.499 148.117 221.04C147.68 220.571 147.082 220.336 146.325 220.336C145.557 220.336 144.944 220.576 144.485 221.056C144.037 221.536 143.813 222.235 143.813 223.152V228H142.357V216.16H143.813V220.48C144.101 220.032 144.496 219.685 144.997 219.44C145.509 219.195 146.08 219.072 146.709 219.072ZM160.143 219.232L154.863 232.128H153.359L155.087 227.904L151.551 219.232H153.167L155.919 226.336L158.639 219.232H160.143ZM164.711 228.144C164.039 228.144 163.436 228.032 162.903 227.808C162.37 227.573 161.948 227.253 161.639 226.848C161.33 226.432 161.159 225.957 161.127 225.424H162.631C162.674 225.861 162.876 226.219 163.239 226.496C163.612 226.773 164.098 226.912 164.695 226.912C165.25 226.912 165.687 226.789 166.007 226.544C166.327 226.299 166.487 225.989 166.487 225.616C166.487 225.232 166.316 224.949 165.975 224.768C165.634 224.576 165.106 224.389 164.391 224.208C163.74 224.037 163.207 223.867 162.791 223.696C162.386 223.515 162.034 223.253 161.735 222.912C161.447 222.56 161.303 222.101 161.303 221.536C161.303 221.088 161.436 220.677 161.703 220.304C161.97 219.931 162.348 219.637 162.839 219.424C163.33 219.2 163.89 219.088 164.519 219.088C165.49 219.088 166.274 219.333 166.871 219.824C167.468 220.315 167.788 220.987 167.831 221.84H166.375C166.343 221.381 166.156 221.013 165.815 220.736C165.484 220.459 165.036 220.32 164.471 220.32C163.948 220.32 163.532 220.432 163.223 220.656C162.914 220.88 162.759 221.173 162.759 221.536C162.759 221.824 162.85 222.064 163.031 222.256C163.223 222.437 163.458 222.587 163.735 222.704C164.023 222.811 164.418 222.933 164.919 223.072C165.548 223.243 166.06 223.413 166.455 223.584C166.85 223.744 167.186 223.989 167.463 224.32C167.751 224.651 167.9 225.083 167.911 225.616C167.911 226.096 167.778 226.528 167.511 226.912C167.244 227.296 166.866 227.6 166.375 227.824C165.895 228.037 165.34 228.144 164.711 228.144ZM170.718 217.808C170.441 217.808 170.206 217.712 170.014 217.52C169.822 217.328 169.726 217.093 169.726 216.816C169.726 216.539 169.822 216.304 170.014 216.112C170.206 215.92 170.441 215.824 170.718 215.824C170.985 215.824 171.209 215.92 171.39 216.112C171.582 216.304 171.678 216.539 171.678 216.816C171.678 217.093 171.582 217.328 171.39 217.52C171.209 217.712 170.985 217.808 170.718 217.808ZM171.422 219.232V228H169.966V219.232H171.422ZM173.36 223.6C173.36 222.693 173.541 221.904 173.904 221.232C174.267 220.549 174.768 220.021 175.408 219.648C176.059 219.275 176.8 219.088 177.632 219.088C178.709 219.088 179.595 219.349 180.288 219.872C180.992 220.395 181.456 221.12 181.68 222.048H180.112C179.963 221.515 179.669 221.093 179.232 220.784C178.805 220.475 178.272 220.32 177.632 220.32C176.8 220.32 176.128 220.608 175.616 221.184C175.104 221.749 174.848 222.555 174.848 223.6C174.848 224.656 175.104 225.472 175.616 226.048C176.128 226.624 176.8 226.912 177.632 226.912C178.272 226.912 178.805 226.763 179.232 226.464C179.659 226.165 179.952 225.739 180.112 225.184H181.68C181.445 226.08 180.976 226.8 180.272 227.344C179.568 227.877 178.688 228.144 177.632 228.144C176.8 228.144 176.059 227.957 175.408 227.584C174.768 227.211 174.267 226.683 173.904 226C173.541 225.317 173.36 224.517 173.36 223.6ZM183.079 223.584C183.079 222.688 183.26 221.904 183.623 221.232C183.985 220.549 184.481 220.021 185.111 219.648C185.751 219.275 186.46 219.088 187.239 219.088C188.007 219.088 188.673 219.253 189.239 219.584C189.804 219.915 190.225 220.331 190.503 220.832V219.232H191.975V228H190.503V226.368C190.215 226.88 189.783 227.307 189.207 227.648C188.641 227.979 187.98 228.144 187.223 228.144C186.444 228.144 185.74 227.952 185.111 227.568C184.481 227.184 183.985 226.645 183.623 225.952C183.26 225.259 183.079 224.469 183.079 223.584ZM190.503 223.6C190.503 222.939 190.369 222.363 190.103 221.872C189.836 221.381 189.473 221.008 189.015 220.752C188.567 220.485 188.071 220.352 187.527 220.352C186.983 220.352 186.487 220.48 186.039 220.736C185.591 220.992 185.233 221.365 184.967 221.856C184.7 222.347 184.567 222.923 184.567 223.584C184.567 224.256 184.7 224.843 184.967 225.344C185.233 225.835 185.591 226.213 186.039 226.48C186.487 226.736 186.983 226.864 187.527 226.864C188.071 226.864 188.567 226.736 189.015 226.48C189.473 226.213 189.836 225.835 190.103 225.344C190.369 224.843 190.503 224.261 190.503 223.6ZM195.891 216.16V228H194.435V216.16H195.891ZM126.752 252.112C126.016 252.112 125.355 251.984 124.768 251.728C124.192 251.461 123.739 251.099 123.408 250.64C123.078 250.171 122.907 249.632 122.896 249.024H124.448C124.502 249.547 124.715 249.989 125.088 250.352C125.472 250.704 126.027 250.88 126.752 250.88C127.446 250.88 127.99 250.709 128.384 250.368C128.79 250.016 128.992 249.568 128.992 249.024C128.992 248.597 128.875 248.251 128.64 247.984C128.406 247.717 128.112 247.515 127.76 247.376C127.408 247.237 126.934 247.088 126.336 246.928C125.6 246.736 125.008 246.544 124.56 246.352C124.123 246.16 123.744 245.861 123.424 245.456C123.115 245.04 122.96 244.485 122.96 243.792C122.96 243.184 123.115 242.645 123.424 242.176C123.734 241.707 124.166 241.344 124.72 241.088C125.286 240.832 125.931 240.704 126.656 240.704C127.702 240.704 128.555 240.965 129.216 241.488C129.888 242.011 130.267 242.704 130.352 243.568H128.752C128.699 243.141 128.475 242.768 128.08 242.448C127.686 242.117 127.163 241.952 126.512 241.952C125.904 241.952 125.408 242.112 125.024 242.432C124.64 242.741 124.448 243.179 124.448 243.744C124.448 244.149 124.56 244.48 124.784 244.736C125.019 244.992 125.302 245.189 125.632 245.328C125.974 245.456 126.448 245.605 127.056 245.776C127.792 245.979 128.384 246.181 128.832 246.384C129.28 246.576 129.664 246.88 129.984 247.296C130.304 247.701 130.464 248.256 130.464 248.96C130.464 249.504 130.32 250.016 130.032 250.496C129.744 250.976 129.318 251.365 128.752 251.664C128.187 251.963 127.52 252.112 126.752 252.112ZM133.359 241.808C133.082 241.808 132.847 241.712 132.655 241.52C132.463 241.328 132.367 241.093 132.367 240.816C132.367 240.539 132.463 240.304 132.655 240.112C132.847 239.92 133.082 239.824 133.359 239.824C133.626 239.824 133.85 239.92 134.031 240.112C134.223 240.304 134.319 240.539 134.319 240.816C134.319 241.093 134.223 241.328 134.031 241.52C133.85 241.712 133.626 241.808 133.359 241.808ZM134.063 243.232V252H132.607V243.232H134.063ZM147.089 243.072C147.771 243.072 148.379 243.216 148.913 243.504C149.446 243.781 149.867 244.203 150.177 244.768C150.486 245.333 150.641 246.021 150.641 246.832V252H149.201V247.04C149.201 246.165 148.982 245.499 148.545 245.04C148.118 244.571 147.537 244.336 146.801 244.336C146.043 244.336 145.441 244.581 144.993 245.072C144.545 245.552 144.321 246.251 144.321 247.168V252H142.881V247.04C142.881 246.165 142.662 245.499 142.225 245.04C141.798 244.571 141.217 244.336 140.481 244.336C139.723 244.336 139.121 244.581 138.673 245.072C138.225 245.552 138.001 246.251 138.001 247.168V252H136.545V243.232H138.001V244.496C138.289 244.037 138.673 243.685 139.153 243.44C139.643 243.195 140.182 243.072 140.769 243.072C141.505 243.072 142.155 243.237 142.721 243.568C143.286 243.899 143.707 244.384 143.985 245.024C144.23 244.405 144.635 243.925 145.201 243.584C145.766 243.243 146.395 243.072 147.089 243.072ZM160.805 243.232V252H159.349V250.704C159.072 251.152 158.682 251.504 158.181 251.76C157.69 252.005 157.146 252.128 156.549 252.128C155.866 252.128 155.253 251.989 154.709 251.712C154.165 251.424 153.733 250.997 153.413 250.432C153.104 249.867 152.949 249.179 152.949 248.368V243.232H154.389V248.176C154.389 249.04 154.608 249.707 155.045 250.176C155.482 250.635 156.08 250.864 156.837 250.864C157.616 250.864 158.229 250.624 158.677 250.144C159.125 249.664 159.349 248.965 159.349 248.048V243.232H160.805ZM164.719 240.16V252H163.263V240.16H164.719ZM166.657 247.584C166.657 246.688 166.838 245.904 167.201 245.232C167.563 244.549 168.059 244.021 168.689 243.648C169.329 243.275 170.038 243.088 170.817 243.088C171.585 243.088 172.251 243.253 172.817 243.584C173.382 243.915 173.803 244.331 174.081 244.832V243.232H175.553V252H174.081V250.368C173.793 250.88 173.361 251.307 172.785 251.648C172.219 251.979 171.558 252.144 170.801 252.144C170.022 252.144 169.318 251.952 168.689 251.568C168.059 251.184 167.563 250.645 167.201 249.952C166.838 249.259 166.657 248.469 166.657 247.584ZM174.081 247.6C174.081 246.939 173.947 246.363 173.681 245.872C173.414 245.381 173.051 245.008 172.593 244.752C172.145 244.485 171.649 244.352 171.105 244.352C170.561 244.352 170.065 244.48 169.617 244.736C169.169 244.992 168.811 245.365 168.545 245.856C168.278 246.347 168.145 246.923 168.145 247.584C168.145 248.256 168.278 248.843 168.545 249.344C168.811 249.835 169.169 250.213 169.617 250.48C170.065 250.736 170.561 250.864 171.105 250.864C171.649 250.864 172.145 250.736 172.593 250.48C173.051 250.213 173.414 249.835 173.681 249.344C173.947 248.843 174.081 248.261 174.081 247.6ZM179.789 244.432V249.6C179.789 250.027 179.88 250.331 180.061 250.512C180.243 250.683 180.557 250.768 181.005 250.768H182.077V252H180.765C179.955 252 179.347 251.813 178.941 251.44C178.536 251.067 178.333 250.453 178.333 249.6V244.432H177.197V243.232H178.333V241.024H179.789V243.232H182.077V244.432H179.789ZM184.593 241.808C184.316 241.808 184.081 241.712 183.889 241.52C183.697 241.328 183.601 241.093 183.601 240.816C183.601 240.539 183.697 240.304 183.889 240.112C184.081 239.92 184.316 239.824 184.593 239.824C184.86 239.824 185.084 239.92 185.265 240.112C185.457 240.304 185.553 240.539 185.553 240.816C185.553 241.093 185.457 241.328 185.265 241.52C185.084 241.712 184.86 241.808 184.593 241.808ZM185.297 243.232V252H183.841V243.232H185.297ZM191.603 252.144C190.782 252.144 190.035 251.957 189.363 251.584C188.702 251.211 188.179 250.683 187.795 250C187.422 249.307 187.235 248.507 187.235 247.6C187.235 246.704 187.427 245.915 187.811 245.232C188.206 244.539 188.739 244.011 189.411 243.648C190.083 243.275 190.835 243.088 191.667 243.088C192.499 243.088 193.251 243.275 193.923 243.648C194.595 244.011 195.123 244.533 195.507 245.216C195.902 245.899 196.099 246.693 196.099 247.6C196.099 248.507 195.896 249.307 195.491 250C195.096 250.683 194.558 251.211 193.875 251.584C193.192 251.957 192.435 252.144 191.603 252.144ZM191.603 250.864C192.126 250.864 192.616 250.741 193.075 250.496C193.534 250.251 193.902 249.883 194.179 249.392C194.467 248.901 194.611 248.304 194.611 247.6C194.611 246.896 194.472 246.299 194.195 245.808C193.918 245.317 193.555 244.955 193.107 244.72C192.659 244.475 192.174 244.352 191.651 244.352C191.118 244.352 190.627 244.475 190.179 244.72C189.742 244.955 189.39 245.317 189.123 245.808C188.856 246.299 188.723 246.896 188.723 247.6C188.723 248.315 188.851 248.917 189.107 249.408C189.374 249.899 189.726 250.267 190.163 250.512C190.6 250.747 191.08 250.864 191.603 250.864ZM202.285 243.072C203.352 243.072 204.216 243.397 204.877 244.048C205.539 244.688 205.869 245.616 205.869 246.832V252H204.429V247.04C204.429 246.165 204.211 245.499 203.773 245.04C203.336 244.571 202.739 244.336 201.981 244.336C201.213 244.336 200.6 244.576 200.141 245.056C199.693 245.536 199.469 246.235 199.469 247.152V252H198.013V243.232H199.469V244.48C199.757 244.032 200.147 243.685 200.637 243.44C201.139 243.195 201.688 243.072 202.285 243.072Z" fill="#212529" fill-opacity="0.85"/>
<path d="M692.649 174.848C693.865 174.848 694.916 175.077 695.801 175.536C696.697 175.984 697.38 176.629 697.849 177.472C698.329 178.315 698.569 179.307 698.569 180.448C698.569 181.589 698.329 182.581 697.849 183.424C697.38 184.256 696.697 184.896 695.801 185.344C694.916 185.781 693.865 186 692.649 186H689.177V174.848H692.649ZM692.649 184.8C694.089 184.8 695.188 184.421 695.945 183.664C696.703 182.896 697.081 181.824 697.081 180.448C697.081 179.061 696.697 177.979 695.929 177.2C695.172 176.421 694.079 176.032 692.649 176.032H690.633V184.8H692.649ZM699.946 181.584C699.946 180.688 700.127 179.904 700.49 179.232C700.852 178.549 701.348 178.021 701.978 177.648C702.618 177.275 703.327 177.088 704.106 177.088C704.874 177.088 705.54 177.253 706.106 177.584C706.671 177.915 707.092 178.331 707.37 178.832V177.232H708.842V186H707.37V184.368C707.082 184.88 706.65 185.307 706.074 185.648C705.508 185.979 704.847 186.144 704.09 186.144C703.311 186.144 702.607 185.952 701.978 185.568C701.348 185.184 700.852 184.645 700.49 183.952C700.127 183.259 699.946 182.469 699.946 181.584ZM707.37 181.6C707.37 180.939 707.236 180.363 706.97 179.872C706.703 179.381 706.34 179.008 705.882 178.752C705.434 178.485 704.938 178.352 704.394 178.352C703.85 178.352 703.354 178.48 702.906 178.736C702.458 178.992 702.1 179.365 701.834 179.856C701.567 180.347 701.434 180.923 701.434 181.584C701.434 182.256 701.567 182.843 701.834 183.344C702.1 183.835 702.458 184.213 702.906 184.48C703.354 184.736 703.85 184.864 704.394 184.864C704.938 184.864 705.434 184.736 705.882 184.48C706.34 184.213 706.703 183.835 706.97 183.344C707.236 182.843 707.37 182.261 707.37 181.6ZM713.078 178.432V183.6C713.078 184.027 713.169 184.331 713.35 184.512C713.532 184.683 713.846 184.768 714.294 184.768H715.366V186H714.054C713.244 186 712.636 185.813 712.23 185.44C711.825 185.067 711.622 184.453 711.622 183.6V178.432H710.486V177.232H711.622V175.024H713.078V177.232H715.366V178.432H713.078ZM716.586 181.584C716.586 180.688 716.768 179.904 717.13 179.232C717.493 178.549 717.989 178.021 718.618 177.648C719.258 177.275 719.968 177.088 720.746 177.088C721.514 177.088 722.181 177.253 722.746 177.584C723.312 177.915 723.733 178.331 724.01 178.832V177.232H725.482V186H724.01V184.368C723.722 184.88 723.29 185.307 722.714 185.648C722.149 185.979 721.488 186.144 720.73 186.144C719.952 186.144 719.248 185.952 718.618 185.568C717.989 185.184 717.493 184.645 717.13 183.952C716.768 183.259 716.586 182.469 716.586 181.584ZM724.01 181.6C724.01 180.939 723.877 180.363 723.61 179.872C723.344 179.381 722.981 179.008 722.522 178.752C722.074 178.485 721.578 178.352 721.034 178.352C720.49 178.352 719.994 178.48 719.546 178.736C719.098 178.992 718.741 179.365 718.474 179.856C718.208 180.347 718.074 180.923 718.074 181.584C718.074 182.256 718.208 182.843 718.474 183.344C718.741 183.835 719.098 184.213 719.546 184.48C719.994 184.736 720.49 184.864 721.034 184.864C721.578 184.864 722.074 184.736 722.522 184.48C722.981 184.213 723.344 183.835 723.61 183.344C723.877 182.843 724.01 182.261 724.01 181.6ZM739.665 178.112C739.665 179.04 739.345 179.813 738.705 180.432C738.075 181.04 737.11 181.344 735.809 181.344H733.665V186H732.209V174.848H735.809C737.067 174.848 738.022 175.152 738.673 175.76C739.334 176.368 739.665 177.152 739.665 178.112ZM735.809 180.144C736.619 180.144 737.217 179.968 737.601 179.616C737.985 179.264 738.177 178.763 738.177 178.112C738.177 176.736 737.387 176.048 735.809 176.048H733.665V180.144H735.809ZM742.93 178.656C743.186 178.155 743.549 177.765 744.018 177.488C744.498 177.211 745.08 177.072 745.762 177.072V178.576H745.378C743.746 178.576 742.93 179.461 742.93 181.232V186H741.474V177.232H742.93V178.656ZM751.267 186.144C750.446 186.144 749.699 185.957 749.027 185.584C748.366 185.211 747.843 184.683 747.459 184C747.086 183.307 746.899 182.507 746.899 181.6C746.899 180.704 747.091 179.915 747.475 179.232C747.87 178.539 748.403 178.011 749.075 177.648C749.747 177.275 750.499 177.088 751.331 177.088C752.163 177.088 752.915 177.275 753.587 177.648C754.259 178.011 754.787 178.533 755.171 179.216C755.566 179.899 755.763 180.693 755.763 181.6C755.763 182.507 755.56 183.307 755.155 184C754.76 184.683 754.222 185.211 753.539 185.584C752.856 185.957 752.099 186.144 751.267 186.144ZM751.267 184.864C751.79 184.864 752.28 184.741 752.739 184.496C753.198 184.251 753.566 183.883 753.843 183.392C754.131 182.901 754.275 182.304 754.275 181.6C754.275 180.896 754.136 180.299 753.859 179.808C753.582 179.317 753.219 178.955 752.771 178.72C752.323 178.475 751.838 178.352 751.315 178.352C750.782 178.352 750.291 178.475 749.843 178.72C749.406 178.955 749.054 179.317 748.787 179.808C748.52 180.299 748.387 180.896 748.387 181.6C748.387 182.315 748.515 182.917 748.771 183.408C749.038 183.899 749.39 184.267 749.827 184.512C750.264 184.747 750.744 184.864 751.267 184.864ZM757.133 181.6C757.133 180.693 757.315 179.904 757.677 179.232C758.04 178.549 758.541 178.021 759.181 177.648C759.832 177.275 760.573 177.088 761.405 177.088C762.483 177.088 763.368 177.349 764.061 177.872C764.765 178.395 765.229 179.12 765.453 180.048H763.885C763.736 179.515 763.443 179.093 763.005 178.784C762.579 178.475 762.045 178.32 761.405 178.32C760.573 178.32 759.901 178.608 759.389 179.184C758.877 179.749 758.621 180.555 758.621 181.6C758.621 182.656 758.877 183.472 759.389 184.048C759.901 184.624 760.573 184.912 761.405 184.912C762.045 184.912 762.579 184.763 763.005 184.464C763.432 184.165 763.725 183.739 763.885 183.184H765.453C765.219 184.08 764.749 184.8 764.045 185.344C763.341 185.877 762.461 186.144 761.405 186.144C760.573 186.144 759.832 185.957 759.181 185.584C758.541 185.211 758.04 184.683 757.677 184C757.315 183.317 757.133 182.517 757.133 181.6ZM775.396 181.28C775.396 181.557 775.38 181.851 775.348 182.16H768.34C768.393 183.024 768.687 183.701 769.22 184.192C769.764 184.672 770.42 184.912 771.188 184.912C771.817 184.912 772.34 184.768 772.756 184.48C773.183 184.181 773.481 183.787 773.652 183.296H775.22C774.985 184.139 774.516 184.827 773.812 185.36C773.108 185.883 772.233 186.144 771.188 186.144C770.356 186.144 769.609 185.957 768.948 185.584C768.297 185.211 767.785 184.683 767.412 184C767.039 183.307 766.852 182.507 766.852 181.6C766.852 180.693 767.033 179.899 767.396 179.216C767.759 178.533 768.265 178.011 768.916 177.648C769.577 177.275 770.335 177.088 771.188 177.088C772.02 177.088 772.756 177.269 773.396 177.632C774.036 177.995 774.527 178.496 774.868 179.136C775.22 179.765 775.396 180.48 775.396 181.28ZM773.892 180.976C773.892 180.421 773.769 179.947 773.524 179.552C773.279 179.147 772.943 178.843 772.516 178.64C772.1 178.427 771.636 178.32 771.124 178.32C770.388 178.32 769.759 178.555 769.236 179.024C768.724 179.493 768.431 180.144 768.356 180.976H773.892ZM780.422 186.144C779.75 186.144 779.147 186.032 778.614 185.808C778.081 185.573 777.659 185.253 777.35 184.848C777.041 184.432 776.87 183.957 776.838 183.424H778.342C778.385 183.861 778.587 184.219 778.95 184.496C779.323 184.773 779.809 184.912 780.406 184.912C780.961 184.912 781.398 184.789 781.718 184.544C782.038 184.299 782.198 183.989 782.198 183.616C782.198 183.232 782.027 182.949 781.686 182.768C781.345 182.576 780.817 182.389 780.102 182.208C779.451 182.037 778.918 181.867 778.502 181.696C778.097 181.515 777.745 181.253 777.446 180.912C777.158 180.56 777.014 180.101 777.014 179.536C777.014 179.088 777.147 178.677 777.414 178.304C777.681 177.931 778.059 177.637 778.55 177.424C779.041 177.2 779.601 177.088 780.23 177.088C781.201 177.088 781.985 177.333 782.582 177.824C783.179 178.315 783.499 178.987 783.542 179.84H782.086C782.054 179.381 781.867 179.013 781.526 178.736C781.195 178.459 780.747 178.32 780.182 178.32C779.659 178.32 779.243 178.432 778.934 178.656C778.625 178.88 778.47 179.173 778.47 179.536C778.47 179.824 778.561 180.064 778.742 180.256C778.934 180.437 779.169 180.587 779.446 180.704C779.734 180.811 780.129 180.933 780.63 181.072C781.259 181.243 781.771 181.413 782.166 181.584C782.561 181.744 782.897 181.989 783.174 182.32C783.462 182.651 783.611 183.083 783.622 183.616C783.622 184.096 783.489 184.528 783.222 184.912C782.955 185.296 782.577 185.6 782.086 185.824C781.606 186.037 781.051 186.144 780.422 186.144ZM788.781 186.144C788.109 186.144 787.507 186.032 786.973 185.808C786.44 185.573 786.019 185.253 785.709 184.848C785.4 184.432 785.229 183.957 785.197 183.424H786.701C786.744 183.861 786.947 184.219 787.309 184.496C787.683 184.773 788.168 184.912 788.765 184.912C789.32 184.912 789.757 184.789 790.077 184.544C790.397 184.299 790.557 183.989 790.557 183.616C790.557 183.232 790.387 182.949 790.045 182.768C789.704 182.576 789.176 182.389 788.461 182.208C787.811 182.037 787.277 181.867 786.861 181.696C786.456 181.515 786.104 181.253 785.805 180.912C785.517 180.56 785.373 180.101 785.373 179.536C785.373 179.088 785.507 178.677 785.773 178.304C786.04 177.931 786.419 177.637 786.909 177.424C787.4 177.2 787.96 177.088 788.589 177.088C789.56 177.088 790.344 177.333 790.941 177.824C791.539 178.315 791.859 178.987 791.901 179.84H790.445C790.413 179.381 790.227 179.013 789.885 178.736C789.555 178.459 789.107 178.32 788.541 178.32C788.019 178.32 787.603 178.432 787.293 178.656C786.984 178.88 786.829 179.173 786.829 179.536C786.829 179.824 786.92 180.064 787.101 180.256C787.293 180.437 787.528 180.587 787.805 180.704C788.093 180.811 788.488 180.933 788.989 181.072C789.619 181.243 790.131 181.413 790.525 181.584C790.92 181.744 791.256 181.989 791.533 182.32C791.821 182.651 791.971 183.083 791.981 183.616C791.981 184.096 791.848 184.528 791.581 184.912C791.315 185.296 790.936 185.6 790.445 185.824C789.965 186.037 789.411 186.144 788.781 186.144ZM794.789 175.808C794.511 175.808 794.277 175.712 794.085 175.52C793.893 175.328 793.797 175.093 793.797 174.816C793.797 174.539 793.893 174.304 794.085 174.112C794.277 173.92 794.511 173.824 794.789 173.824C795.055 173.824 795.279 173.92 795.461 174.112C795.653 174.304 795.749 174.539 795.749 174.816C795.749 175.093 795.653 175.328 795.461 175.52C795.279 175.712 795.055 175.808 794.789 175.808ZM795.493 177.232V186H794.037V177.232H795.493ZM802.246 177.072C803.313 177.072 804.177 177.397 804.838 178.048C805.5 178.688 805.83 179.616 805.83 180.832V186H804.39V181.04C804.39 180.165 804.172 179.499 803.734 179.04C803.297 178.571 802.7 178.336 801.942 178.336C801.174 178.336 800.561 178.576 800.102 179.056C799.654 179.536 799.43 180.235 799.43 181.152V186H797.974V177.232H799.43V178.48C799.718 178.032 800.108 177.685 800.598 177.44C801.1 177.195 801.649 177.072 802.246 177.072ZM811.825 177.088C812.582 177.088 813.243 177.253 813.809 177.584C814.385 177.915 814.811 178.331 815.089 178.832V177.232H816.561V186.192C816.561 186.992 816.39 187.701 816.049 188.32C815.707 188.949 815.217 189.44 814.577 189.792C813.947 190.144 813.211 190.32 812.369 190.32C811.217 190.32 810.257 190.048 809.489 189.504C808.721 188.96 808.267 188.219 808.129 187.28H809.569C809.729 187.813 810.059 188.24 810.561 188.56C811.062 188.891 811.665 189.056 812.369 189.056C813.169 189.056 813.819 188.805 814.321 188.304C814.833 187.803 815.089 187.099 815.089 186.192V184.352C814.801 184.864 814.374 185.291 813.809 185.632C813.243 185.973 812.582 186.144 811.825 186.144C811.046 186.144 810.337 185.952 809.697 185.568C809.067 185.184 808.571 184.645 808.209 183.952C807.846 183.259 807.665 182.469 807.665 181.584C807.665 180.688 807.846 179.904 808.209 179.232C808.571 178.549 809.067 178.021 809.697 177.648C810.337 177.275 811.046 177.088 811.825 177.088ZM815.089 181.6C815.089 180.939 814.955 180.363 814.689 179.872C814.422 179.381 814.059 179.008 813.601 178.752C813.153 178.485 812.657 178.352 812.113 178.352C811.569 178.352 811.073 178.48 810.625 178.736C810.177 178.992 809.819 179.365 809.553 179.856C809.286 180.347 809.153 180.923 809.153 181.584C809.153 182.256 809.286 182.843 809.553 183.344C809.819 183.835 810.177 184.213 810.625 184.48C811.073 184.736 811.569 184.864 812.113 184.864C812.657 184.864 813.153 184.736 813.601 184.48C814.059 184.213 814.422 183.835 814.689 183.344C814.955 182.843 815.089 182.261 815.089 181.6ZM732.704 202.112C732.704 203.04 732.384 203.813 731.744 204.432C731.114 205.04 730.149 205.344 728.848 205.344H726.704V210H725.248V198.848H728.848C730.106 198.848 731.061 199.152 731.712 199.76C732.373 200.368 732.704 201.152 732.704 202.112ZM728.848 204.144C729.658 204.144 730.256 203.968 730.64 203.616C731.024 203.264 731.216 202.763 731.216 202.112C731.216 200.736 730.426 200.048 728.848 200.048H726.704V204.144H728.848ZM735.265 199.808C734.988 199.808 734.753 199.712 734.561 199.52C734.369 199.328 734.273 199.093 734.273 198.816C734.273 198.539 734.369 198.304 734.561 198.112C734.753 197.92 734.988 197.824 735.265 197.824C735.532 197.824 735.756 197.92 735.937 198.112C736.129 198.304 736.225 198.539 736.225 198.816C736.225 199.093 736.129 199.328 735.937 199.52C735.756 199.712 735.532 199.808 735.265 199.808ZM735.969 201.232V210H734.513V201.232H735.969ZM739.907 202.848C740.195 202.347 740.621 201.931 741.187 201.6C741.763 201.259 742.429 201.088 743.187 201.088C743.965 201.088 744.669 201.275 745.299 201.648C745.939 202.021 746.44 202.549 746.803 203.232C747.165 203.904 747.347 204.688 747.347 205.584C747.347 206.469 747.165 207.259 746.803 207.952C746.44 208.645 745.939 209.184 745.299 209.568C744.669 209.952 743.965 210.144 743.187 210.144C742.44 210.144 741.779 209.979 741.203 209.648C740.637 209.307 740.205 208.885 739.907 208.384V214.16H738.451V201.232H739.907V202.848ZM745.859 205.584C745.859 204.923 745.725 204.347 745.459 203.856C745.192 203.365 744.829 202.992 744.371 202.736C743.923 202.48 743.427 202.352 742.883 202.352C742.349 202.352 741.853 202.485 741.395 202.752C740.947 203.008 740.584 203.387 740.307 203.888C740.04 204.379 739.907 204.949 739.907 205.6C739.907 206.261 740.04 206.843 740.307 207.344C740.584 207.835 740.947 208.213 741.395 208.48C741.853 208.736 742.349 208.864 742.883 208.864C743.427 208.864 743.923 208.736 744.371 208.48C744.829 208.213 745.192 207.835 745.459 207.344C745.725 206.843 745.859 206.256 745.859 205.584ZM757.263 205.28C757.263 205.557 757.247 205.851 757.215 206.16H750.207C750.261 207.024 750.554 207.701 751.087 208.192C751.631 208.672 752.287 208.912 753.055 208.912C753.685 208.912 754.207 208.768 754.623 208.48C755.05 208.181 755.349 207.787 755.519 207.296H757.087C756.853 208.139 756.383 208.827 755.679 209.36C754.975 209.883 754.101 210.144 753.055 210.144C752.223 210.144 751.477 209.957 750.815 209.584C750.165 209.211 749.653 208.683 749.279 208C748.906 207.307 748.719 206.507 748.719 205.6C748.719 204.693 748.901 203.899 749.263 203.216C749.626 202.533 750.133 202.011 750.783 201.648C751.445 201.275 752.202 201.088 753.055 201.088C753.887 201.088 754.623 201.269 755.263 201.632C755.903 201.995 756.394 202.496 756.735 203.136C757.087 203.765 757.263 204.48 757.263 205.28ZM755.759 204.976C755.759 204.421 755.637 203.947 755.391 203.552C755.146 203.147 754.81 202.843 754.383 202.64C753.967 202.427 753.503 202.32 752.991 202.32C752.255 202.32 751.626 202.555 751.103 203.024C750.591 203.493 750.298 204.144 750.223 204.976H755.759ZM760.641 198.16V210H759.185V198.16H760.641ZM763.875 199.808C763.597 199.808 763.363 199.712 763.171 199.52C762.979 199.328 762.883 199.093 762.883 198.816C762.883 198.539 762.979 198.304 763.171 198.112C763.363 197.92 763.597 197.824 763.875 197.824C764.141 197.824 764.365 197.92 764.547 198.112C764.739 198.304 764.835 198.539 764.835 198.816C764.835 199.093 764.739 199.328 764.547 199.52C764.365 199.712 764.141 199.808 763.875 199.808ZM764.579 201.232V210H763.123V201.232H764.579ZM771.332 201.072C772.399 201.072 773.263 201.397 773.924 202.048C774.585 202.688 774.916 203.616 774.916 204.832V210H773.476V205.04C773.476 204.165 773.257 203.499 772.82 203.04C772.383 202.571 771.785 202.336 771.028 202.336C770.26 202.336 769.647 202.576 769.188 203.056C768.74 203.536 768.516 204.235 768.516 205.152V210H767.06V201.232H768.516V202.48C768.804 202.032 769.193 201.685 769.684 201.44C770.185 201.195 770.735 201.072 771.332 201.072ZM785.295 205.28C785.295 205.557 785.279 205.851 785.247 206.16H778.239C778.292 207.024 778.585 207.701 779.119 208.192C779.663 208.672 780.319 208.912 781.087 208.912C781.716 208.912 782.239 208.768 782.655 208.48C783.081 208.181 783.38 207.787 783.551 207.296H785.119C784.884 208.139 784.415 208.827 783.711 209.36C783.007 209.883 782.132 210.144 781.087 210.144C780.255 210.144 779.508 209.957 778.847 209.584C778.196 209.211 777.684 208.683 777.311 208C776.937 207.307 776.751 206.507 776.751 205.6C776.751 204.693 776.932 203.899 777.295 203.216C777.657 202.533 778.164 202.011 778.815 201.648C779.476 201.275 780.233 201.088 781.087 201.088C781.919 201.088 782.655 201.269 783.295 201.632C783.935 201.995 784.425 202.496 784.767 203.136C785.119 203.765 785.295 204.48 785.295 205.28ZM783.791 204.976C783.791 204.421 783.668 203.947 783.423 203.552C783.177 203.147 782.841 202.843 782.415 202.64C781.999 202.427 781.535 202.32 781.023 202.32C780.287 202.32 779.657 202.555 779.135 203.024C778.623 203.493 778.329 204.144 778.255 204.976H783.791Z" fill="#212529" fill-opacity="0.85"/>
<path d="M66.2431 385.848C67.4591 385.848 68.5097 386.077 69.3951 386.536C70.2911 386.984 70.9737 387.629 71.4431 388.472C71.9231 389.315 72.1631 390.307 72.1631 391.448C72.1631 392.589 71.9231 393.581 71.4431 394.424C70.9737 395.256 70.2911 395.896 69.3951 396.344C68.5097 396.781 67.4591 397 66.2431 397H62.7711V385.848H66.2431ZM66.2431 395.8C67.6831 395.8 68.7817 395.421 69.5391 394.664C70.2964 393.896 70.6751 392.824 70.6751 391.448C70.6751 390.061 70.2911 388.979 69.5231 388.2C68.7657 387.421 67.6724 387.032 66.2431 387.032H64.2271V395.8H66.2431ZM73.5396 392.584C73.5396 391.688 73.7209 390.904 74.0836 390.232C74.4462 389.549 74.9422 389.021 75.5716 388.648C76.2116 388.275 76.9209 388.088 77.6996 388.088C78.4676 388.088 79.1342 388.253 79.6996 388.584C80.2649 388.915 80.6862 389.331 80.9636 389.832V388.232H82.4356V397H80.9636V395.368C80.6756 395.88 80.2436 396.307 79.6676 396.648C79.1022 396.979 78.4409 397.144 77.6836 397.144C76.9049 397.144 76.2009 396.952 75.5716 396.568C74.9422 396.184 74.4462 395.645 74.0836 394.952C73.7209 394.259 73.5396 393.469 73.5396 392.584ZM80.9636 392.6C80.9636 391.939 80.8302 391.363 80.5636 390.872C80.2969 390.381 79.9342 390.008 79.4756 389.752C79.0276 389.485 78.5316 389.352 77.9876 389.352C77.4436 389.352 76.9476 389.48 76.4996 389.736C76.0516 389.992 75.6942 390.365 75.4276 390.856C75.1609 391.347 75.0276 391.923 75.0276 392.584C75.0276 393.256 75.1609 393.843 75.4276 394.344C75.6942 394.835 76.0516 395.213 76.4996 395.48C76.9476 395.736 77.4436 395.864 77.9876 395.864C78.5316 395.864 79.0276 395.736 79.4756 395.48C79.9342 395.213 80.2969 394.835 80.5636 394.344C80.8302 393.843 80.9636 393.261 80.9636 392.6ZM86.6721 389.432V394.6C86.6721 395.027 86.7627 395.331 86.9441 395.512C87.1254 395.683 87.4401 395.768 87.8881 395.768H88.9601V397H87.6481C86.8374 397 86.2294 396.813 85.8241 396.44C85.4187 396.067 85.2161 395.453 85.2161 394.6V389.432H84.0801V388.232H85.2161V386.024H86.6721V388.232H88.9601V389.432H86.6721ZM90.1802 392.584C90.1802 391.688 90.3615 390.904 90.7242 390.232C91.0869 389.549 91.5829 389.021 92.2122 388.648C92.8522 388.275 93.5615 388.088 94.3402 388.088C95.1082 388.088 95.7749 388.253 96.3402 388.584C96.9055 388.915 97.3269 389.331 97.6042 389.832V388.232H99.0762V397H97.6042V395.368C97.3162 395.88 96.8842 396.307 96.3082 396.648C95.7429 396.979 95.0815 397.144 94.3242 397.144C93.5455 397.144 92.8415 396.952 92.2122 396.568C91.5829 396.184 91.0869 395.645 90.7242 394.952C90.3615 394.259 90.1802 393.469 90.1802 392.584ZM97.6042 392.6C97.6042 391.939 97.4709 391.363 97.2042 390.872C96.9375 390.381 96.5749 390.008 96.1162 389.752C95.6682 389.485 95.1722 389.352 94.6282 389.352C94.0842 389.352 93.5882 389.48 93.1402 389.736C92.6922 389.992 92.3349 390.365 92.0682 390.856C91.8015 391.347 91.6682 391.923 91.6682 392.584C91.6682 393.256 91.8015 393.843 92.0682 394.344C92.3349 394.835 92.6922 395.213 93.1402 395.48C93.5882 395.736 94.0842 395.864 94.6282 395.864C95.1722 395.864 95.6682 395.736 96.1162 395.48C96.5749 395.213 96.9375 394.835 97.2042 394.344C97.4709 393.843 97.6042 393.261 97.6042 392.6ZM107.617 390.52V391.752H101.233V390.52H107.617ZM113.821 385.848C115.037 385.848 116.088 386.077 116.973 386.536C117.869 386.984 118.552 387.629 119.021 388.472C119.501 389.315 119.741 390.307 119.741 391.448C119.741 392.589 119.501 393.581 119.021 394.424C118.552 395.256 117.869 395.896 116.973 396.344C116.088 396.781 115.037 397 113.821 397H110.349V385.848H113.821ZM113.821 395.8C115.261 395.8 116.36 395.421 117.117 394.664C117.875 393.896 118.253 392.824 118.253 391.448C118.253 390.061 117.869 388.979 117.101 388.2C116.344 387.421 115.251 387.032 113.821 387.032H111.805V395.8H113.821ZM123.118 389.656C123.374 389.155 123.736 388.765 124.206 388.488C124.686 388.211 125.267 388.072 125.95 388.072V389.576H125.566C123.934 389.576 123.118 390.461 123.118 392.232V397H121.662V388.232H123.118V389.656ZM128.382 386.808C128.105 386.808 127.87 386.712 127.678 386.52C127.486 386.328 127.39 386.093 127.39 385.816C127.39 385.539 127.486 385.304 127.678 385.112C127.87 384.92 128.105 384.824 128.382 384.824C128.649 384.824 128.873 384.92 129.054 385.112C129.246 385.304 129.342 385.539 129.342 385.816C129.342 386.093 129.246 386.328 129.054 386.52C128.873 386.712 128.649 386.808 128.382 386.808ZM129.086 388.232V397H127.63V388.232H129.086ZM134.832 395.656L137.552 388.232H139.104L135.664 397H133.968L130.528 388.232H132.096L134.832 395.656ZM148.537 392.28C148.537 392.557 148.521 392.851 148.489 393.16H141.481C141.534 394.024 141.827 394.701 142.361 395.192C142.905 395.672 143.561 395.912 144.329 395.912C144.958 395.912 145.481 395.768 145.897 395.48C146.323 395.181 146.622 394.787 146.793 394.296H148.361C148.126 395.139 147.657 395.827 146.953 396.36C146.249 396.883 145.374 397.144 144.329 397.144C143.497 397.144 142.75 396.957 142.089 396.584C141.438 396.211 140.926 395.683 140.553 395C140.179 394.307 139.993 393.507 139.993 392.6C139.993 391.693 140.174 390.899 140.537 390.216C140.899 389.533 141.406 389.011 142.057 388.648C142.718 388.275 143.475 388.088 144.329 388.088C145.161 388.088 145.897 388.269 146.537 388.632C147.177 388.995 147.667 389.496 148.009 390.136C148.361 390.765 148.537 391.48 148.537 392.28ZM147.033 391.976C147.033 391.421 146.91 390.947 146.665 390.552C146.419 390.147 146.083 389.843 145.657 389.64C145.241 389.427 144.777 389.32 144.265 389.32C143.529 389.32 142.899 389.555 142.377 390.024C141.865 390.493 141.571 391.144 141.497 391.976H147.033ZM154.731 388.072C155.797 388.072 156.661 388.397 157.323 389.048C157.984 389.688 158.315 390.616 158.315 391.832V397H156.875V392.04C156.875 391.165 156.656 390.499 156.219 390.04C155.781 389.571 155.184 389.336 154.427 389.336C153.659 389.336 153.045 389.576 152.587 390.056C152.139 390.536 151.915 391.235 151.915 392.152V397H150.459V388.232H151.915V389.48C152.203 389.032 152.592 388.685 153.083 388.44C153.584 388.195 154.133 388.072 154.731 388.072ZM78.413 421.112C77.3783 421.112 76.4343 420.872 75.581 420.392C74.7277 419.901 74.0503 419.224 73.549 418.36C73.0583 417.485 72.813 416.504 72.813 415.416C72.813 414.328 73.0583 413.352 73.549 412.488C74.0503 411.613 74.7277 410.936 75.581 410.456C76.4343 409.965 77.3783 409.72 78.413 409.72C79.4583 409.72 80.4077 409.965 81.261 410.456C82.1143 410.936 82.7863 411.608 83.277 412.472C83.7677 413.336 84.013 414.317 84.013 415.416C84.013 416.515 83.7677 417.496 83.277 418.36C82.7863 419.224 82.1143 419.901 81.261 420.392C80.4077 420.872 79.4583 421.112 78.413 421.112ZM78.413 419.848C79.1917 419.848 79.8903 419.667 80.509 419.304C81.1383 418.941 81.629 418.424 81.981 417.752C82.3437 417.08 82.525 416.301 82.525 415.416C82.525 414.52 82.3437 413.741 81.981 413.08C81.629 412.408 81.1437 411.891 80.525 411.528C79.9063 411.165 79.2023 410.984 78.413 410.984C77.6237 410.984 76.9197 411.165 76.301 411.528C75.6823 411.891 75.1917 412.408 74.829 413.08C74.477 413.741 74.301 414.52 74.301 415.416C74.301 416.301 74.477 417.08 74.829 417.752C75.1917 418.424 75.6823 418.941 76.301 419.304C76.9303 419.667 77.6343 419.848 78.413 419.848ZM87.3911 413.848C87.6791 413.347 88.1058 412.931 88.6711 412.6C89.2471 412.259 89.9138 412.088 90.6711 412.088C91.4498 412.088 92.1538 412.275 92.7831 412.648C93.4231 413.021 93.9245 413.549 94.2871 414.232C94.6498 414.904 94.8311 415.688 94.8311 416.584C94.8311 417.469 94.6498 418.259 94.2871 418.952C93.9245 419.645 93.4231 420.184 92.7831 420.568C92.1538 420.952 91.4498 421.144 90.6711 421.144C89.9245 421.144 89.2631 420.979 88.6871 420.648C88.1218 420.307 87.6898 419.885 87.3911 419.384V425.16H85.9351V412.232H87.3911V413.848ZM93.3431 416.584C93.3431 415.923 93.2098 415.347 92.9431 414.856C92.6765 414.365 92.3138 413.992 91.8551 413.736C91.4071 413.48 90.9111 413.352 90.3671 413.352C89.8338 413.352 89.3378 413.485 88.8791 413.752C88.4311 414.008 88.0685 414.387 87.7911 414.888C87.5245 415.379 87.3911 415.949 87.3911 416.6C87.3911 417.261 87.5245 417.843 87.7911 418.344C88.0685 418.835 88.4311 419.213 88.8791 419.48C89.3378 419.736 89.8338 419.864 90.3671 419.864C90.9111 419.864 91.4071 419.736 91.8551 419.48C92.3138 419.213 92.6765 418.835 92.9431 418.344C93.2098 417.843 93.3431 417.256 93.3431 416.584ZM98.5236 413.432V418.6C98.5236 419.027 98.6143 419.331 98.7956 419.512C98.977 419.683 99.2916 419.768 99.7396 419.768H100.812V421H99.4996C98.689 421 98.081 420.813 97.6756 420.44C97.2703 420.067 97.0676 419.453 97.0676 418.6V413.432H95.9316V412.232H97.0676V410.024H98.5236V412.232H100.812V413.432H98.5236ZM103.328 410.808C103.05 410.808 102.816 410.712 102.624 410.52C102.432 410.328 102.336 410.093 102.336 409.816C102.336 409.539 102.432 409.304 102.624 409.112C102.816 408.92 103.05 408.824 103.328 408.824C103.594 408.824 103.818 408.92 104 409.112C104.192 409.304 104.288 409.539 104.288 409.816C104.288 410.093 104.192 410.328 104 410.52C103.818 410.712 103.594 410.808 103.328 410.808ZM104.032 412.232V421H102.576V412.232H104.032ZM117.057 412.072C117.74 412.072 118.348 412.216 118.881 412.504C119.415 412.781 119.836 413.203 120.145 413.768C120.455 414.333 120.609 415.021 120.609 415.832V421H119.169V416.04C119.169 415.165 118.951 414.499 118.513 414.04C118.087 413.571 117.505 413.336 116.769 413.336C116.012 413.336 115.409 413.581 114.961 414.072C114.513 414.552 114.289 415.251 114.289 416.168V421H112.849V416.04C112.849 415.165 112.631 414.499 112.193 414.04C111.767 413.571 111.185 413.336 110.449 413.336C109.692 413.336 109.089 413.581 108.641 414.072C108.193 414.552 107.969 415.251 107.969 416.168V421H106.513V412.232H107.969V413.496C108.257 413.037 108.641 412.685 109.121 412.44C109.612 412.195 110.151 412.072 110.737 412.072C111.473 412.072 112.124 412.237 112.689 412.568C113.255 412.899 113.676 413.384 113.953 414.024C114.199 413.405 114.604 412.925 115.169 412.584C115.735 412.243 116.364 412.072 117.057 412.072ZM123.75 410.808C123.472 410.808 123.238 410.712 123.046 410.52C122.854 410.328 122.758 410.093 122.758 409.816C122.758 409.539 122.854 409.304 123.046 409.112C123.238 408.92 123.472 408.824 123.75 408.824C124.016 408.824 124.24 408.92 124.422 409.112C124.614 409.304 124.71 409.539 124.71 409.816C124.71 410.093 124.614 410.328 124.422 410.52C124.24 410.712 124.016 410.808 123.75 410.808ZM124.454 412.232V421H122.998V412.232H124.454ZM128.023 419.8H132.327V421H126.359V419.8L130.615 413.416H126.391V412.232H132.295V413.416L128.023 419.8ZM142.216 416.28C142.216 416.557 142.2 416.851 142.168 417.16H135.16C135.214 418.024 135.507 418.701 136.04 419.192C136.584 419.672 137.24 419.912 138.008 419.912C138.638 419.912 139.16 419.768 139.576 419.48C140.003 419.181 140.302 418.787 140.472 418.296H142.04C141.806 419.139 141.336 419.827 140.632 420.36C139.928 420.883 139.054 421.144 138.008 421.144C137.176 421.144 136.43 420.957 135.768 420.584C135.118 420.211 134.606 419.683 134.232 419C133.859 418.307 133.672 417.507 133.672 416.6C133.672 415.693 133.854 414.899 134.216 414.216C134.579 413.533 135.086 413.011 135.736 412.648C136.398 412.275 137.155 412.088 138.008 412.088C138.84 412.088 139.576 412.269 140.216 412.632C140.856 412.995 141.347 413.496 141.688 414.136C142.04 414.765 142.216 415.48 142.216 416.28ZM140.712 415.976C140.712 415.421 140.59 414.947 140.344 414.552C140.099 414.147 139.763 413.843 139.336 413.64C138.92 413.427 138.456 413.32 137.944 413.32C137.208 413.32 136.579 413.555 136.056 414.024C135.544 414.493 135.251 415.144 135.176 415.976H140.712ZM145.594 413.656C145.85 413.155 146.213 412.765 146.682 412.488C147.162 412.211 147.744 412.072 148.426 412.072V413.576H148.042C146.41 413.576 145.594 414.461 145.594 416.232V421H144.138V412.232H145.594V413.656Z" fill="#212529" fill-opacity="0.85"/>
<path d="M688.426 497.848V509H686.97V503.944H681.29V509H679.834V497.848H681.29V502.744H686.97V497.848H688.426ZM691.664 498.808C691.386 498.808 691.152 498.712 690.96 498.52C690.768 498.328 690.672 498.093 690.672 497.816C690.672 497.539 690.768 497.304 690.96 497.112C691.152 496.92 691.386 496.824 691.664 496.824C691.93 496.824 692.154 496.92 692.336 497.112C692.528 497.304 692.624 497.539 692.624 497.816C692.624 498.093 692.528 498.328 692.336 498.52C692.154 498.712 691.93 498.808 691.664 498.808ZM692.368 500.232V509H690.912V500.232H692.368ZM698.465 500.088C699.223 500.088 699.884 500.253 700.449 500.584C701.025 500.915 701.452 501.331 701.729 501.832V500.232H703.201V509.192C703.201 509.992 703.031 510.701 702.689 511.32C702.348 511.949 701.857 512.44 701.217 512.792C700.588 513.144 699.852 513.32 699.009 513.32C697.857 513.32 696.897 513.048 696.129 512.504C695.361 511.96 694.908 511.219 694.769 510.28H696.209C696.369 510.813 696.7 511.24 697.201 511.56C697.703 511.891 698.305 512.056 699.009 512.056C699.809 512.056 700.46 511.805 700.961 511.304C701.473 510.803 701.729 510.099 701.729 509.192V507.352C701.441 507.864 701.015 508.291 700.449 508.632C699.884 508.973 699.223 509.144 698.465 509.144C697.687 509.144 696.977 508.952 696.337 508.568C695.708 508.184 695.212 507.645 694.849 506.952C694.487 506.259 694.305 505.469 694.305 504.584C694.305 503.688 694.487 502.904 694.849 502.232C695.212 501.549 695.708 501.021 696.337 500.648C696.977 500.275 697.687 500.088 698.465 500.088ZM701.729 504.6C701.729 503.939 701.596 503.363 701.329 502.872C701.063 502.381 700.7 502.008 700.241 501.752C699.793 501.485 699.297 501.352 698.753 501.352C698.209 501.352 697.713 501.48 697.265 501.736C696.817 501.992 696.46 502.365 696.193 502.856C695.927 503.347 695.793 503.923 695.793 504.584C695.793 505.256 695.927 505.843 696.193 506.344C696.46 506.835 696.817 507.213 697.265 507.48C697.713 507.736 698.209 507.864 698.753 507.864C699.297 507.864 699.793 507.736 700.241 507.48C700.7 507.213 701.063 506.835 701.329 506.344C701.596 505.843 701.729 505.261 701.729 504.6ZM710.014 500.072C710.675 500.072 711.272 500.216 711.806 500.504C712.339 500.781 712.755 501.203 713.054 501.768C713.363 502.333 713.518 503.021 713.518 503.832V509H712.078V504.04C712.078 503.165 711.859 502.499 711.422 502.04C710.984 501.571 710.387 501.336 709.63 501.336C708.862 501.336 708.248 501.576 707.79 502.056C707.342 502.536 707.118 503.235 707.118 504.152V509H705.662V497.16H707.118V501.48C707.406 501.032 707.8 500.685 708.302 500.44C708.814 500.195 709.384 500.072 710.014 500.072ZM721.976 502.52V503.752H715.592V502.52H721.976ZM728.277 501.432H726.437V509H724.981V501.432H723.845V500.232H724.981V499.608C724.981 498.627 725.231 497.912 725.733 497.464C726.245 497.005 727.061 496.776 728.181 496.776V497.992C727.541 497.992 727.087 498.12 726.821 498.376C726.565 498.621 726.437 499.032 726.437 499.608V500.232H728.277V501.432ZM730.726 498.808C730.449 498.808 730.214 498.712 730.022 498.52C729.83 498.328 729.734 498.093 729.734 497.816C729.734 497.539 729.83 497.304 730.022 497.112C730.214 496.92 730.449 496.824 730.726 496.824C730.993 496.824 731.217 496.92 731.398 497.112C731.59 497.304 731.686 497.539 731.686 497.816C731.686 498.093 731.59 498.328 731.398 498.52C731.217 498.712 730.993 498.808 730.726 498.808ZM731.43 500.232V509H729.974V500.232H731.43ZM733.368 504.584C733.368 503.688 733.549 502.904 733.912 502.232C734.274 501.549 734.77 501.021 735.4 500.648C736.04 500.275 736.754 500.088 737.544 500.088C738.226 500.088 738.861 500.248 739.448 500.568C740.034 500.877 740.482 501.288 740.792 501.8V497.16H742.264V509H740.792V507.352C740.504 507.875 740.077 508.307 739.512 508.648C738.946 508.979 738.285 509.144 737.528 509.144C736.749 509.144 736.04 508.952 735.4 508.568C734.77 508.184 734.274 507.645 733.912 506.952C733.549 506.259 733.368 505.469 733.368 504.584ZM740.792 504.6C740.792 503.939 740.658 503.363 740.392 502.872C740.125 502.381 739.762 502.008 739.304 501.752C738.856 501.485 738.36 501.352 737.816 501.352C737.272 501.352 736.776 501.48 736.328 501.736C735.88 501.992 735.522 502.365 735.256 502.856C734.989 503.347 734.856 503.923 734.856 504.584C734.856 505.256 734.989 505.843 735.256 506.344C735.522 506.835 735.88 507.213 736.328 507.48C736.776 507.736 737.272 507.864 737.816 507.864C738.36 507.864 738.856 507.736 739.304 507.48C739.762 507.213 740.125 506.835 740.392 506.344C740.658 505.843 740.792 505.261 740.792 504.6ZM752.724 504.28C752.724 504.557 752.708 504.851 752.676 505.16H745.668C745.722 506.024 746.015 506.701 746.548 507.192C747.092 507.672 747.748 507.912 748.516 507.912C749.146 507.912 749.668 507.768 750.084 507.48C750.511 507.181 750.81 506.787 750.98 506.296H752.548C752.314 507.139 751.844 507.827 751.14 508.36C750.436 508.883 749.562 509.144 748.516 509.144C747.684 509.144 746.938 508.957 746.276 508.584C745.626 508.211 745.114 507.683 744.74 507C744.367 506.307 744.18 505.507 744.18 504.6C744.18 503.693 744.362 502.899 744.724 502.216C745.087 501.533 745.594 501.011 746.244 500.648C746.906 500.275 747.663 500.088 748.516 500.088C749.348 500.088 750.084 500.269 750.724 500.632C751.364 500.995 751.855 501.496 752.196 502.136C752.548 502.765 752.724 503.48 752.724 504.28ZM751.22 503.976C751.22 503.421 751.098 502.947 750.852 502.552C750.607 502.147 750.271 501.843 749.844 501.64C749.428 501.427 748.964 501.32 748.452 501.32C747.716 501.32 747.087 501.555 746.564 502.024C746.052 502.493 745.759 503.144 745.684 503.976H751.22ZM756.102 497.16V509H754.646V497.16H756.102ZM759.336 498.808C759.058 498.808 758.824 498.712 758.632 498.52C758.44 498.328 758.344 498.093 758.344 497.816C758.344 497.539 758.44 497.304 758.632 497.112C758.824 496.92 759.058 496.824 759.336 496.824C759.602 496.824 759.826 496.92 760.008 497.112C760.2 497.304 760.296 497.539 760.296 497.816C760.296 498.093 760.2 498.328 760.008 498.52C759.826 498.712 759.602 498.808 759.336 498.808ZM760.04 500.232V509H758.584V500.232H760.04ZM764.297 501.432V506.6C764.297 507.027 764.388 507.331 764.569 507.512C764.75 507.683 765.065 507.768 765.513 507.768H766.585V509H765.273C764.462 509 763.854 508.813 763.449 508.44C763.044 508.067 762.841 507.453 762.841 506.6V501.432H761.705V500.232H762.841V498.024H764.297V500.232H766.585V501.432H764.297ZM775.901 500.232L770.621 513.128H769.117L770.845 508.904L767.309 500.232H768.925L771.677 507.336L774.397 500.232H775.901ZM705.224 521.928V533H703.768V524.744L700.088 533H699.064L695.368 524.728V533H693.912V521.928H695.48L699.576 531.08L703.672 521.928H705.224ZM709.149 531.816H713.053V533H707.693V521.848H709.149V531.816ZM730.177 521.928V533H728.721V524.744L725.041 533H724.017L720.321 524.728V533H718.865V521.928H720.433L724.529 531.08L728.625 521.928H730.177ZM736.47 533.144C735.649 533.144 734.902 532.957 734.23 532.584C733.569 532.211 733.046 531.683 732.662 531C732.289 530.307 732.102 529.507 732.102 528.6C732.102 527.704 732.294 526.915 732.678 526.232C733.073 525.539 733.606 525.011 734.278 524.648C734.95 524.275 735.702 524.088 736.534 524.088C737.366 524.088 738.118 524.275 738.79 524.648C739.462 525.011 739.99 525.533 740.374 526.216C740.769 526.899 740.966 527.693 740.966 528.6C740.966 529.507 740.763 530.307 740.358 531C739.963 531.683 739.425 532.211 738.742 532.584C738.059 532.957 737.302 533.144 736.47 533.144ZM736.47 531.864C736.993 531.864 737.483 531.741 737.942 531.496C738.401 531.251 738.769 530.883 739.046 530.392C739.334 529.901 739.478 529.304 739.478 528.6C739.478 527.896 739.339 527.299 739.062 526.808C738.785 526.317 738.422 525.955 737.974 525.72C737.526 525.475 737.041 525.352 736.518 525.352C735.985 525.352 735.494 525.475 735.046 525.72C734.609 525.955 734.257 526.317 733.99 526.808C733.723 527.299 733.59 527.896 733.59 528.6C733.59 529.315 733.718 529.917 733.974 530.408C734.241 530.899 734.593 531.267 735.03 531.512C735.467 531.747 735.947 531.864 736.47 531.864ZM742.336 528.584C742.336 527.688 742.518 526.904 742.88 526.232C743.243 525.549 743.739 525.021 744.368 524.648C745.008 524.275 745.723 524.088 746.512 524.088C747.195 524.088 747.83 524.248 748.416 524.568C749.003 524.877 749.451 525.288 749.76 525.8V521.16H751.232V533H749.76V531.352C749.472 531.875 749.046 532.307 748.48 532.648C747.915 532.979 747.254 533.144 746.496 533.144C745.718 533.144 745.008 532.952 744.368 532.568C743.739 532.184 743.243 531.645 742.88 530.952C742.518 530.259 742.336 529.469 742.336 528.584ZM749.76 528.6C749.76 527.939 749.627 527.363 749.36 526.872C749.094 526.381 748.731 526.008 748.272 525.752C747.824 525.485 747.328 525.352 746.784 525.352C746.24 525.352 745.744 525.48 745.296 525.736C744.848 525.992 744.491 526.365 744.224 526.856C743.958 527.347 743.824 527.923 743.824 528.584C743.824 529.256 743.958 529.843 744.224 530.344C744.491 530.835 744.848 531.213 745.296 531.48C745.744 531.736 746.24 531.864 746.784 531.864C747.328 531.864 747.824 531.736 748.272 531.48C748.731 531.213 749.094 530.835 749.36 530.344C749.627 529.843 749.76 529.261 749.76 528.6ZM761.693 528.28C761.693 528.557 761.677 528.851 761.645 529.16H754.637C754.69 530.024 754.984 530.701 755.517 531.192C756.061 531.672 756.717 531.912 757.485 531.912C758.114 531.912 758.637 531.768 759.053 531.48C759.48 531.181 759.778 530.787 759.949 530.296H761.517C761.282 531.139 760.813 531.827 760.109 532.36C759.405 532.883 758.53 533.144 757.485 533.144C756.653 533.144 755.906 532.957 755.245 532.584C754.594 532.211 754.082 531.683 753.709 531C753.336 530.307 753.149 529.507 753.149 528.6C753.149 527.693 753.33 526.899 753.693 526.216C754.056 525.533 754.562 525.011 755.213 524.648C755.874 524.275 756.632 524.088 757.485 524.088C758.317 524.088 759.053 524.269 759.693 524.632C760.333 524.995 760.824 525.496 761.165 526.136C761.517 526.765 761.693 527.48 761.693 528.28ZM760.189 527.976C760.189 527.421 760.066 526.947 759.821 526.552C759.576 526.147 759.24 525.843 758.813 525.64C758.397 525.427 757.933 525.32 757.421 525.32C756.685 525.32 756.056 525.555 755.533 526.024C755.021 526.493 754.728 527.144 754.653 527.976H760.189ZM765.071 521.16V533H763.615V521.16H765.071Z" fill="#212529" fill-opacity="0.85"/>
<path d="M315 252C315 256.418 318.582 260 323 260C327.418 260 331 256.418 331 252C331 247.582 327.418 244 323 244C318.582 244 315 247.582 315 252ZM267.5 231.5L268.02 230.093L267.768 230L267.5 230L267.5 231.5ZM218 233L219.515 233L219.515 230L218 230V233ZM223.556 233L226.587 233L226.587 230L223.556 230L223.556 233ZM230.628 233L233.658 233L233.658 230L230.628 230L230.628 233ZM237.699 233L240.73 233L240.73 230L237.699 230L237.699 233ZM244.77 233L247.801 233L247.801 230L244.77 230L244.77 233ZM251.842 233L254.872 233L254.872 230L251.842 230L251.842 233ZM258.913 233L261.944 233L261.944 230L258.913 230L258.913 233ZM265.985 233L267.5 233L267.5 230L265.985 230L265.985 233ZM266.98 232.907L268.467 233.456L269.506 230.642L268.02 230.093L266.98 232.907ZM272.431 234.92L275.404 236.019L276.444 233.205L273.471 232.106L272.431 234.92ZM279.369 237.483L282.342 238.581L283.381 235.767L280.408 234.669L279.369 237.483ZM286.306 240.045L289.279 241.144L290.319 238.33L287.346 237.231L286.306 240.045ZM293.244 242.608L296.217 243.706L297.256 240.892L294.283 239.794L293.244 242.608ZM300.181 245.17L303.154 246.269L304.194 243.455L301.221 242.356L300.181 245.17ZM307.119 247.733L310.092 248.831L311.131 246.017L308.158 244.919L307.119 247.733ZM314.056 250.295L317.029 251.394L318.069 248.58L315.096 247.481L314.056 250.295ZM320.994 252.858L322.48 253.407L323.52 250.593L322.033 250.044L320.994 252.858Z" fill="#212529" fill-opacity="0.5"/>
<path d="M272 423.5C272 427.918 275.582 431.5 280 431.5C284.418 431.5 288 427.918 288 423.5C288 419.082 284.418 415.5 280 415.5C275.582 415.5 272 419.082 272 423.5ZM224.5 403L225.02 401.593L224.768 401.5L224.5 401.5L224.5 403ZM175 404.5L176.515 404.5L176.515 401.5L175 401.5V404.5ZM180.556 404.5L183.587 404.5L183.587 401.5L180.556 401.5L180.556 404.5ZM187.628 404.5L190.658 404.5L190.658 401.5L187.628 401.5L187.628 404.5ZM194.699 404.5L197.73 404.5L197.73 401.5L194.699 401.5L194.699 404.5ZM201.77 404.5L204.801 404.5L204.801 401.5L201.77 401.5L201.77 404.5ZM208.842 404.5L211.872 404.5L211.872 401.5L208.842 401.5L208.842 404.5ZM215.913 404.5L218.944 404.5L218.944 401.5L215.913 401.5L215.913 404.5ZM222.985 404.5L224.5 404.5L224.5 401.5L222.985 401.5L222.985 404.5ZM223.98 404.407L225.467 404.956L226.506 402.142L225.02 401.593L223.98 404.407ZM229.431 406.42L232.404 407.519L233.444 404.705L230.471 403.606L229.431 406.42ZM236.369 408.983L239.342 410.081L240.381 407.267L237.408 406.169L236.369 408.983ZM243.306 411.545L246.279 412.644L247.319 409.83L244.346 408.731L243.306 411.545ZM250.244 414.108L253.217 415.206L254.256 412.392L251.283 411.294L250.244 414.108ZM257.181 416.67L260.154 417.769L261.194 414.955L258.221 413.856L257.181 416.67ZM264.119 419.233L267.092 420.331L268.131 417.517L265.158 416.419L264.119 419.233ZM271.056 421.795L274.029 422.894L275.069 420.08L272.096 418.981L271.056 421.795ZM277.994 424.358L279.48 424.907L280.52 422.093L279.033 421.544L277.994 424.358Z" fill="#212529" fill-opacity="0.5"/>
<path d="M163.96 534.112C162.925 534.112 161.97 533.872 161.096 533.392C160.232 532.901 159.544 532.224 159.032 531.36C158.53 530.485 158.28 529.504 158.28 528.416C158.28 527.328 158.53 526.352 159.032 525.488C159.544 524.624 160.232 523.952 161.096 523.472C161.97 522.981 162.925 522.736 163.96 522.736C165.005 522.736 165.96 522.981 166.824 523.472C167.698 523.952 168.386 524.624 168.888 525.488C169.389 526.352 169.64 527.328 169.64 528.416C169.64 529.504 169.389 530.485 168.888 531.36C168.386 532.224 167.698 532.901 166.824 533.392C165.96 533.872 165.005 534.112 163.96 534.112ZM163.96 532.528C164.696 532.528 165.352 532.363 165.928 532.032C166.504 531.691 166.952 531.211 167.272 530.592C167.602 529.963 167.768 529.237 167.768 528.416C167.768 527.595 167.602 526.875 167.272 526.256C166.952 525.637 166.504 525.163 165.928 524.832C165.352 524.501 164.696 524.336 163.96 524.336C163.224 524.336 162.568 524.501 161.992 524.832C161.416 525.163 160.962 525.637 160.632 526.256C160.312 526.875 160.152 527.595 160.152 528.416C160.152 529.237 160.312 529.963 160.632 530.592C160.962 531.211 161.416 531.691 161.992 532.032C162.568 532.363 163.224 532.528 163.96 532.528ZM173.258 526.48C173.568 526.075 173.989 525.733 174.522 525.456C175.056 525.179 175.658 525.04 176.33 525.04C177.098 525.04 177.797 525.232 178.426 525.616C179.066 525.989 179.568 526.517 179.93 527.2C180.293 527.883 180.474 528.667 180.474 529.552C180.474 530.437 180.293 531.232 179.93 531.936C179.568 532.629 179.066 533.173 178.426 533.568C177.797 533.952 177.098 534.144 176.33 534.144C175.658 534.144 175.061 534.011 174.538 533.744C174.016 533.467 173.589 533.125 173.258 532.72V538.192H171.434V525.184H173.258V526.48ZM178.618 529.552C178.618 528.944 178.49 528.421 178.234 527.984C177.989 527.536 177.658 527.2 177.242 526.976C176.837 526.741 176.4 526.624 175.93 526.624C175.472 526.624 175.034 526.741 174.618 526.976C174.213 527.211 173.882 527.552 173.626 528C173.381 528.448 173.258 528.976 173.258 529.584C173.258 530.192 173.381 530.725 173.626 531.184C173.882 531.632 174.213 531.973 174.618 532.208C175.034 532.443 175.472 532.56 175.93 532.56C176.4 532.56 176.837 532.443 177.242 532.208C177.658 531.963 177.989 531.611 178.234 531.152C178.49 530.693 178.618 530.16 178.618 529.552ZM184.406 526.672V531.552C184.406 531.883 184.481 532.123 184.63 532.272C184.79 532.411 185.057 532.48 185.43 532.48H186.55V534H185.11C184.289 534 183.659 533.808 183.222 533.424C182.785 533.04 182.566 532.416 182.566 531.552V526.672H181.526V525.184H182.566V522.992H184.406V525.184H186.55V526.672H184.406ZM189.159 524.016C188.829 524.016 188.551 523.904 188.327 523.68C188.103 523.456 187.991 523.179 187.991 522.848C187.991 522.517 188.103 522.24 188.327 522.016C188.551 521.792 188.829 521.68 189.159 521.68C189.479 521.68 189.751 521.792 189.975 522.016C190.199 522.24 190.311 522.517 190.311 522.848C190.311 523.179 190.199 523.456 189.975 523.68C189.751 523.904 189.479 524.016 189.159 524.016ZM190.055 525.184V534H188.231V525.184H190.055ZM203.122 525.04C203.815 525.04 204.434 525.184 204.978 525.472C205.533 525.76 205.965 526.187 206.274 526.752C206.594 527.317 206.754 528 206.754 528.8V534H204.946V529.072C204.946 528.283 204.749 527.68 204.354 527.264C203.959 526.837 203.421 526.624 202.738 526.624C202.055 526.624 201.511 526.837 201.106 527.264C200.711 527.68 200.514 528.283 200.514 529.072V534H198.706V529.072C198.706 528.283 198.509 527.68 198.114 527.264C197.719 526.837 197.181 526.624 196.498 526.624C195.815 526.624 195.271 526.837 194.866 527.264C194.471 527.68 194.274 528.283 194.274 529.072V534H192.45V525.184H194.274V526.192C194.573 525.829 194.951 525.547 195.41 525.344C195.869 525.141 196.359 525.04 196.882 525.04C197.586 525.04 198.215 525.189 198.77 525.488C199.325 525.787 199.751 526.219 200.05 526.784C200.317 526.251 200.733 525.829 201.298 525.52C201.863 525.2 202.471 525.04 203.122 525.04ZM208.467 529.552C208.467 528.667 208.648 527.883 209.011 527.2C209.384 526.517 209.886 525.989 210.515 525.616C211.155 525.232 211.859 525.04 212.627 525.04C213.32 525.04 213.923 525.179 214.435 525.456C214.958 525.723 215.374 526.059 215.683 526.464V525.184H217.523V534H215.683V532.688C215.374 533.104 214.952 533.451 214.419 533.728C213.886 534.005 213.278 534.144 212.595 534.144C211.838 534.144 211.144 533.952 210.515 533.568C209.886 533.173 209.384 532.629 209.011 531.936C208.648 531.232 208.467 530.437 208.467 529.552ZM215.683 529.584C215.683 528.976 215.555 528.448 215.299 528C215.054 527.552 214.728 527.211 214.323 526.976C213.918 526.741 213.48 526.624 213.011 526.624C212.542 526.624 212.104 526.741 211.699 526.976C211.294 527.2 210.963 527.536 210.707 527.984C210.462 528.421 210.339 528.944 210.339 529.552C210.339 530.16 210.462 530.693 210.707 531.152C210.963 531.611 211.294 531.963 211.699 532.208C212.115 532.443 212.552 532.56 213.011 532.56C213.48 532.56 213.918 532.443 214.323 532.208C214.728 531.973 215.054 531.632 215.299 531.184C215.555 530.725 215.683 530.192 215.683 529.584ZM221.743 522.16V534H219.919V522.16H221.743ZM231.926 522.88C233.11 522.88 234.144 523.109 235.03 523.568C235.926 524.016 236.614 524.667 237.094 525.52C237.584 526.363 237.83 527.349 237.83 528.48C237.83 529.611 237.584 530.592 237.094 531.424C236.614 532.256 235.926 532.896 235.03 533.344C234.144 533.781 233.11 534 231.926 534H228.294V522.88H231.926ZM231.926 532.512C233.227 532.512 234.224 532.16 234.918 531.456C235.611 530.752 235.958 529.76 235.958 528.48C235.958 527.189 235.611 526.181 234.918 525.456C234.224 524.731 233.227 524.368 231.926 524.368H230.118V532.512H231.926ZM247.718 529.376C247.718 529.707 247.696 530.005 247.654 530.272H240.918C240.971 530.976 241.232 531.541 241.702 531.968C242.171 532.395 242.747 532.608 243.43 532.608C244.411 532.608 245.104 532.197 245.51 531.376H247.477C247.211 532.187 246.726 532.853 246.022 533.376C245.328 533.888 244.464 534.144 243.43 534.144C242.587 534.144 241.83 533.957 241.158 533.584C240.496 533.2 239.974 532.667 239.59 531.984C239.216 531.291 239.03 530.491 239.03 529.584C239.03 528.677 239.211 527.883 239.574 527.2C239.947 526.507 240.464 525.973 241.126 525.6C241.798 525.227 242.566 525.04 243.43 525.04C244.262 525.04 245.003 525.221 245.654 525.584C246.304 525.947 246.811 526.459 247.174 527.12C247.536 527.771 247.718 528.523 247.718 529.376ZM245.814 528.8C245.803 528.128 245.563 527.589 245.094 527.184C244.624 526.779 244.043 526.576 243.35 526.576C242.72 526.576 242.182 526.779 241.734 527.184C241.286 527.579 241.019 528.117 240.934 528.8H245.814ZM252.713 534.144C252.019 534.144 251.395 534.021 250.841 533.776C250.297 533.52 249.865 533.179 249.545 532.752C249.225 532.315 249.054 531.829 249.033 531.296H250.921C250.953 531.669 251.129 531.984 251.449 532.24C251.779 532.485 252.19 532.608 252.681 532.608C253.193 532.608 253.587 532.512 253.865 532.32C254.153 532.117 254.297 531.861 254.297 531.552C254.297 531.221 254.137 530.976 253.817 530.816C253.507 530.656 253.011 530.48 252.329 530.288C251.667 530.107 251.129 529.931 250.713 529.76C250.297 529.589 249.934 529.328 249.625 528.976C249.326 528.624 249.177 528.16 249.177 527.584C249.177 527.115 249.315 526.688 249.593 526.304C249.87 525.909 250.265 525.6 250.777 525.376C251.299 525.152 251.897 525.04 252.569 525.04C253.571 525.04 254.377 525.296 254.985 525.808C255.603 526.309 255.934 526.997 255.977 527.872H254.153C254.121 527.477 253.961 527.163 253.673 526.928C253.385 526.693 252.995 526.576 252.505 526.576C252.025 526.576 251.657 526.667 251.401 526.848C251.145 527.029 251.017 527.269 251.017 527.568C251.017 527.803 251.102 528 251.273 528.16C251.443 528.32 251.651 528.448 251.897 528.544C252.142 528.629 252.505 528.741 252.985 528.88C253.625 529.051 254.147 529.227 254.553 529.408C254.969 529.579 255.326 529.835 255.625 530.176C255.923 530.517 256.078 530.971 256.089 531.536C256.089 532.037 255.95 532.485 255.673 532.88C255.395 533.275 255.001 533.584 254.489 533.808C253.987 534.032 253.395 534.144 252.713 534.144ZM258.987 524.016C258.657 524.016 258.379 523.904 258.155 523.68C257.931 523.456 257.819 523.179 257.819 522.848C257.819 522.517 257.931 522.24 258.155 522.016C258.379 521.792 258.657 521.68 258.987 521.68C259.307 521.68 259.579 521.792 259.803 522.016C260.027 522.24 260.139 522.517 260.139 522.848C260.139 523.179 260.027 523.456 259.803 523.68C259.579 523.904 259.307 524.016 258.987 524.016ZM259.883 525.184V534H258.059V525.184H259.883ZM265.83 525.04C266.513 525.04 267.115 525.179 267.638 525.456C268.171 525.723 268.587 526.059 268.886 526.464V525.184H270.726V534.144C270.726 534.955 270.555 535.675 270.214 536.304C269.873 536.944 269.377 537.445 268.726 537.808C268.086 538.171 267.318 538.352 266.422 538.352C265.227 538.352 264.235 538.069 263.446 537.504C262.657 536.949 262.209 536.192 262.102 535.232H263.91C264.049 535.691 264.342 536.059 264.79 536.336C265.249 536.624 265.793 536.768 266.422 536.768C267.158 536.768 267.75 536.544 268.198 536.096C268.657 535.648 268.886 534.997 268.886 534.144V532.672C268.577 533.088 268.155 533.44 267.622 533.728C267.099 534.005 266.502 534.144 265.83 534.144C265.062 534.144 264.358 533.952 263.718 533.568C263.089 533.173 262.587 532.629 262.214 531.936C261.851 531.232 261.67 530.437 261.67 529.552C261.67 528.667 261.851 527.883 262.214 527.2C262.587 526.517 263.089 525.989 263.718 525.616C264.358 525.232 265.062 525.04 265.83 525.04ZM268.886 529.584C268.886 528.976 268.758 528.448 268.502 528C268.257 527.552 267.931 527.211 267.526 526.976C267.121 526.741 266.683 526.624 266.214 526.624C265.745 526.624 265.307 526.741 264.902 526.976C264.497 527.2 264.166 527.536 263.91 527.984C263.665 528.421 263.542 528.944 263.542 529.552C263.542 530.16 263.665 530.693 263.91 531.152C264.166 531.611 264.497 531.963 264.902 532.208C265.318 532.443 265.755 532.56 266.214 532.56C266.683 532.56 267.121 532.443 267.526 532.208C267.931 531.973 268.257 531.632 268.502 531.184C268.758 530.725 268.886 530.192 268.886 529.584ZM277.57 525.04C278.263 525.04 278.882 525.184 279.426 525.472C279.981 525.76 280.413 526.187 280.722 526.752C281.031 527.317 281.186 528 281.186 528.8V534H279.378V529.072C279.378 528.283 279.181 527.68 278.786 527.264C278.391 526.837 277.853 526.624 277.17 526.624C276.487 526.624 275.943 526.837 275.538 527.264C275.143 527.68 274.946 528.283 274.946 529.072V534H273.122V525.184H274.946V526.192C275.245 525.829 275.623 525.547 276.082 525.344C276.551 525.141 277.047 525.04 277.57 525.04Z" fill="white"/>
<circle cx="693" cy="79" r="5" fill="#5F5F5F"/>
<path d="M705.688 75.032V78.76H709.752V79.96H705.688V83.8H710.232V85H704.232V73.832H710.232V75.032H705.688ZM717.011 85L714.931 81.736L712.931 85H711.411L714.243 80.648L711.411 76.232H713.059L715.139 79.48L717.123 76.232H718.643L715.827 80.568L718.659 85H717.011ZM721.867 77.432V82.6C721.867 83.0267 721.958 83.3307 722.139 83.512C722.321 83.6827 722.635 83.768 723.083 83.768H724.155V85H722.843C722.033 85 721.425 84.8133 721.019 84.44C720.614 84.0667 720.411 83.4533 720.411 82.6V77.432H719.275V76.232H720.411V74.024H721.867V76.232H724.155V77.432H721.867ZM733.92 80.28C733.92 80.5573 733.904 80.8507 733.872 81.16H726.864C726.917 82.024 727.21 82.7013 727.744 83.192C728.288 83.672 728.944 83.912 729.712 83.912C730.341 83.912 730.864 83.768 731.28 83.48C731.706 83.1813 732.005 82.7867 732.176 82.296H733.744C733.509 83.1387 733.04 83.8267 732.336 84.36C731.632 84.8827 730.757 85.144 729.712 85.144C728.88 85.144 728.133 84.9573 727.472 84.584C726.821 84.2107 726.309 83.6827 725.936 83C725.562 82.3067 725.376 81.5067 725.376 80.6C725.376 79.6933 725.557 78.8987 725.92 78.216C726.282 77.5333 726.789 77.0107 727.44 76.648C728.101 76.2747 728.858 76.088 729.712 76.088C730.544 76.088 731.28 76.2693 731.92 76.632C732.56 76.9947 733.05 77.496 733.392 78.136C733.744 78.7653 733.92 79.48 733.92 80.28ZM732.416 79.976C732.416 79.4213 732.293 78.9467 732.048 78.552C731.802 78.1467 731.466 77.8427 731.04 77.64C730.624 77.4267 730.16 77.32 729.648 77.32C728.912 77.32 728.282 77.5547 727.76 78.024C727.248 78.4933 726.954 79.144 726.88 79.976H732.416ZM737.297 77.656C737.553 77.1547 737.916 76.7653 738.385 76.488C738.865 76.2107 739.447 76.072 740.129 76.072V77.576H739.745C738.113 77.576 737.297 78.4613 737.297 80.232V85H735.841V76.232H737.297V77.656ZM746.082 76.072C747.149 76.072 748.013 76.3973 748.674 77.048C749.335 77.688 749.666 78.616 749.666 79.832V85H748.226V80.04C748.226 79.1653 748.007 78.4987 747.57 78.04C747.133 77.5707 746.535 77.336 745.778 77.336C745.01 77.336 744.397 77.576 743.938 78.056C743.49 78.536 743.266 79.2347 743.266 80.152V85H741.81V76.232H743.266V77.48C743.554 77.032 743.943 76.6853 744.434 76.44C744.935 76.1947 745.485 76.072 746.082 76.072ZM751.501 80.584C751.501 79.688 751.682 78.904 752.045 78.232C752.407 77.5493 752.903 77.0213 753.533 76.648C754.173 76.2747 754.882 76.088 755.661 76.088C756.429 76.088 757.095 76.2533 757.661 76.584C758.226 76.9147 758.647 77.3307 758.925 77.832V76.232H760.397V85H758.925V83.368C758.637 83.88 758.205 84.3067 757.629 84.648C757.063 84.9787 756.402 85.144 755.645 85.144C754.866 85.144 754.162 84.952 753.533 84.568C752.903 84.184 752.407 83.6453 752.045 82.952C751.682 82.2587 751.501 81.4693 751.501 80.584ZM758.925 80.6C758.925 79.9387 758.791 79.3627 758.525 78.872C758.258 78.3813 757.895 78.008 757.437 77.752C756.989 77.4853 756.493 77.352 755.949 77.352C755.405 77.352 754.909 77.48 754.461 77.736C754.013 77.992 753.655 78.3653 753.389 78.856C753.122 79.3467 752.989 79.9227 752.989 80.584C752.989 81.256 753.122 81.8427 753.389 82.344C753.655 82.8347 754.013 83.2133 754.461 83.48C754.909 83.736 755.405 83.864 755.949 83.864C756.493 83.864 756.989 83.736 757.437 83.48C757.895 83.2133 758.258 82.8347 758.525 82.344C758.791 81.8427 758.925 81.2613 758.925 80.6ZM764.313 73.16V85H762.857V73.16H764.313ZM774.596 85.112C773.86 85.112 773.199 84.984 772.612 84.728C772.036 84.4613 771.583 84.0987 771.252 83.64C770.921 83.1707 770.751 82.632 770.74 82.024H772.292C772.345 82.5467 772.559 82.9893 772.932 83.352C773.316 83.704 773.871 83.88 774.596 83.88C775.289 83.88 775.833 83.7093 776.228 83.368C776.633 83.016 776.836 82.568 776.836 82.024C776.836 81.5973 776.719 81.2507 776.484 80.984C776.249 80.7173 775.956 80.5147 775.604 80.376C775.252 80.2373 774.777 80.088 774.18 79.928C773.444 79.736 772.852 79.544 772.404 79.352C771.967 79.16 771.588 78.8613 771.268 78.456C770.959 78.04 770.804 77.4853 770.804 76.792C770.804 76.184 770.959 75.6453 771.268 75.176C771.577 74.7067 772.009 74.344 772.564 74.088C773.129 73.832 773.775 73.704 774.5 73.704C775.545 73.704 776.399 73.9653 777.06 74.488C777.732 75.0107 778.111 75.704 778.196 76.568H776.596C776.543 76.1413 776.319 75.768 775.924 75.448C775.529 75.1173 775.007 74.952 774.356 74.952C773.748 74.952 773.252 75.112 772.868 75.432C772.484 75.7413 772.292 76.1787 772.292 76.744C772.292 77.1493 772.404 77.48 772.628 77.736C772.863 77.992 773.145 78.1893 773.476 78.328C773.817 78.456 774.292 78.6053 774.9 78.776C775.636 78.9787 776.228 79.1813 776.676 79.384C777.124 79.576 777.508 79.88 777.828 80.296C778.148 80.7013 778.308 81.256 778.308 81.96C778.308 82.504 778.164 83.016 777.876 83.496C777.588 83.976 777.161 84.3653 776.596 84.664C776.031 84.9627 775.364 85.112 774.596 85.112ZM784.275 85.144C783.453 85.144 782.707 84.9573 782.035 84.584C781.373 84.2107 780.851 83.6827 780.467 83C780.093 82.3067 779.907 81.5067 779.907 80.6C779.907 79.704 780.099 78.9147 780.483 78.232C780.877 77.5387 781.411 77.0107 782.083 76.648C782.755 76.2747 783.507 76.088 784.339 76.088C785.171 76.088 785.923 76.2747 786.595 76.648C787.267 77.0107 787.795 77.5333 788.179 78.216C788.573 78.8987 788.771 79.6933 788.771 80.6C788.771 81.5067 788.568 82.3067 788.163 83C787.768 83.6827 787.229 84.2107 786.547 84.584C785.864 84.9573 785.107 85.144 784.275 85.144ZM784.275 83.864C784.797 83.864 785.288 83.7413 785.747 83.496C786.205 83.2507 786.573 82.8827 786.851 82.392C787.139 81.9013 787.283 81.304 787.283 80.6C787.283 79.896 787.144 79.2987 786.867 78.808C786.589 78.3173 786.227 77.9547 785.779 77.72C785.331 77.4747 784.845 77.352 784.323 77.352C783.789 77.352 783.299 77.4747 782.851 77.72C782.413 77.9547 782.061 78.3173 781.795 78.808C781.528 79.2987 781.395 79.896 781.395 80.6C781.395 81.3147 781.523 81.9173 781.779 82.408C782.045 82.8987 782.397 83.2667 782.835 83.512C783.272 83.7467 783.752 83.864 784.275 83.864ZM794.253 77.432H792.413V85H790.957V77.432H789.821V76.232H790.957V75.608C790.957 74.6267 791.208 73.912 791.709 73.464C792.221 73.0053 793.037 72.776 794.157 72.776V73.992C793.517 73.992 793.064 74.12 792.797 74.376C792.541 74.6213 792.413 75.032 792.413 75.608V76.232H794.253V77.432ZM797.727 77.432V82.6C797.727 83.0267 797.817 83.3307 797.999 83.512C798.18 83.6827 798.495 83.768 798.943 83.768H800.015V85H798.703C797.892 85 797.284 84.8133 796.879 84.44C796.473 84.0667 796.271 83.4533 796.271 82.6V77.432H795.135V76.232H796.271V74.024H797.727V76.232H800.015V77.432H797.727ZM813.459 76.232L810.723 85H809.219L807.107 78.04L804.995 85H803.491L800.739 76.232H802.227L804.243 83.592L806.419 76.232H807.907L810.035 83.608L812.019 76.232H813.459ZM814.36 80.584C814.36 79.688 814.541 78.904 814.904 78.232C815.267 77.5493 815.763 77.0213 816.392 76.648C817.032 76.2747 817.741 76.088 818.52 76.088C819.288 76.088 819.955 76.2533 820.52 76.584C821.085 76.9147 821.507 77.3307 821.784 77.832V76.232H823.256V85H821.784V83.368C821.496 83.88 821.064 84.3067 820.488 84.648C819.923 84.9787 819.261 85.144 818.504 85.144C817.725 85.144 817.021 84.952 816.392 84.568C815.763 84.184 815.267 83.6453 814.904 82.952C814.541 82.2587 814.36 81.4693 814.36 80.584ZM821.784 80.6C821.784 79.9387 821.651 79.3627 821.384 78.872C821.117 78.3813 820.755 78.008 820.296 77.752C819.848 77.4853 819.352 77.352 818.808 77.352C818.264 77.352 817.768 77.48 817.32 77.736C816.872 77.992 816.515 78.3653 816.248 78.856C815.981 79.3467 815.848 79.9227 815.848 80.584C815.848 81.256 815.981 81.8427 816.248 82.344C816.515 82.8347 816.872 83.2133 817.32 83.48C817.768 83.736 818.264 83.864 818.808 83.864C819.352 83.864 819.848 83.736 820.296 83.48C820.755 83.2133 821.117 82.8347 821.384 82.344C821.651 81.8427 821.784 81.2613 821.784 80.6ZM827.172 77.656C827.428 77.1547 827.791 76.7653 828.26 76.488C828.74 76.2107 829.322 76.072 830.004 76.072V77.576H829.62C827.988 77.576 827.172 78.4613 827.172 80.232V85H825.716V76.232H827.172V77.656ZM839.685 80.28C839.685 80.5573 839.669 80.8507 839.637 81.16H832.629C832.682 82.024 832.976 82.7013 833.509 83.192C834.053 83.672 834.709 83.912 835.477 83.912C836.106 83.912 836.629 83.768 837.045 83.48C837.472 83.1813 837.77 82.7867 837.941 82.296H839.509C839.274 83.1387 838.805 83.8267 838.101 84.36C837.397 84.8827 836.522 85.144 835.477 85.144C834.645 85.144 833.898 84.9573 833.237 84.584C832.586 84.2107 832.074 83.6827 831.701 83C831.328 82.3067 831.141 81.5067 831.141 80.6C831.141 79.6933 831.322 78.8987 831.685 78.216C832.048 77.5333 832.554 77.0107 833.205 76.648C833.866 76.2747 834.624 76.088 835.477 76.088C836.309 76.088 837.045 76.2693 837.685 76.632C838.325 76.9947 838.816 77.496 839.157 78.136C839.509 78.7653 839.685 79.48 839.685 80.28ZM838.181 79.976C838.181 79.4213 838.058 78.9467 837.813 78.552C837.568 78.1467 837.232 77.8427 836.805 77.64C836.389 77.4267 835.925 77.32 835.413 77.32C834.677 77.32 834.048 77.5547 833.525 78.024C833.013 78.4933 832.72 79.144 832.645 79.976H838.181Z" fill="#212529" fill-opacity="0.85"/>
<circle cx="693" cy="54" r="5" fill="#0D6EFD"/>
<path d="M705.688 48.848V60H704.232V48.848H705.688ZM712.442 51.072C713.508 51.072 714.372 51.3973 715.034 52.048C715.695 52.688 716.026 53.616 716.026 54.832V60H714.586V55.04C714.586 54.1653 714.367 53.4987 713.93 53.04C713.492 52.5707 712.895 52.336 712.138 52.336C711.37 52.336 710.756 52.576 710.298 53.056C709.85 53.536 709.626 54.2347 709.626 55.152V60H708.17V51.232H709.626V52.48C709.914 52.032 710.303 51.6853 710.794 51.44C711.295 51.1947 711.844 51.072 712.442 51.072ZM721.972 52.432H720.132V60H718.676V52.432H717.54V51.232H718.676V50.608C718.676 49.6267 718.927 48.912 719.428 48.464C719.94 48.0053 720.756 47.776 721.876 47.776V48.992C721.236 48.992 720.783 49.12 720.516 49.376C720.26 49.6213 720.132 50.032 720.132 50.608V51.232H721.972V52.432ZM731.67 55.28C731.67 55.5573 731.654 55.8507 731.622 56.16H724.614C724.667 57.024 724.96 57.7013 725.494 58.192C726.038 58.672 726.694 58.912 727.462 58.912C728.091 58.912 728.614 58.768 729.03 58.48C729.456 58.1813 729.755 57.7867 729.926 57.296H731.494C731.259 58.1387 730.79 58.8267 730.086 59.36C729.382 59.8827 728.507 60.144 727.462 60.144C726.63 60.144 725.883 59.9573 725.222 59.584C724.571 59.2107 724.059 58.6827 723.686 58C723.312 57.3067 723.126 56.5067 723.126 55.6C723.126 54.6933 723.307 53.8987 723.67 53.216C724.032 52.5333 724.539 52.0107 725.19 51.648C725.851 51.2747 726.608 51.088 727.462 51.088C728.294 51.088 729.03 51.2693 729.67 51.632C730.31 51.9947 730.8 52.496 731.142 53.136C731.494 53.7653 731.67 54.48 731.67 55.28ZM730.166 54.976C730.166 54.4213 730.043 53.9467 729.798 53.552C729.552 53.1467 729.216 52.8427 728.79 52.64C728.374 52.4267 727.91 52.32 727.398 52.32C726.662 52.32 726.032 52.5547 725.51 53.024C724.998 53.4933 724.704 54.144 724.63 54.976H730.166ZM735.047 52.656C735.303 52.1547 735.666 51.7653 736.135 51.488C736.615 51.2107 737.197 51.072 737.879 51.072V52.576H737.495C735.863 52.576 735.047 53.4613 735.047 55.232V60H733.591V51.232H735.047V52.656ZM739.016 55.584C739.016 54.688 739.197 53.904 739.56 53.232C739.923 52.5493 740.419 52.0213 741.048 51.648C741.688 51.2747 742.397 51.088 743.176 51.088C743.944 51.088 744.611 51.2533 745.176 51.584C745.741 51.9147 746.163 52.3307 746.44 52.832V51.232H747.912V60H746.44V58.368C746.152 58.88 745.72 59.3067 745.144 59.648C744.579 59.9787 743.917 60.144 743.16 60.144C742.381 60.144 741.677 59.952 741.048 59.568C740.419 59.184 739.923 58.6453 739.56 57.952C739.197 57.2587 739.016 56.4693 739.016 55.584ZM746.44 55.6C746.44 54.9387 746.307 54.3627 746.04 53.872C745.773 53.3813 745.411 53.008 744.952 52.752C744.504 52.4853 744.008 52.352 743.464 52.352C742.92 52.352 742.424 52.48 741.976 52.736C741.528 52.992 741.171 53.3653 740.904 53.856C740.637 54.3467 740.504 54.9227 740.504 55.584C740.504 56.256 740.637 56.8427 740.904 57.344C741.171 57.8347 741.528 58.2133 741.976 58.48C742.424 58.736 742.92 58.864 743.464 58.864C744.008 58.864 744.504 58.736 744.952 58.48C745.411 58.2133 745.773 57.8347 746.04 57.344C746.307 56.8427 746.44 56.2613 746.44 55.6ZM750.597 48.848H752.213L750.677 52.48H749.653L750.597 48.848ZM756.977 60.144C756.305 60.144 755.702 60.032 755.169 59.808C754.635 59.5733 754.214 59.2533 753.905 58.848C753.595 58.432 753.425 57.9573 753.393 57.424H754.897C754.939 57.8613 755.142 58.2187 755.505 58.496C755.878 58.7733 756.363 58.912 756.961 58.912C757.515 58.912 757.953 58.7893 758.273 58.544C758.593 58.2987 758.753 57.9893 758.753 57.616C758.753 57.232 758.582 56.9493 758.241 56.768C757.899 56.576 757.371 56.3893 756.657 56.208C756.006 56.0373 755.473 55.8667 755.057 55.696C754.651 55.5147 754.299 55.2533 754.001 54.912C753.713 54.56 753.569 54.1013 753.569 53.536C753.569 53.088 753.702 52.6773 753.969 52.304C754.235 51.9307 754.614 51.6373 755.105 51.424C755.595 51.2 756.155 51.088 756.785 51.088C757.755 51.088 758.539 51.3333 759.137 51.824C759.734 52.3147 760.054 52.9867 760.097 53.84H758.641C758.609 53.3813 758.422 53.0133 758.081 52.736C757.75 52.4587 757.302 52.32 756.737 52.32C756.214 52.32 755.798 52.432 755.489 52.656C755.179 52.88 755.025 53.1733 755.025 53.536C755.025 53.824 755.115 54.064 755.297 54.256C755.489 54.4373 755.723 54.5867 756.001 54.704C756.289 54.8107 756.683 54.9333 757.185 55.072C757.814 55.2427 758.326 55.4133 758.721 55.584C759.115 55.744 759.451 55.9893 759.729 56.32C760.017 56.6507 760.166 57.0827 760.177 57.616C760.177 58.096 760.043 58.528 759.777 58.912C759.51 59.296 759.131 59.6 758.641 59.824C758.161 60.0373 757.606 60.144 756.977 60.144ZM773.954 52.112C773.954 53.04 773.634 53.8133 772.994 54.432C772.364 55.04 771.399 55.344 770.098 55.344H767.954V60H766.498V48.848H770.098C771.356 48.848 772.311 49.152 772.962 49.76C773.623 50.368 773.954 51.152 773.954 52.112ZM770.098 54.144C770.908 54.144 771.506 53.968 771.89 53.616C772.274 53.264 772.466 52.7627 772.466 52.112C772.466 50.736 771.676 50.048 770.098 50.048H767.954V54.144H770.098ZM777.219 48.16V60H775.763V48.16H777.219ZM779.157 55.584C779.157 54.688 779.338 53.904 779.701 53.232C780.063 52.5493 780.559 52.0213 781.189 51.648C781.829 51.2747 782.538 51.088 783.317 51.088C784.085 51.088 784.751 51.2533 785.317 51.584C785.882 51.9147 786.303 52.3307 786.581 52.832V51.232H788.053V60H786.581V58.368C786.293 58.88 785.861 59.3067 785.285 59.648C784.719 59.9787 784.058 60.144 783.301 60.144C782.522 60.144 781.818 59.952 781.189 59.568C780.559 59.184 780.063 58.6453 779.701 57.952C779.338 57.2587 779.157 56.4693 779.157 55.584ZM786.581 55.6C786.581 54.9387 786.447 54.3627 786.181 53.872C785.914 53.3813 785.551 53.008 785.093 52.752C784.645 52.4853 784.149 52.352 783.605 52.352C783.061 52.352 782.565 52.48 782.117 52.736C781.669 52.992 781.311 53.3653 781.045 53.856C780.778 54.3467 780.645 54.9227 780.645 55.584C780.645 56.256 780.778 56.8427 781.045 57.344C781.311 57.8347 781.669 58.2133 782.117 58.48C782.565 58.736 783.061 58.864 783.605 58.864C784.149 58.864 784.645 58.736 785.093 58.48C785.551 58.2133 785.914 57.8347 786.181 57.344C786.447 56.8427 786.581 56.2613 786.581 55.6ZM792.289 52.432V57.6C792.289 58.0267 792.38 58.3307 792.561 58.512C792.743 58.6827 793.057 58.768 793.505 58.768H794.577V60H793.265C792.455 60 791.847 59.8133 791.441 59.44C791.036 59.0667 790.833 58.4533 790.833 57.6V52.432H789.697V51.232H790.833V49.024H792.289V51.232H794.577V52.432H792.289ZM799.909 52.432H798.069V60H796.613V52.432H795.477V51.232H796.613V50.608C796.613 49.6267 796.864 48.912 797.365 48.464C797.877 48.0053 798.693 47.776 799.813 47.776V48.992C799.173 48.992 798.72 49.12 798.453 49.376C798.197 49.6213 798.069 50.032 798.069 50.608V51.232H799.909V52.432ZM805.431 60.144C804.61 60.144 803.863 59.9573 803.191 59.584C802.53 59.2107 802.007 58.6827 801.623 58C801.25 57.3067 801.063 56.5067 801.063 55.6C801.063 54.704 801.255 53.9147 801.639 53.232C802.034 52.5387 802.567 52.0107 803.239 51.648C803.911 51.2747 804.663 51.088 805.495 51.088C806.327 51.088 807.079 51.2747 807.751 51.648C808.423 52.0107 808.951 52.5333 809.335 53.216C809.73 53.8987 809.927 54.6933 809.927 55.6C809.927 56.5067 809.724 57.3067 809.319 58C808.924 58.6827 808.386 59.2107 807.703 59.584C807.02 59.9573 806.263 60.144 805.431 60.144ZM805.431 58.864C805.954 58.864 806.444 58.7413 806.903 58.496C807.362 58.2507 807.73 57.8827 808.007 57.392C808.295 56.9013 808.439 56.304 808.439 55.6C808.439 54.896 808.3 54.2987 808.023 53.808C807.746 53.3173 807.383 52.9547 806.935 52.72C806.487 52.4747 806.002 52.352 805.479 52.352C804.946 52.352 804.455 52.4747 804.007 52.72C803.57 52.9547 803.218 53.3173 802.951 53.808C802.684 54.2987 802.551 54.896 802.551 55.6C802.551 56.3147 802.679 56.9173 802.935 57.408C803.202 57.8987 803.554 58.2667 803.991 58.512C804.428 58.7467 804.908 58.864 805.431 58.864ZM813.297 52.656C813.553 52.1547 813.916 51.7653 814.385 51.488C814.865 51.2107 815.447 51.072 816.129 51.072V52.576H815.745C814.113 52.576 813.297 53.4613 813.297 55.232V60H811.841V51.232H813.297V52.656ZM828.354 51.072C829.037 51.072 829.645 51.216 830.178 51.504C830.711 51.7813 831.133 52.2027 831.442 52.768C831.751 53.3333 831.906 54.0213 831.906 54.832V60H830.466V55.04C830.466 54.1653 830.247 53.4987 829.81 53.04C829.383 52.5707 828.802 52.336 828.066 52.336C827.309 52.336 826.706 52.5813 826.258 53.072C825.81 53.552 825.586 54.2507 825.586 55.168V60H824.146V55.04C824.146 54.1653 823.927 53.4987 823.49 53.04C823.063 52.5707 822.482 52.336 821.746 52.336C820.989 52.336 820.386 52.5813 819.938 53.072C819.49 53.552 819.266 54.2507 819.266 55.168V60H817.81V51.232H819.266V52.496C819.554 52.0373 819.938 51.6853 820.418 51.44C820.909 51.1947 821.447 51.072 822.034 51.072C822.77 51.072 823.421 51.2373 823.986 51.568C824.551 51.8987 824.973 52.384 825.25 53.024C825.495 52.4053 825.901 51.9253 826.466 51.584C827.031 51.2427 827.661 51.072 828.354 51.072Z" fill="#212529" fill-opacity="0.85"/>
<defs>
<clipPath id="clip0_1_672">
<rect width="397.09" height="397.09" fill="white" transform="translate(234.634 179.333) rotate(-4)"/>
</clipPath>
</defs>
</svg>
