<?xml version="1.0" encoding="utf-8"?>
<!-- Generator: Adobe Illustrator 26.0.1, SVG Export Plug-In . SVG Version: 6.00 Build 0)  -->
<svg version="1.1" id="Layer_1" xmlns="http://www.w3.org/2000/svg" xmlns:xlink="http://www.w3.org/1999/xlink" x="0px" y="0px"
	 viewBox="0 0 16 16" style="enable-background:new 0 0 16 16;" xml:space="preserve">
<style type="text/css">
	.st0{fill-rule:evenodd;clip-rule:evenodd;fill:#FFFFFF;stroke:#FFFFFF;stroke-width:0.75;stroke-miterlimit:10;}
</style>
<path class="st0" d="M9.7,4.6c0-0.3,0.2-0.5,0.5-0.5h4c0.3,0,0.5,0.2,0.5,0.5v4c0,0.3-0.2,0.5-0.5,0.5s-0.5-0.2-0.5-0.5V6l-3.6,4.4
	c-0.2,0.2-0.5,0.2-0.7,0.1l0,0L6.8,7.9l-3.7,5c-0.2,0.2-0.5,0.2-0.7,0.1c-0.2-0.2-0.3-0.5-0.1-0.7l4-5.5C6.5,6.6,6.8,6.5,7,6.7
	c0,0,0,0,0.1,0.1l2.6,2.6l3.4-4.3h-2.9C9.9,5.1,9.7,4.9,9.7,4.6z"/>
</svg>
