<svg width="400" height="400" viewBox="0 0 400 400" fill="none" xmlns="http://www.w3.org/2000/svg">
<path d="M312.424 140.298C320.396 135.65 322.829 126.016 318.021 118.139C313.212 110.263 303.383 107.78 295.41 112.428C291.117 114.931 288.426 119.374 287.701 124.316L268.08 135.757L246.999 101.223C228.973 112.556 220.67 133.005 224.523 152.94L207.967 162.593L206.118 159.565C201.68 152.295 192.341 149.935 185.474 154.35L113.852 195.699C106.494 199.989 104.304 208.66 108.742 215.93L108.128 216.288C98.316 222.009 95.1525 234.533 100.949 244.708C106.745 254.883 119.646 257.63 129.948 252.033L130.562 251.675C135.122 258.463 144.461 260.822 151.206 256.89L221.725 215.772C229.084 211.481 231.396 202.329 226.836 195.541L224.987 192.512L241.543 182.858C257.662 195.641 280.018 198.214 298.785 188.094L277.704 153.56L297.326 142.12C302.362 142.879 307.642 142.675 312.425 140.298L312.424 140.298Z" fill="#E9ECEF" fill-opacity="0.5"/>
<rect x="127.847" y="71.8534" width="85.2816" height="61.2851" transform="rotate(59.5766 127.847 71.8534)" fill="#E9ECEF" fill-opacity="0.5"/>
<rect x="222.159" y="228.412" width="85.2816" height="61.2851" transform="rotate(59.5766 222.159 228.412)" fill="#E9ECEF" fill-opacity="0.5"/>
<path d="M110.228 82.1982L118.866 96.908L136.483 86.5626L127.844 71.8528L110.228 82.1982Z" fill="#DEE2E6" fill-opacity="0.5"/>
<path d="M144.777 141.031L153.416 155.741L171.032 145.396L162.394 130.686L144.777 141.031Z" fill="#DEE2E6" fill-opacity="0.5"/>
<path d="M118.522 136.667L127.161 151.377L144.777 141.031L136.139 126.321L118.522 136.667Z" fill="#DEE2E6" fill-opacity="0.5"/>
<path d="M127.501 111.612L136.139 126.322L153.756 115.977L145.118 101.267L127.501 111.612Z" fill="#DEE2E6" fill-opacity="0.5"/>
<path d="M101.249 107.253L109.887 121.962L127.504 111.617L118.866 96.9073L101.249 107.253Z" fill="#DEE2E6" fill-opacity="0.5"/>
<path d="M75.0008 102.885L83.639 117.595L101.256 107.25L92.6174 92.5398L75.0008 102.885Z" fill="#DEE2E6" fill-opacity="0.5"/>
<path d="M109.55 161.718L118.189 176.428L135.805 166.083L127.167 151.373L109.55 161.718Z" fill="#DEE2E6" fill-opacity="0.5"/>
<path d="M92.274 132.299L100.912 147.009L118.529 136.664L109.891 121.954L92.274 132.299Z" fill="#DEE2E6" fill-opacity="0.5"/>
<path d="M204.54 238.757L213.179 253.467L230.795 243.122L222.157 228.412L204.54 238.757Z" fill="#DEE2E6" fill-opacity="0.5"/>
<path d="M239.09 297.59L247.728 312.3L265.345 301.955L256.707 287.245L239.09 297.59Z" fill="#DEE2E6" fill-opacity="0.5"/>
<path d="M212.835 293.226L221.473 307.936L239.09 297.59L230.452 282.88L212.835 293.226Z" fill="#DEE2E6" fill-opacity="0.5"/>
<path d="M221.814 268.171L230.452 282.881L248.069 272.536L239.431 257.826L221.814 268.171Z" fill="#DEE2E6" fill-opacity="0.5"/>
<path d="M195.562 263.812L204.2 278.521L221.817 268.176L213.178 253.466L195.562 263.812Z" fill="#DEE2E6" fill-opacity="0.5"/>
<path d="M169.313 259.444L177.952 274.154L195.568 263.809L186.93 249.099L169.313 259.444Z" fill="#DEE2E6" fill-opacity="0.5"/>
<path d="M203.863 318.277L212.501 332.987L230.118 322.642L221.48 307.932L203.863 318.277Z" fill="#DEE2E6" fill-opacity="0.5"/>
<path d="M186.587 288.858L195.225 303.568L212.842 293.223L204.203 278.513L186.587 288.858Z" fill="#DEE2E6" fill-opacity="0.5"/>
</svg>
